<?xml version="1.0" encoding="utf-8"?>
<!-- Generator: Adobe Illustrator 16.0.0, SVG Export Plug-In . SVG Version: 6.00 Build 0)  -->
<!DOCTYPE svg PUBLIC "-//W3C//DTD SVG 1.1//EN" "http://www.w3.org/Graphics/SVG/1.1/DTD/svg11.dtd">
<svg version="1.1" id="Layer_1" xmlns="http://www.w3.org/2000/svg" xmlns:xlink="http://www.w3.org/1999/xlink" x="0px" y="0px"
	 width="52.667px" height="53.333px" viewBox="0 0 52.667 53.333" enable-background="new 0 0 52.667 53.333" xml:space="preserve">
<circle fill="#FFFFFF" stroke="#000000" stroke-width="1.5" stroke-linecap="round" stroke-linejoin="round" stroke-miterlimit="10" cx="26.334" cy="26.667" r="24.379"/>
<g>
	<defs>
		<circle id="SVGID_1_" cx="26.334" cy="26.667" r="20"/>
	</defs>
	<use xlink:href="#SVGID_1_"  overflow="visible" fill="#3B5998"/>
	<clipPath id="SVGID_2_">
		<use xlink:href="#SVGID_1_"  overflow="visible"/>
	</clipPath>
	<use xlink:href="#SVGID_1_"  overflow="visible" fill="none" stroke="#000000" stroke-width="2.5" stroke-miterlimit="10"/>
</g>
<path fill-rule="evenodd" clip-rule="evenodd" fill="#FFFFFF" stroke="#000000" stroke-width="1.5" stroke-linecap="round" stroke-linejoin="round" stroke-miterlimit="10" d="
	M20.054,23.426c1.232,0,2.378,0,3.636,0c0-1.088-0.011-2.098,0.002-3.109c0.049-3.709,2.086-5.729,5.791-5.732
	c0.816,0,1.637,0.018,2.445,0.109c0.242,0.027,0.635,0.328,0.646,0.522c0.063,1.077,0.029,2.159,0.029,3.375
	c-0.896,0-1.703-0.036-2.507,0.008c-1.366,0.072-1.88,0.608-1.923,1.985c-0.029,0.91-0.006,1.822-0.006,2.858
	c1.455,0,2.83,0,4.281,0c-0.205,1.505-0.39,2.876-0.582,4.304c-1.229,0-2.38,0-3.647,0c0,3.685,0,7.301,0,11.002
	c-1.55,0-2.983,0-4.505,0c0-3.631,0-7.225,0-10.937c-1.25,0-2.42,0-3.661,0C20.054,26.325,20.054,24.952,20.054,23.426z"/>
</svg>
