<?xml version="1.0" encoding="utf-8"?>
<!-- Generator: Adobe Illustrator 16.0.0, SVG Export Plug-In . SVG Version: 6.00 Build 0)  -->
<!DOCTYPE svg PUBLIC "-//W3C//DTD SVG 1.1//EN" "http://www.w3.org/Graphics/SVG/1.1/DTD/svg11.dtd">
<svg version="1.1" id="Layer_1" xmlns="http://www.w3.org/2000/svg" xmlns:xlink="http://www.w3.org/1999/xlink" x="0px" y="0px"
	 width="52.667px" height="53.333px" viewBox="0 0 52.667 53.333" enable-background="new 0 0 52.667 53.333" xml:space="preserve">
<circle fill="#FFFFFF" stroke="#000000" stroke-width="1.5" stroke-linecap="round" stroke-linejoin="round" stroke-miterlimit="10" cx="26.334" cy="26.667" r="24.379"/>
<g>
	<g>
		<circle id="SVGID_1_" fill="#DD4B39" cx="26.333" cy="26.666" r="20"/>
	</g>
	<g>
		<circle id="SVGID_2_" fill="none" stroke="#000000" stroke-width="2.5" stroke-miterlimit="10" cx="26.333" cy="26.666" r="20"/>
	</g>
</g>
<g>
	
		<path fill="#FFFFFF" stroke="#000000" stroke-width="1.5" stroke-linecap="round" stroke-linejoin="round" stroke-miterlimit="10" d="
		M35.821,31.689c0,0.654-0.53,1.187-1.187,1.187H18.033c-0.656,0-1.187-0.531-1.187-1.187V21.643c0-0.655,0.53-1.186,1.187-1.186
		h16.603c0.655,0,1.187,0.53,1.187,1.186L35.821,31.689L35.821,31.689z"/>
	
		<path fill="#FFFFFF" stroke="#000000" stroke-width="1.5" stroke-linecap="round" stroke-linejoin="round" stroke-miterlimit="10" d="
		M34.635,32.875c0.05,0,0.098-0.011,0.146-0.017l-6.014-6.014l-1.594,1.596c-0.465,0.463-1.215,0.463-1.678,0L23.9,26.846
		l-6.014,6.014c0.049,0.006,0.096,0.016,0.146,0.016H34.635L34.635,32.875z"/>
	
		<path fill="#FFFFFF" stroke="#000000" stroke-width="1.5" stroke-linecap="round" stroke-linejoin="round" stroke-miterlimit="10" d="
		M34.635,20.458H18.033c-0.154,0-0.302,0.03-0.438,0.084l7.898,7.899c0.463,0.463,1.215,0.463,1.678,0l7.898-7.899
		C34.937,20.488,34.791,20.458,34.635,20.458z"/>
</g>
</svg>
