<?xml version="1.0" encoding="utf-8"?>
<!-- Generator: Adobe Illustrator 16.0.0, SVG Export Plug-In . SVG Version: 6.00 Build 0)  -->
<!DOCTYPE svg PUBLIC "-//W3C//DTD SVG 1.1//EN" "http://www.w3.org/Graphics/SVG/1.1/DTD/svg11.dtd">
<svg version="1.1" id="Layer_1" xmlns="http://www.w3.org/2000/svg" xmlns:xlink="http://www.w3.org/1999/xlink" x="0px" y="0px"
	 width="52.667px" height="53.333px" viewBox="0 0 52.667 53.333" enable-background="new 0 0 52.667 53.333" xml:space="preserve">
<g>
	
		<circle fill="#FFFFFF" stroke="#000000" stroke-width="1.5" stroke-linecap="round" stroke-linejoin="round" stroke-miterlimit="10" cx="26.334" cy="26.666" r="24.379"/>
	<g>
		<g>
			<circle id="SVGID_1_" fill="#00ACED" cx="26.334" cy="26.666" r="20"/>
		</g>
		<g>
			<circle id="SVGID_2_" fill="none" stroke="#000000" stroke-width="2.5" stroke-miterlimit="10" cx="26.334" cy="26.666" r="20"/>
		</g>
	</g>
	<g>
		<path fill="#FFFFFF" d="M22.834,37.284c-2.125,0-4.263-0.595-6.181-1.719c-0.29-0.17-0.431-0.513-0.346-0.837
			c0.085-0.325,0.376-0.556,0.712-0.562c1.214-0.021,2.473-0.131,3.648-0.66c-1.092-0.529-1.869-1.385-2.354-2.582
			c-0.09-0.223-0.068-0.475,0.059-0.678c0.026-0.043,0.057-0.08,0.09-0.115c-0.985-0.851-1.508-1.954-1.586-3.34
			c-0.014-0.237,0.086-0.469,0.271-0.621c0.09-0.074,0.194-0.125,0.306-0.151c-0.724-1.369-0.709-2.801,0.032-4.337
			c0.109-0.227,0.323-0.383,0.571-0.417c0.035-0.005,0.07-0.007,0.104-0.007c0.213,0,0.416,0.09,0.56,0.25
			c1.903,2.126,4.061,3.328,6.575,3.658c-0.008-1.838,0.836-3.256,2.457-4.108c0.701-0.37,1.422-0.558,2.146-0.558
			c0.938,0,1.883,0.316,2.801,0.941c0.078,0.053,0.262,0.105,0.469,0.105c0.061,0,0.117-0.004,0.17-0.014
			c0.193-0.033,0.383-0.099,0.578-0.164c0.322-0.106,0.688-0.229,1.123-0.276c0.027-0.003,0.057-0.005,0.082-0.005
			c0.266,0,0.514,0.14,0.648,0.373c0.148,0.257,0.133,0.578-0.041,0.817l-0.129,0.177c0.014,0,0.025,0,0.039,0
			c0.266,0,0.516,0.14,0.65,0.375c0.164,0.287,0.123,0.646-0.104,0.887c-0.166,0.179-0.314,0.348-0.455,0.506
			c-0.311,0.352-0.604,0.686-0.955,0.967c-0.193,0.156-0.26,0.271-0.271,0.646C34.285,32.254,29.16,37.284,22.834,37.284z"/>
		<path d="M29.894,21.25c0.809,0,1.604,0.283,2.381,0.813c0.23,0.159,0.572,0.234,0.891,0.234c0.104,0,0.201-0.008,0.295-0.023
			c0.527-0.09,1.021-0.363,1.658-0.436c-0.41,0.563-0.82,1.129-1.293,1.781c0.566-0.131,1.063-0.244,1.811-0.414
			c-0.533,0.57-0.887,1.043-1.332,1.399c-0.414,0.334-0.535,0.688-0.553,1.206c-0.213,6.332-5.268,10.723-10.917,10.723
			c-1.92,0-3.908-0.507-5.799-1.615c2.036-0.037,3.83-0.344,5.411-1.635c-1.623-0.289-2.791-1.049-3.437-2.641
			c0.503-0.036,0.919-0.066,1.58-0.114c-1.848-0.759-2.857-1.907-2.965-3.778c0.518,0.129,0.957,0.237,1.631,0.404
			c-1.598-1.584-2.041-3.191-1.096-5.146c2.135,2.386,4.682,3.799,7.891,3.981c0-0.255,0.007-0.443-0.002-0.632
			c-0.067-1.638,0.619-2.883,2.052-3.638C28.703,21.403,29.302,21.25,29.894,21.25 M35.117,21.838h0.006 M35.636,23.206h0.004
			 M29.894,19.75c-0.846,0-1.686,0.217-2.494,0.645c-1.589,0.838-2.556,2.195-2.797,3.891c-2-0.438-3.753-1.52-5.327-3.276
			c-0.287-0.321-0.693-0.5-1.117-0.5c-0.07,0-0.14,0.005-0.21,0.015c-0.495,0.07-0.924,0.382-1.142,0.833
			c-0.738,1.528-0.838,2.998-0.301,4.394c-0.264,0.295-0.403,0.686-0.381,1.086c0.08,1.379,0.557,2.535,1.424,3.457
			c-0.071,0.302-0.051,0.621,0.068,0.914c0.329,0.813,0.784,1.492,1.364,2.039c-0.612,0.114-1.269,0.159-1.978,0.172
			c-0.672,0.014-1.254,0.471-1.424,1.121c-0.17,0.649,0.112,1.334,0.691,1.674c2.033,1.19,4.301,1.82,6.559,1.82
			c6.734,0,12.187-5.347,12.417-12.171c0.002-0.041,0.004-0.073,0.006-0.096c0.408-0.335,0.713-0.683,1.035-1.047
			c0.125-0.144,0.26-0.294,0.408-0.454c0.27-0.271,0.439-0.646,0.439-1.061c0-0.461-0.209-0.873-0.535-1.147
			c0.012-0.071,0.018-0.146,0.018-0.22c0-0.828-0.67-1.5-1.498-1.5h-0.006c-0.064,0-0.131,0.005-0.193,0.014
			c-0.502,0.059-0.916,0.197-1.25,0.309c-0.186,0.063-0.348,0.115-0.467,0.137c-0.01,0-0.02,0-0.029,0
			c-0.055,0-0.09-0.004-0.111-0.008C32.033,20.099,30.966,19.75,29.894,19.75L29.894,19.75z"/>
	</g>
</g>
</svg>
