<?xml version="1.0" standalone="no"?>
<!DOCTYPE svg PUBLIC "-//W3C//DTD SVG 1.1//EN" "http://www.w3.org/Graphics/SVG/1.1/DTD/svg11.dtd" >
<svg xmlns="http://www.w3.org/2000/svg" xmlns:xlink="http://www.w3.org/1999/xlink" version="1.1">
<metadata></metadata>
<defs>
<font id="arbelhagildaregular" horiz-adv-x="1134" >
<font-face units-per-em="2048" ascent="1638" descent="-410" />
<missing-glyph horiz-adv-x="655" />
<glyph horiz-adv-x="0" />
<glyph horiz-adv-x="682" />
<glyph unicode=" "  horiz-adv-x="655" />
<glyph unicode="&#x09;" horiz-adv-x="655" />
<glyph unicode="&#xa0;" horiz-adv-x="655" />
<glyph unicode="!" horiz-adv-x="659" d="M205 104q0 51 37 88t88 37t88 -37t37 -88t-37 -87.5t-88 -36.5t-88 36.5t-37 87.5zM221 1118q-3 53 27 86t78 33t77.5 -33t26.5 -86l-33 -694q-2 -30 -22 -50t-49 -20t-49.5 20.5t-22.5 49.5z" />
<glyph unicode="&#x22;" horiz-adv-x="942" d="M205 698v535q0 12 9 21.5t22 9.5h98q12 0 21.5 -9.5t9.5 -21.5v-535q0 -12 -9.5 -21t-21.5 -9h-98q-13 0 -22 9t-9 21zM578 698v535q0 12 8.5 21.5t21.5 9.5h99q12 0 21 -9.5t9 -21.5v-535q0 -12 -9 -21t-21 -9h-99q-13 0 -21.5 9t-8.5 21z" />
<glyph unicode="#" horiz-adv-x="1341" d="M207 346l10 68q8 35 43 35h174l27 174h-174q-17 0 -25 10t-6 24l10 66q2 14 13.5 24.5t29.5 10.5h174l43 276q3 17 15.5 27t25.5 10h66q15 0 23.5 -9.5t5.5 -27.5l-44 -276h177l43 276q3 17 15 27t24 10h67q15 0 23.5 -9.5t5.5 -27.5l-43 -276h174q35 0 31 -35l-11 -66 q-2 -13 -13.5 -23.5t-29.5 -10.5h-174l-26 -174h174q18 0 25.5 -10.5t4.5 -24.5l-10 -68q-2 -13 -13.5 -23t-29.5 -10h-174l-43 -276q-3 -18 -14.5 -27.5t-26.5 -9.5h-67q-12 0 -21 10t-6 27l43 276h-176l-43 -276q-3 -18 -14.5 -27.5t-26.5 -9.5h-66q-13 0 -22 9.5t-6 27.5 l43 276h-174q-17 0 -25 10t-6 23zM569 449h176l27 174h-176z" />
<glyph unicode="$" horiz-adv-x="1085" d="M135 973q12 131 102.5 215t231.5 94v45q0 13 8.5 21t18.5 8h84q11 0 18.5 -8t7.5 -21v-51q108 -15 238 -68q34 -14 24 -47l-22 -67q-4 -15 -19 -20t-30 1q-120 45 -191 55v-442q195 -86 269.5 -173t62.5 -224q-10 -130 -101 -213.5t-231 -95.5v-48q0 -13 -7.5 -20.5 t-18.5 -7.5h-84q-10 0 -18.5 7.5t-8.5 20.5v52q-144 13 -272 69q-15 6 -22 19t-3 28l23 68q4 15 19 19.5t30 -1.5q103 -42 225 -59v446q-192 85 -268.5 177.5t-65.5 220.5zM293 961q-4 -73 42 -122.5t134 -90.5v387q-79 -11 -126 -56t-50 -118zM606 127q76 11 121 56.5 t49 119.5q4 75 -36 121t-134 90v-387z" />
<glyph unicode="%" horiz-adv-x="1196" d="M197 856q0 47 9.5 88.5t31 79t62 60t95.5 22.5t95.5 -22.5t62 -60t31.5 -79t10 -88.5t-10 -90t-31.5 -81.5t-62 -61.5t-95.5 -23t-95.5 23t-62 62t-31 81.5t-9.5 89.5zM229 305q-14 18 4 29l623 471q15 12 27 -4l28 -37q13 -16 -2 -27l-624 -473q-15 -11 -27 4zM295 856 q0 -182 100 -182q101 0 101 182q0 178 -101 178q-100 0 -100 -178zM586 248q0 47 9.5 88.5t31 79t62 60t95.5 22.5t95.5 -22.5t62 -60t31.5 -79t10 -88.5t-10 -89.5t-31.5 -81t-62 -61t-95.5 -22.5q-44 0 -79.5 15.5t-57 40t-36 58.5t-20 68.5t-5.5 71.5zM684 248 q0 -182 100 -182q101 0 101 182q0 178 -101 178q-100 0 -100 -178z" />
<glyph unicode="&#x26;" horiz-adv-x="1239" d="M205 315q0 109 55.5 192.5t151.5 158.5l-107 155q-55 79 -55 172q0 123 92.5 207t220.5 84q74 0 143 -34.5t113 -100.5q31 -48 -4 -72l-31 -22q-39 -27 -63 10q-59 86 -162 86q-67 0 -115.5 -40t-48.5 -107q0 -46 27 -86l401 -590l111 139q10 13 25.5 15t27.5 -7l33 -26 q28 -22 6 -54l-125 -180l111 -166q11 -15 1.5 -32t-30.5 -17h-74q-20 0 -32.5 6t-26.5 27l-45 67q-107 -110 -266 -110q-88 0 -162.5 36t-123 111.5t-48.5 177.5zM350 317q0 -92 56.5 -143t136.5 -51q111 0 186 84l-240 350q-70 -50 -104.5 -113t-34.5 -127z" />
<glyph unicode="'" horiz-adv-x="569" d="M205 698v535q0 12 9 21.5t22 9.5h98q12 0 21.5 -9.5t9.5 -21.5v-535q0 -12 -9.5 -21t-21.5 -9h-98q-13 0 -22 9t-9 21z" />
<glyph unicode="(" horiz-adv-x="747" d="M205 623q0 280 145 514q102 159 164 159q12 0 20.5 -10.5t8.5 -25.5q0 -13 -29 -76q-87 -186 -121 -334q-26 -117 -26 -227q0 -259 139 -543q37 -73 37 -92q0 -17 -8.5 -28t-20.5 -11q-53 0 -131 114q-178 251 -178 560z" />
<glyph unicode=")" horiz-adv-x="747" d="M205 -12q0 19 37 92q139 284 139 543q0 105 -27 227q-34 148 -121 334q-28 61 -28 76t8 25.5t20 10.5q62 0 164 -159q146 -235 146 -514q0 -309 -178 -560q-78 -114 -132 -114q-12 0 -20 11t-8 28z" />
<glyph unicode="*" horiz-adv-x="1122" d="M207 1214l16 50q7 23 31 16l246 -68l12 256q0 10 7 16.5t18 6.5h53q24 0 24 -23l13 -256l243 66q9 3 18.5 -2.5t12.5 -15.5l14 -48q6 -24 -12 -30l-239 -90l141 -211q6 -8 3.5 -18.5t-11.5 -16.5l-41 -29q-19 -14 -33 4l-160 199l-160 -199q-14 -17 -34 -4l-41 31 q-18 15 -6 33l139 213l-240 90q-20 9 -14 30z" />
<glyph unicode="+" horiz-adv-x="1157" d="M205 500v92q0 6 5.5 12t14.5 6h287v295q0 21 18 21h93q7 0 12.5 -5.5t5.5 -15.5v-295h291q8 0 14 -6t6 -12v-92q0 -8 -5.5 -13.5t-14.5 -5.5h-291v-288q0 -10 -5.5 -16.5t-12.5 -6.5h-93q-18 0 -18 23v286h-287q-9 0 -14.5 6.5t-5.5 14.5z" />
<glyph unicode="," horiz-adv-x="712" d="M207 -193l84 349q6 26 15 33.5t32 7.5h145q16 0 22 -10t-1 -27l-176 -400q-13 -33 -47 -18l-50 20q-32 13 -24 45z" />
<glyph unicode="-" horiz-adv-x="1187" d="M205 475v82q0 13 9.5 23t23.5 10h712q12 0 22.5 -10t10.5 -23v-82q0 -13 -10.5 -23t-22.5 -10h-712q-14 0 -23.5 10t-9.5 23z" />
<glyph unicode="." horiz-adv-x="659" d="M205 104q0 51 37 88t88 37t88 -37t37 -88t-37 -87.5t-88 -36.5t-88 36.5t-37 87.5z" />
<glyph unicode="/" horiz-adv-x="1185" d="M209 57l627 1280q6 13 17.5 17.5t25.5 -0.5l86 -43q26 -13 12 -41l-627 -1280q-6 -13 -17.5 -17.5t-25.5 0.5l-86 43q-26 13 -12 41z" />
<glyph unicode="0" horiz-adv-x="1110" d="M143 631q0 78 8.5 152t27 149.5t51 138t76.5 111.5t108 76.5t141 27.5t141 -27.5t108 -76.5t76.5 -111.5t51 -138t27 -149.5t8.5 -152q0 -95 -12 -184t-41.5 -177t-75 -153t-118.5 -105.5t-165 -40.5t-165 40.5t-118.5 105.5t-75 153t-41.5 177t-12 184zM317 631 q0 -66 4 -125.5t18.5 -134.5t39 -128.5t70 -90.5t106.5 -37t106.5 37t70 90.5t39 128.5t18.5 134.5t4 125.5q0 64 -4 122.5t-18.5 133.5t-39 128.5t-70 90.5t-106.5 37t-106.5 -37t-70 -90.5t-39 -128.5t-18.5 -133.5t-4 -122.5z" />
<glyph unicode="1" horiz-adv-x="1089" d="M143 33v84q0 13 9.5 23t23.5 10h283v935l-199 -73q-32 -10 -41 18l-31 90q-4 13 2.5 25.5t20.5 17.5l307 113q40 14 71.5 -7.5t31.5 -62.5v-1056h251q14 0 23.5 -10t9.5 -23v-84q0 -13 -9.5 -23t-23.5 -10h-696q-14 0 -23.5 10t-9.5 23z" />
<glyph unicode="2" horiz-adv-x="1075" d="M145 43v119l441 456q100 104 135 172.5t33 147.5q-1 87 -68 142t-149 55q-100 0 -162.5 -44.5t-110.5 -123.5q-23 -38 -61 -15l-43 27q-29 17 -15 57q48 121 155.5 186.5t236.5 65.5q95 0 182 -39.5t146 -120.5t61 -186q5 -201 -199 -399l-408 -393h467v69q0 13 10 23 t23 10h60q13 0 22.5 -9.5t9.5 -23.5v-192q0 -10 -8.5 -18.5t-17.5 -8.5h-697q-17 0 -30 13t-13 30z" />
<glyph unicode="3" horiz-adv-x="1091" d="M156 160q-25 37 6 65l31 27q15 13 33 12t32 -16q107 -125 256 -125q120 0 197 82t77 194q0 123 -78 197t-190 74h-53q-34 0 -39 22l-22 99l296 323h-481q-14 0 -24.5 11t-10.5 26v76q0 17 10.5 27t24.5 10h619q14 0 24 -10t10 -25v-127l-272 -297q148 -22 247 -128 t99 -276q0 -131 -62 -231t-157.5 -149.5t-206.5 -49.5q-104 0 -201 48t-165 141z" />
<glyph unicode="4" horiz-adv-x="1140" d="M143 379v113l463 761q21 35 62 29l125 -18q41 -7 41 -47v-742h131q13 0 22.5 -9.5t9.5 -23.5v-73q0 -14 -9.5 -23.5t-22.5 -9.5h-131v-195h131q13 0 22.5 -9.5t9.5 -22.5v-76q0 -14 -9.5 -23.5t-22.5 -9.5h-494q-13 0 -23 10t-10 23v76q0 13 9.5 22.5t23.5 9.5h207v195 h-492q-17 0 -30 13t-13 30zM297 475h381v631z" />
<glyph unicode="5" horiz-adv-x="1089" d="M156 160q-25 37 6 65l31 27q15 13 33 12t32 -16q107 -125 256 -125q120 0 197 82t77 194q0 123 -78 197t-190 74q-105 0 -196 -62q-37 -24 -72 -4l-62 35v590q0 15 10.5 25t24.5 10h590q14 0 24.5 -10t10.5 -27v-76q0 -15 -10.5 -26t-24.5 -11h-469v-346q91 45 197 45 q107 0 198.5 -49t149 -144.5t57.5 -218.5q0 -131 -62 -231t-157.5 -149.5t-206.5 -49.5q-104 0 -201 48t-165 141z" />
<glyph unicode="6" horiz-adv-x="1097" d="M143 539q0 339 176 542q85 97 202.5 150t256.5 53h41q39 0 39 -39v-49q0 -37 -39 -37q-202 0 -347.5 -142.5t-162.5 -369.5q41 69 117.5 107.5t151.5 38.5q157 0 266.5 -121.5t109.5 -290.5q0 -170 -110 -290t-269 -120q-197 0 -315 154q-117 155 -117 414zM332 381 q0 -112 66 -190t165 -78q97 0 163.5 78.5t66.5 189.5q0 110 -66.5 187t-163.5 77q-99 0 -165 -77t-66 -187z" />
<glyph unicode="7" horiz-adv-x="1052" d="M143 1032v189q0 17 13 30t30 13h643q42 0 65 -32.5t11 -74.5l-338 -1122q-5 -21 -18 -28t-35 -7h-84q-20 0 -29.5 13.5t-3.5 33.5l340 1067h-469v-82q0 -14 -9.5 -23.5t-22.5 -9.5h-60q-14 0 -23.5 9.5t-9.5 23.5z" />
<glyph unicode="8" horiz-adv-x="1095" d="M143 344q0 98 50 177.5t143 123.5q-84 47 -131 124t-47 167q0 147 113.5 250.5t275.5 103.5q164 0 278.5 -103.5t114.5 -250.5q0 -90 -47 -167t-131 -124q92 -43 141 -122.5t49 -178.5q0 -154 -118.5 -263.5t-286.5 -109.5q-167 0 -285.5 109.5t-118.5 263.5zM307 342 q0 -95 70.5 -162t169.5 -67q100 0 170.5 67t70.5 162q0 96 -70.5 163.5t-170.5 67.5q-99 0 -169.5 -67.5t-70.5 -163.5zM317 932q0 -91 67.5 -156t162.5 -65q96 0 163.5 65t67.5 156q0 93 -67.5 158t-163.5 65q-95 0 -162.5 -65.5t-67.5 -157.5z" />
<glyph unicode="9" horiz-adv-x="1097" d="M143 881q0 170 110 289.5t269 119.5q199 0 316 -153q116 -154 116 -414q0 -338 -176 -541q-84 -97 -202 -149.5t-257 -52.5h-40q-39 0 -39 38v50q0 36 39 36q203 0 347.5 141.5t161.5 368.5q-41 -68 -117 -106.5t-151 -38.5q-157 0 -267 121.5t-110 290.5zM305 881 q0 -110 66.5 -187.5t163.5 -77.5q99 0 165 77.5t66 187.5q0 112 -66 190t-165 78q-97 0 -163.5 -78.5t-66.5 -189.5z" />
<glyph unicode=":" horiz-adv-x="684" d="M205 119q0 57 40 97t97 40t97 -40t40 -97t-40 -97t-97 -40t-97 40t-40 97zM205 778q0 57 40 97t97 40t97 -40t40 -97t-40 -97t-97 -40t-97 40t-40 97z" />
<glyph unicode=";" horiz-adv-x="739" d="M207 31l84 348q6 26 15 33.5t32 7.5h145q16 0 22 -10t-1 -27l-176 -399q-13 -34 -47 -19l-50 21q-33 9 -24 45zM260 778q0 57 40 97t97 40t97.5 -40t40.5 -97t-40.5 -97t-97.5 -40t-97 40t-40 97z" />
<glyph unicode="&#x3c;" horiz-adv-x="937" d="M206 495q0 46 32 78l378 379q9 9 21.5 9t21.5 -9l62 -61q19 -19 -2 -41l-348 -350l352 -353q9 -9 9 -21.5t-9 -21.5l-64 -61q-9 -9 -21.5 -10t-21.5 8l-378 377q-32 31 -32 77z" />
<glyph unicode="=" horiz-adv-x="1165" d="M205 305v92q0 10 9 18.5t22 8.5h696q13 0 21 -8.5t8 -18.5v-92q0 -11 -8 -18.5t-21 -7.5h-696q-13 0 -22 7.5t-9 18.5zM205 694v92q0 10 9 18.5t22 8.5h696q13 0 21 -8.5t8 -18.5v-92q0 -11 -8 -18.5t-21 -7.5h-696q-13 0 -22 7.5t-9 18.5z" />
<glyph unicode="&#x3e;" horiz-adv-x="937" d="M206 125.5q0 12.5 9 21.5l352 353l-348 350q-21 22 -2 41l62 61q9 9 21.5 9t21.5 -9l378 -379q32 -32 32 -78t-32 -77l-378 -377q-9 -9 -21.5 -8t-21.5 10l-64 61q-9 9 -9 21.5z" />
<glyph unicode="?" horiz-adv-x="1085" d="M207.5 1012q-3.5 17 3.5 28q49 104 142 160.5t198 56.5q83 0 157 -33.5t123.5 -102t49.5 -158.5q0 -67 -30 -124.5t-72.5 -98.5t-84.5 -80.5t-72 -91t-30 -109.5v-64q0 -19 -10 -30t-27 -11h-80q-14 0 -25 9t-12 24q-4 70 5 124.5t33.5 98t49 72.5t66.5 68q1 1 19.5 17.5 t22.5 21t20 20.5t21.5 24.5l16.5 25.5t15 30.5t8 31.5t4 37q0 71 -51 114.5t-117 43.5q-146 0 -225 -143q-12 -21 -31 -21q-12 0 -21 6l-49 29q-14 8 -17.5 25zM391 104q0 51 37 88t88 37t88 -37t37 -88t-37 -87.5t-88 -36.5t-88 36.5t-37 87.5z" />
<glyph unicode="@" horiz-adv-x="1734" d="M205 520q0 180 88.5 333t240.5 242t332 89q181 0 333.5 -89t241.5 -241.5t89 -333.5q0 -93 -27 -174t-87 -136.5t-144 -55.5q-133 0 -191 94q-46 -45 -119.5 -73t-148.5 -28q-103 0 -175 53t-75 158q-4 111 82 174.5t215 63.5h166v47q0 25 -3 44.5t-12 33.5t-17 23.5 t-27.5 15.5t-32 9.5t-43 4.5t-48 1t-59 -0.5t-65.5 -0.5q-29 0 -29 25v43q0 24 29 28q147 14 240 3t136.5 -73.5t43.5 -197.5v-205q0 -76 37.5 -111.5t93.5 -35.5q41 0 70 20.5t44.5 58.5t22 80t8.5 97v14q0 149 -73.5 275.5t-200 200t-275.5 73.5q-148 0 -274.5 -73.5 t-200.5 -200t-74 -275.5t74 -275.5t200.5 -200t274.5 -73.5h27v-112h-27q-134 0 -256.5 52.5t-211 141t-141 211t-52.5 256.5zM676 356q8 -108 141 -108q59 0 120 22.5t89 53.5v178h-166q-90 0 -139.5 -40.5t-44.5 -105.5z" />
<glyph unicode="A" horiz-adv-x="1122" d="M145 31l316 1192q11 41 55 41h90q45 0 56 -41l315 -1192q3 -12 -5 -21.5t-20 -9.5h-88q-14 0 -25 9t-14 22l-120 467h-287l-121 -467q-3 -13 -14 -22t-25 -9h-88q-12 0 -20 9.5t-5 21.5zM455 645h211l-105 428z" />
<glyph unicode="B" d="M205 43v1178q0 17 13 30t30 13h383q127 0 218 -91t91 -219v-43q0 -140 -98 -215q69 -40 109 -108.5t40 -147.5v-131q0 -127 -90.5 -218t-218.5 -91h-434q-17 0 -30 13t-13 30zM360 147h322q64 0 113 48.5t49 113.5v133q0 64 -49 113t-113 49h-322v-457zM360 743h279 q64 0 109 47.5t45 112.5v51q0 64 -48.5 113t-113.5 49h-271v-373z" />
<glyph unicode="C" horiz-adv-x="1101" d="M205 344v571q0 153 121 261t292 108q87 0 175.5 -38t154.5 -124q9 -12 8 -28.5t-14 -28.5l-41 -33q-14 -13 -28 -13q-16 0 -31 17q-41 45 -100 73t-119 28q-102 0 -179 -64.5t-77 -154.5v-576q0 -90 77 -155.5t179 -65.5q60 0 119.5 27.5t99.5 72.5q15 17 31 17 q14 0 28 -13l41 -32q13 -12 14 -29t-8 -29q-66 -86 -154.5 -124t-175.5 -38q-170 0 -291.5 108.5t-121.5 262.5z" />
<glyph unicode="D" d="M207 43v1178q0 17 13 30t30 13h328q170 0 291.5 -108.5t121.5 -262.5v-522q0 -154 -121.5 -262.5t-291.5 -108.5h-328q-17 0 -30 13t-13 30zM367 150h206q102 0 179 65.5t77 155.5v524q0 90 -77 154.5t-179 64.5h-206v-964z" />
<glyph unicode="E" d="M205 43v1178q0 17 13 30t30 13h710q13 0 23 -9t10 -22v-86q0 -13 -10.5 -23t-22.5 -10h-591v-319h325q13 0 23 -9t10 -22v-84q0 -13 -10.5 -23t-22.5 -10h-325v-497h591q13 0 23 -9t10 -22v-86q0 -13 -10.5 -23t-22.5 -10h-710q-17 0 -30 13t-13 30z" />
<glyph unicode="F" d="M205 31v1190q0 17 13 30t30 13h710q13 0 23 -9t10 -22v-86q0 -13 -10.5 -23t-22.5 -10h-591v-319h325q13 0 23 -9t10 -22v-84q0 -13 -10.5 -23t-22.5 -10h-325v-616q0 -13 -9.5 -22t-23.5 -9h-96q-14 0 -23.5 9t-9.5 22z" />
<glyph unicode="G" horiz-adv-x="1204" d="M184 344v571q0 153 121.5 261t292.5 108q87 0 175.5 -38t154.5 -124q9 -12 8 -28.5t-14 -28.5l-41 -33q-13 -12 -30 -11.5t-30 15.5q-41 45 -100 73t-119 28q-102 0 -179 -64.5t-77 -154.5v-576q0 -90 77 -155.5t179 -65.5t179 65.5t77 155.5v213h-254q-12 0 -22.5 10 t-10.5 23v84q0 13 10 21.5t23 8.5h314q43 0 72.5 -29.5t29.5 -72.5v-256q0 -153 -123.5 -262t-294.5 -109t-294.5 109t-123.5 262z" />
<glyph unicode="H" horiz-adv-x="1196" d="M205 31v1200q0 13 9.5 23t23.5 10h96q14 0 23.5 -10t9.5 -23v-436h462v436q0 13 9.5 23t23.5 10h96q14 0 23.5 -10t9.5 -23v-1200q0 -13 -9.5 -22t-23.5 -9h-96q-14 0 -23.5 9t-9.5 22v616h-462v-616q0 -13 -9.5 -22t-23.5 -9h-96q-14 0 -23.5 9t-9.5 22z" />
<glyph unicode="I" horiz-adv-x="1157" d="M184 31v86q0 13 10.5 23t22.5 10h275v964h-275q-12 0 -22.5 10t-10.5 23v86q0 13 10 22t23 9h723q13 0 23 -9t10 -22v-86q0 -13 -10.5 -23t-22.5 -10h-287v-964h287q12 0 22.5 -10t10.5 -23v-86q0 -13 -10 -22t-23 -9h-723q-13 0 -23 9t-10 22z" />
<glyph unicode="J" horiz-adv-x="1159" d="M184 1147v84q0 12 10 21.5t23 9.5h725q12 0 22.5 -9.5t10.5 -21.5v-84q0 -14 -10 -23.5t-23 -9.5h-143v-743q0 -69 -13 -123.5t-35.5 -93.5t-59 -67t-76 -44.5t-94 -26t-106 -13t-118.5 -3.5h-72q-17 0 -28 11t-11 28v76q0 37 39 37q206 5 267 18q88 19 118 81 q27 55 27 179v684h-420q-14 0 -23.5 9t-9.5 24z" />
<glyph unicode="K" horiz-adv-x="1148" d="M205 31v1200q0 13 9.5 23t23.5 10h96q14 0 23.5 -10t9.5 -23v-561l510 585q9 10 23 10.5t24 -8.5l67 -57q22 -19 2 -43l-395 -448l391 -656q10 -19 0 -36t-31 -17h-79q-23 0 -35.5 7t-24.5 28l-321 559l-131 -150v-413q0 -13 -9.5 -22t-23.5 -9h-96q-14 0 -23.5 9 t-9.5 22z" />
<glyph unicode="L" d="M205 43v1190q0 13 9.5 22t23.5 9h96q14 0 23.5 -9t9.5 -22v-1083h591q12 0 22.5 -10t10.5 -23v-86q0 -13 -10 -22t-23 -9h-710q-17 0 -30 13t-13 30z" />
<glyph unicode="M" horiz-adv-x="1196" d="M205 31v1194q0 15 11 27t26 12h112l244 -463l244 463h112q15 0 26 -12t11 -27v-1194q0 -13 -9.5 -22t-23.5 -9h-88q-14 0 -23 9t-9 22v936l-179 -332q-20 -41 -61 -41t-61 41l-179 332v-936q0 -13 -9 -22t-23 -9h-88q-14 0 -23.5 9t-9.5 22z" />
<glyph unicode="N" horiz-adv-x="1198" d="M205 31v1194q0 15 11 27t26 12h114l475 -920v889q0 13 9.5 22t23.5 9h97q14 0 23 -9t9 -22v-1196q0 -15 -11 -26t-26 -11h-112l-477 920v-889q0 -13 -9.5 -22t-23.5 -9h-96q-14 0 -23.5 9t-9.5 22z" />
<glyph unicode="O" horiz-adv-x="1245" d="M205 344v571q0 153 121 261t292 108q177 0 299.5 -107.5t122.5 -261.5v-571q0 -154 -122.5 -261.5t-299.5 -107.5q-171 0 -292 108t-121 261zM367 342q0 -90 77 -154.5t179 -64.5t179 64.5t77 154.5v576q0 90 -77 154.5t-179 64.5t-179 -64.5t-77 -154.5v-576z" />
<glyph unicode="P" d="M205 31v1190q0 17 13 30t30 13h434q127 0 218 -91t91 -219v-90q0 -128 -90.5 -218.5t-218.5 -90.5h-315v-524q0 -13 -9.5 -22t-23.5 -9h-96q-14 0 -23.5 9t-9.5 22zM367 702h315q64 0 113 49t49 113v90q0 64 -49 113t-113 49h-315v-414z" />
<glyph unicode="Q" horiz-adv-x="1251" d="M205 344v571q0 153 121 261t292 108q177 0 299.5 -107.5t122.5 -261.5v-571q0 -155 -122 -264l122 -180q16 -22 -4 -39l-75 -56q-24 -17 -41 7l-132 190q-82 -29 -161 -29h-9q-170 0 -291.5 108.5t-121.5 262.5zM367 342q0 -90 77 -155.5t179 -65.5q48 0 77 10l-125 184 q-17 24 7 41l73 54q24 17 41 -7l131 -192q52 62 52 131v576q0 90 -77 154.5t-179 64.5t-179 -64.5t-77 -154.5v-576z" />
<glyph unicode="R" horiz-adv-x="1148" d="M205 31v1190q0 17 13 30t30 13h434q127 0 218 -91t91 -219v-90q0 -114 -75.5 -201t-186.5 -104l268 -506q10 -19 0 -36t-30 -17h-72q-23 0 -36 7t-23 28l-265 520h-204v-524q0 -13 -9.5 -22t-23.5 -9h-96q-14 0 -23.5 9t-9.5 22zM367 702h315q64 0 113 49t49 113v90 q0 64 -49 113t-113 49h-315v-414z" />
<glyph unicode="S" horiz-adv-x="1128" d="M166 973q12 140 114.5 225.5t258.5 85.5q153 0 335 -76q35 -14 25 -47l-22 -67q-12 -34 -50 -19q-162 64 -278 64q-100 0 -160.5 -46.5t-64.5 -131.5v-13q0 -39 16 -72q18 -38 59.5 -68t81.5 -50.5t105 -46.5q227 -93 311 -183q74 -78 73 -201q0 -17 -1 -36 q-12 -140 -114.5 -225.5t-258.5 -85.5q-189 0 -369 75q-34 14 -24 47l22 68q11 33 49 18q160 -63 312 -63q99 0 158 46.5t63 131.5v12q-1 32 -9 58q-10 31 -27.5 53.5t-54.5 46t-72.5 40t-96.5 42.5q-221 91 -307 187q-75 84 -75 199q0 15 1 32z" />
<glyph unicode="T" horiz-adv-x="1157" d="M184 1147v86q0 13 10 22t23 9h723q13 0 23 -9t10 -22v-86q0 -13 -10.5 -23t-22.5 -10h-287v-1083q0 -13 -9 -22t-23 -9h-97q-14 0 -23 9t-9 22v1083h-275q-12 0 -22.5 10t-10.5 23z" />
<glyph unicode="U" horiz-adv-x="1245" d="M205 344v887q0 14 9 23.5t24 9.5h96q14 0 23.5 -9t9.5 -22v-891q0 -90 77 -155.5t179 -65.5t179 65.5t77 155.5v889q0 14 8.5 23.5t23.5 9.5h97q14 0 23 -9t9 -22v-889q0 -154 -122 -262.5t-295 -108.5t-295.5 108.5t-122.5 262.5z" />
<glyph unicode="V" horiz-adv-x="1204" d="M188 1225q-4 15 5 27t24 12h92q16 0 28 -8.5t15 -22.5l250 -1040l250 1040q3 14 15 22.5t28 8.5h92q15 0 24 -12t5 -27l-314 -1184q-9 -41 -53 -41h-94q-44 0 -53 41z" />
<glyph unicode="W" horiz-adv-x="1294" d="M184 1225q-3 39 37 39h80q32 0 35 -31l76 -1043l149 469q9 31 43 31h86q34 0 43 -31l150 -469l75 1043q3 31 35 31h80q40 0 37 -39l-106 -1182q-1 -20 -15 -31.5t-35 -11.5h-137l-170 475l-172 -475h-135q-21 0 -34.5 11.5t-14.5 31.5z" />
<glyph unicode="X" horiz-adv-x="1200" d="M167 55.5q-3 12.5 3 22.5l340 553l-340 553q-6 10 -3 22.5t13 18.5l76 49q26 15 39 -8l305 -496l305 496q13 23 39 8l76 -49q10 -6 13 -18.5t-3 -22.5l-340 -553l340 -553q6 -10 3 -22.5t-13 -18.5l-76 -49q-26 -15 -39 8l-305 496l-305 -496q-13 -23 -39 -8l-76 49 q-10 6 -13 18.5z" />
<glyph unicode="Y" horiz-adv-x="1183" d="M170 1184q-17 24 4 39l76 55q9 8 21.5 6t19.5 -12l301 -441l301 441q7 10 19.5 12t21.5 -6l76 -55q21 -15 4 -39l-340 -496v-657q0 -13 -9 -22t-24 -9h-96q-15 0 -24 9t-9 22v657z" />
<glyph unicode="Z" horiz-adv-x="1136" d="M184 43v66l566 1005h-506q-12 0 -21.5 9.5t-9.5 21.5v88q0 13 9.5 22t21.5 9h665q17 0 30 -13t13 -30v-62l-565 -1009h506q12 0 21.5 -9.5t9.5 -21.5v-88q0 -13 -9.5 -22t-21.5 -9h-666q-17 0 -30 13t-13 30z" />
<glyph unicode="[" horiz-adv-x="649" d="M205 -68v1393q0 12 8 21.5t20 9.5h181q12 0 21 -8.5t9 -20.5v-57q0 -12 -9 -21.5t-21 -9.5h-49v-1221h49q12 0 21 -9t9 -21v-58q0 -12 -9 -20t-21 -8h-181q-12 0 -20 9t-8 21z" />
<glyph unicode="\" horiz-adv-x="1185" d="M209 1270q-14 28 12 41l86 43q14 5 25.5 0.5t17.5 -17.5l627 -1280q14 -28 -12 -41l-86 -43q-14 -5 -25.5 -0.5t-17.5 17.5z" />
<glyph unicode="]" horiz-adv-x="649" d="M205 -12q0 12 9.5 21t21.5 9h49v1221h-49q-12 0 -21.5 9.5t-9.5 21.5v57q0 12 9.5 20.5t21.5 8.5h180q12 0 20 -9.5t8 -21.5v-1393q0 -12 -8 -21t-20 -9h-180q-12 0 -21.5 8t-9.5 20v58z" />
<glyph unicode="^" horiz-adv-x="788" d="M27 436l315 701h109l317 -701h-119l-252 568l-252 -568h-118z" />
<glyph unicode="_" horiz-adv-x="1105" d="M164 33v82q0 13 9.5 22.5t23.5 9.5h712q12 0 22.5 -9.5t10.5 -22.5v-82q0 -13 -10.5 -23t-22.5 -10h-712q-13 0 -23 10t-10 23z" />
<glyph unicode="`" horiz-adv-x="772" d="M208.5 1504q5.5 12 20.5 12h144q23 0 33 -7.5t20 -33.5l133 -287q16 -33 -12 -45l-43 -21q-30 -13 -53 19l-238 338q-10 13 -4.5 25z" />
<glyph unicode="a" horiz-adv-x="1110" d="M143 268v13q0 93 52 163q56 74 147.5 110t204.5 36h225v65q0 54 -12 88.5t-37 53t-63 26.5t-90 9h-55h-61q-20 0 -32 -0.5t-31 -0.5h-35q-39 0 -39 37v58q0 36 39 39q130 10 207 9q99 0 163.5 -15.5t111.5 -57t67.5 -115t20.5 -186.5v-567q0 -14 -9 -23.5t-24 -9.5h-84 q-12 0 -22.5 10t-10.5 23v41q-57 -43 -134.5 -68.5t-156.5 -25.5q-141 0 -238.5 73t-103.5 215zM297 264q6 -74 60 -110.5t137 -36.5q80 0 160 30t120 78v236h-225q-123 1 -191 -53q-62 -49 -61 -130v-14z" />
<glyph unicode="b" horiz-adv-x="1136" d="M205 31v1321q0 13 9.5 22.5t23.5 9.5h96q14 0 23.5 -9.5t9.5 -22.5v-461q98 92 237 92q161 0 275 -107.5t114 -261.5v-264q0 -154 -114 -262t-275 -108q-80 0 -147.5 30t-104.5 86v-69q0 -12 -9 -19.5t-21 -7.5h-84q-14 0 -23.5 9t-9.5 22zM360 356q0 -98 69 -166.5 t167 -68.5q99 0 168.5 68.5t69.5 166.5v248q0 98 -70 168t-168 70t-167 -70t-69 -168v-248z" />
<glyph unicode="c" horiz-adv-x="997" d="M143 344v270q0 154 114 261.5t275 107.5q83 0 165.5 -38t146.5 -124q10 -11 9.5 -28.5t-13.5 -28.5l-43 -35q-13 -11 -28.5 -9t-25.5 15q-36 46 -90 73.5t-112 27.5q-96 0 -166 -65t-70 -155v-274q0 -90 70 -155.5t166 -65.5q59 0 112.5 27.5t89.5 72.5q10 13 25.5 15 t28.5 -9l43 -34q13 -11 13.5 -29t-9.5 -29q-64 -86 -146.5 -124t-165.5 -38q-161 0 -275 108.5t-114 262.5z" />
<glyph unicode="d" horiz-adv-x="1136" d="M143 350v264q0 154 114 261.5t275 107.5q140 0 238 -92v461q0 13 9.5 22.5t23.5 9.5h96q14 0 23.5 -9.5t9.5 -22.5v-1321q0 -13 -9 -22t-24 -9h-84q-12 0 -21.5 7.5t-9.5 19.5v69q-37 -56 -104.5 -86t-147.5 -30q-161 0 -275 108t-114 262zM303 356q0 -98 69.5 -166.5 t168.5 -68.5q98 0 166.5 68.5t68.5 166.5v248q0 99 -68.5 168.5t-166.5 69.5t-168 -70t-70 -168v-248z" />
<glyph unicode="e" horiz-adv-x="1089" d="M170 381v240q0 153 113.5 260.5t275.5 107.5q161 0 274 -107t113 -261v-105q0 -32 -23 -55t-55 -23h-538v-67q0 -53 9 -90t32 -63.5t52.5 -42t80.5 -24t105 -11.5t136 -3q39 0 39 -37v-61q0 -39 -39 -39h-77q-67 0 -118.5 3.5t-105.5 13.5t-93 27t-75 46t-58 68.5 t-35 95.5t-13 127zM330 571h456v52q0 91 -66 155t-161 64t-162 -64t-67 -155v-52z" />
<glyph unicode="f" horiz-adv-x="1064" d="M164 33v73q0 14 10 23.5t23 9.5h145v686h-147q-12 0 -21.5 10t-9.5 23v76q0 13 9.5 22t21.5 9h147v49q0 80 16.5 141t50.5 101t75.5 66t103 39t120 18t138.5 5h57q39 0 39 -38v-64q0 -37 -39 -37q-76 0 -115 -1t-90.5 -5t-75 -13.5t-52 -26t-39.5 -42t-19 -61.5t-8 -86 v-45h307q13 0 23 -9t10 -22v-76q0 -13 -10.5 -23t-22.5 -10h-307v-686h307q12 0 22.5 -10t10.5 -23v-73q0 -13 -10.5 -23t-22.5 -10h-614q-13 0 -23 10t-10 23z" />
<glyph unicode="g" d="M143 348v266q0 152 114 260.5t275 108.5q76 0 145.5 -31.5t106.5 -87.5v70q0 12 9.5 21.5t21.5 9.5h82q15 0 24 -9.5t9 -21.5v-983q0 -69 -13 -123.5t-35.5 -93.5t-59 -67t-76 -44.5t-94 -26t-106 -13t-118.5 -3.5h-72q-39 0 -39 39v62q0 36 39 36q89 0 142.5 2.5 t105.5 12t79.5 26t49.5 46.5t29.5 72t7.5 104v83q-100 -83 -238 -83q-161 0 -275 108t-114 260zM305 340q0 -91 68.5 -155t163.5 -64q93 0 163 62t70 149v299q0 87 -70 149t-163 62q-95 0 -163.5 -64t-68.5 -155v-283z" />
<glyph unicode="h" horiz-adv-x="1128" d="M205 33v1321q0 12 9 21t24 9h92q14 0 23 -9t9 -21v-469q181 98 328 98q135 0 215 -86t80 -276v-588q0 -14 -9 -23.5t-22 -9.5h-98q-12 0 -21.5 10t-9.5 23v624q0 93 -44 135t-119 42q-130 0 -300 -99v-702q0 -13 -10 -23t-22 -10h-97q-28 0 -28 33z" />
<glyph unicode="i" horiz-adv-x="1103" d="M164 33v73q0 14 10 23.5t23 9.5h276v686h-137q-12 0 -21.5 10t-9.5 23v76q0 13 9.5 22t21.5 9h254q17 0 30 -13t13 -30v-783h274q13 0 23 -9.5t10 -23.5v-73q0 -13 -10 -23t-23 -10h-710q-13 0 -23 10t-10 23zM377 1286q0 54 38.5 92.5t92.5 38.5t92.5 -38.5t38.5 -92.5 t-38.5 -92.5t-92.5 -38.5t-92.5 38.5t-38.5 92.5z" />
<glyph unicode="j" horiz-adv-x="1075" d="M143 -319q0 36 39 36q89 0 142.5 2.5t105.5 12t79.5 26t49.5 46.5t29.5 72t7.5 104l-2 845h-397q-14 0 -23.5 9t-9.5 24v76q0 12 10 21.5t23 9.5h682q12 0 22 -9.5t10 -21.5v-76q0 -14 -9.5 -23.5t-22.5 -9.5h-123v-874q0 -69 -13 -123.5t-35.5 -93.5t-59 -67t-76 -44.5 t-94 -26t-106 -13t-118.5 -3.5h-72q-39 0 -39 39v62zM530 1286q0 54 39 92.5t93 38.5t92.5 -38.5t38.5 -92.5t-38.5 -92.5t-92.5 -38.5t-93 38.5t-39 92.5z" />
<glyph unicode="k" horiz-adv-x="1107" d="M209 33v1319q0 15 9.5 23.5t23.5 8.5h92q13 0 23 -9t10 -23v-793l428 420q7 7 18 7t18 -7l66 -72q19 -19 2 -35l-252 -256l332 -563q10 -19 0 -36t-31 -17h-84q-23 0 -35 7t-24 28l-268 469l-170 -156v-315q0 -13 -10.5 -23t-22.5 -10h-92q-14 0 -23.5 10t-9.5 23z" />
<glyph unicode="l" horiz-adv-x="1103" d="M164 33v73q0 14 10 23.5t23 9.5h276v1106h-137q-12 0 -21.5 10t-9.5 23v76q0 13 9.5 21.5t21.5 8.5h254q17 0 30 -13t13 -30v-1202h274q13 0 23 -9.5t10 -23.5v-73q0 -13 -10 -23t-23 -10h-710q-13 0 -23 10t-10 23z" />
<glyph unicode="m" horiz-adv-x="1304" d="M205 33v901q0 12 9.5 21.5t23.5 9.5h84q14 0 23 -9t9 -22v-33q120 74 226 74q101 0 141 -74q131 76 235 76q83 0 134 -51.5t51 -163.5v-729q0 -13 -9.5 -23t-23.5 -10h-98q-14 0 -23.5 10t-9.5 23v717q0 90 -78 90q-71 0 -145 -41q2 -14 2 -37v-729q0 -13 -10 -23 t-23 -10h-86q-12 0 -22.5 10t-10.5 23v717q0 90 -80 90q-72 0 -157 -47v-760q0 -13 -9.5 -23t-23.5 -10h-96q-14 0 -23.5 10t-9.5 23z" />
<glyph unicode="n" horiz-adv-x="1148" d="M205 33v901q0 12 9.5 21.5t23.5 9.5h84q14 0 23 -9t9 -22v-51q186 102 336 102q135 0 215 -86t80 -274v-592q0 -14 -9 -23.5t-22 -9.5h-98q-12 0 -21.5 10t-9.5 23v624q0 93 -44 135t-119 42q-130 0 -300 -99v-702q0 -13 -10 -23t-22 -10h-97q-28 0 -28 33z" />
<glyph unicode="o" d="M174 350v264q0 154 115 261.5t282 107.5q162 0 276 -108t114 -261v-264q0 -154 -114.5 -262t-275.5 -108q-167 0 -282 108t-115 262zM336 340q0 -89 68 -154t163 -65t164.5 65t69.5 154v283q0 90 -69 154.5t-165 64.5q-95 0 -163 -64t-68 -155v-283z" />
<glyph unicode="p" horiz-adv-x="1136" d="M205 -387v1321q0 12 9.5 21.5t23.5 9.5h84q12 0 21 -7.5t9 -19.5v-70q38 56 105 86.5t147 30.5q161 0 275 -108.5t114 -262.5v-264q0 -153 -113.5 -260.5t-275.5 -107.5q-139 0 -237 92v-461q0 -13 -9.5 -23t-23.5 -10h-96q-14 0 -23.5 10t-9.5 23zM360 360 q0 -98 69 -167.5t167 -69.5t168 69.5t70 167.5v248q0 98 -70 167t-168 69t-167 -69t-69 -167v-248z" />
<glyph unicode="q" horiz-adv-x="1157" d="M164 350v264q0 154 114 262.5t275 108.5q80 0 147 -30.5t105 -86.5v70q0 12 9.5 19.5t21.5 7.5h84q14 0 23 -9t9 -22v-1321q0 -13 -9 -23t-23 -10h-97q-14 0 -23 10t-9 23v461q-98 -92 -238 -92q-162 0 -275.5 107.5t-113.5 260.5zM324 360q0 -98 69.5 -167.5 t167.5 -69.5t167 69.5t69 167.5v248q0 98 -69 167t-167 69t-167.5 -69t-69.5 -167v-248z" />
<glyph unicode="r" horiz-adv-x="1062" d="M164 33v73q0 14 10 23.5t23 9.5h145v686h-145q-13 0 -23 9.5t-10 23.5v76q0 13 9.5 22t23.5 9h245q17 0 30 -13t13 -30v-172q55 117 148.5 166t220.5 49h47q39 0 39 -37v-74q0 -35 -39 -35h-47q-46 0 -87.5 -8.5t-71 -19t-61 -33.5t-48 -36.5t-41 -44t-32 -40.5 t-28.5 -41v-457h256q13 0 23 -9.5t10 -23.5v-73q0 -13 -10 -23t-23 -10h-544q-13 0 -23 10t-10 23z" />
<glyph unicode="s" horiz-adv-x="1118" d="M166 743q8 108 106 175t263 67q140 0 329 -55q35 -9 29 -45l-10 -47q-7 -29 -35 -29q-8 0 -17 2q-174 43 -290 43q-104 0 -159.5 -27.5t-62.5 -91.5q-1 -7 -1 -14q0 -30 15 -54q18 -30 58.5 -51.5t84 -35.5t108.5 -29q211 -49 294 -127q75 -71 75 -182q0 -12 -1 -25 q-8 -108 -112 -175t-275 -67q-146 0 -338 56q-34 9 -28 45l10 47q7 29 35 29q7 0 16 -2q166 -41 301 -41q224 0 238 120q1 7 1 14q0 31 -15 55q-18 30 -57 51.5t-82 36t-103 28.5q-214 50 -300 126q-78 69 -78 179q0 12 1 24z" />
<glyph unicode="t" horiz-adv-x="1032" d="M143 858v76q0 12 10 21.5t23 9.5h133v387q0 13 10.5 22.5t22.5 9.5h96q15 0 24 -9t9 -23v-387h307q13 0 23 -9.5t10 -21.5v-76q0 -15 -9.5 -24t-23.5 -9h-307v-405q0 -41 2.5 -73t10 -59t15.5 -47t24.5 -35.5t32 -26.5t42.5 -18.5t51 -11.5t63 -6.5t72.5 -2.5t85.5 -1 q39 0 39 -37v-63q0 -39 -39 -39h-57q-68 0 -119.5 3.5t-106.5 13t-94.5 26t-76 44.5t-59 67t-35.5 93.5t-13 123.5v454h-133q-14 0 -23.5 9t-9.5 24z" />
<glyph unicode="u" horiz-adv-x="1148" d="M164 344v588q0 14 9 23.5t22 9.5h98q12 0 21.5 -10t9.5 -23v-625q0 -174 163 -174q71 0 153 28t146 68v703q0 13 10.5 23t22.5 10h96q29 0 29 -33v-901q0 -13 -9 -22t-24 -9h-84q-14 0 -23 9t-9 22v51q-167 -100 -330 -100q-135 0 -218 87t-83 275z" />
<glyph unicode="v" horiz-adv-x="1058" d="M125 930q-4 13 3.5 24t21.5 11h96q37 0 47 -29l180 -567q45 -148 55 -195q4 21 18 69.5t26 86.5l12 39l180 567q10 29 47 29h96q14 0 21.5 -11t3.5 -24l-320 -881q-19 -59 -84 -59t-84 59z" />
<glyph unicode="w" horiz-adv-x="1191" d="M176 932q-3 13 6 23t23 10h90q35 0 41 -33l102 -696l92 284q6 19 27 19h78q21 0 27 -19l92 -284l102 696q6 33 41 33h90q14 0 23 -10t6 -23l-185 -899q-5 -33 -43 -33h-71l-117 346h-8l-117 -346h-72q-38 0 -43 33z" />
<glyph unicode="x" horiz-adv-x="1097" d="M168 72l291 450l-244 377q-16 22 8 39l80 51q24 14 39 -8l207 -319l207 319q15 22 39 8l79 -51q22 -16 9 -39l-244 -377l291 -450q14 -24 -8 -39l-80 -51q-24 -14 -39 8l-254 393l-254 -393q-15 -22 -39 -8l-80 51q-22 15 -8 39z" />
<glyph unicode="y" horiz-adv-x="1159" d="M164 344v588q0 14 9 23.5t22 9.5h98q12 0 21.5 -10t9.5 -23v-625q0 -174 163 -174q78 0 159 27.5t140 68.5v703q0 13 10.5 23t22.5 10h99q28 0 28 -33v-981q0 -69 -13 -123.5t-35.5 -93.5t-59 -67t-76 -44.5t-94 -26t-106 -13t-118.5 -3.5h-71q-39 0 -39 39v62 q0 36 39 36q89 0 142.5 2.5t105.5 12t79 26t49 46.5t29.5 72t7.5 104v96q-149 -94 -321 -94q-135 0 -218 87t-83 275z" />
<glyph unicode="z" horiz-adv-x="1124" d="M180 43v78l565 704h-507q-12 0 -21.5 9.5t-9.5 21.5v78q0 13 9.5 22t21.5 9h663q17 0 30 -13t13 -30v-78l-573 -705h516q12 0 21.5 -10t9.5 -23v-73q0 -13 -9.5 -23t-21.5 -10h-664q-17 0 -30 13t-13 30z" />
<glyph unicode="{" horiz-adv-x="649" d="M205 -68v1393q0 12 8 21.5t20 9.5h181q12 0 21 -8.5t9 -20.5v-57q0 -12 -9 -21.5t-21 -9.5h-49v-1221h49q12 0 21 -9t9 -21v-58q0 -12 -9 -20t-21 -8h-181q-12 0 -20 9t-8 21z" />
<glyph unicode="|" horiz-adv-x="505" d="M174 -66v1393q0 13 8.5 21t18.5 8h104q11 0 19 -8t8 -21v-1393q0 -13 -8 -20.5t-19 -7.5h-104q-10 0 -18.5 7.5t-8.5 20.5z" />
<glyph unicode="}" horiz-adv-x="649" d="M205 -12q0 12 9.5 21t21.5 9h49v1221h-49q-12 0 -21.5 9.5t-9.5 21.5v57q0 12 9.5 20.5t21.5 8.5h180q12 0 20 -9.5t8 -21.5v-1393q0 -12 -8 -21t-20 -9h-180q-12 0 -21.5 8t-9.5 20v58z" />
<glyph unicode="~" horiz-adv-x="1011" d="M207 473q57 137 176 137q52 0 139 -32.5t113 -32.5q50 0 80 51q12 21 37 10l39 -18q23 -10 14 -31q-57 -137 -176 -137q-38 0 -126.5 32.5t-125.5 32.5q-50 0 -80 -51q-12 -21 -37 -10l-39 18q-23 10 -14 31z" />
<glyph unicode="&#xa1;" horiz-adv-x="659" d="M205 694q0 51 37 88t88 37t88 -37t37 -88t-37 -88t-88 -37t-88 37t-37 88zM229 -319l33 694q2 29 22.5 49t49.5 20t49.5 -20t22.5 -49l32 -694q3 -53 -26.5 -86t-77.5 -33t-78 33t-27 86z" />
<glyph unicode="&#xa2;" horiz-adv-x="1165" d="M207 -125.5q-4 13.5 2 25.5l104 211q-86 99 -86 233v270q0 154 114 261.5t275 107.5q65 0 115 -18l105 213q16 28 47 14l78 -39q12 -6 17 -18.5t-1 -24.5l-109 -223q35 -32 60 -66q10 -11 9.5 -28.5t-13.5 -28.5l-43 -35q-32 -25 -54 6q-11 15 -22 23l-297 -608 q56 -29 117 -29q58 0 111.5 27t90.5 75q25 31 54 6l43 -36q13 -10 13.5 -28t-9.5 -28q-66 -86 -148.5 -125t-163.5 -39q-93 0 -176 39l-90 -182q-6 -12 -19.5 -16t-25.5 2l-82 39q-12 6 -16 19.5zM389 342q0 -35 8 -59l269 548q-30 5 -41 5q-96 0 -166 -65t-70 -155v-274z " />
<glyph unicode="&#xa3;" horiz-adv-x="1245" d="M205 682v84q0 13 9.5 22t21.5 9h67v100q0 69 13 123.5t35.5 93.5t59 67t76 44.5t94.5 26t106.5 13t119.5 3.5h57q39 0 39 -39v-64q0 -37 -39 -37q-76 0 -115 -1t-90.5 -5t-75 -13.5t-52 -26t-39.5 -42t-19 -61.5t-8 -86v-96h307q13 0 23 -9t10 -22v-84q0 -13 -10.5 -23 t-22.5 -10h-307v-489h543q12 0 22 -10t10 -23v-94q0 -13 -10 -23t-22 -10h-670q-14 0 -24.5 10t-10.5 23v616h-67q-12 0 -21.5 10t-9.5 23z" />
<glyph unicode="&#xa4;" horiz-adv-x="1024" d="M27 254l143 143q-100 115 -100 283q0 159 100 283l-143 141l57 57l145 -141q51 44 131 72t154 28q72 0 147.5 -26t133.5 -74l143 141l57 -57l-143 -141q102 -132 102 -281q0 -153 -102 -285l143 -143l-57 -55l-143 143q-134 -104 -271 -104q-87 0 -171.5 30.5 t-123.5 73.5l-145 -143zM150 678q0 -148 106 -254q107 -107 256 -107q147 0 254 107q108 108 108 256q4 90 -48 176.5t-138 138t-176 45.5q-152 0 -258 -106q-104 -107 -104 -256z" />
<glyph unicode="&#xa5;" horiz-adv-x="1183" d="M170 1184q-17 24 4 39l76 55q9 8 21.5 6t19.5 -12l301 -441l301 441q7 10 19.5 12t21.5 -6l76 -55q21 -15 4 -39l-232 -336h76q13 0 23 -9t10 -22v-84q0 -13 -10.5 -23t-22.5 -10h-176l-8 -12v-123h184q13 0 23 -8.5t10 -21.5v-84q0 -13 -10.5 -23t-22.5 -10h-184v-387 q0 -13 -9 -22t-24 -9h-96q-15 0 -24 9t-9 22v387h-190q-12 0 -21.5 10t-9.5 23v84q0 13 9.5 21.5t21.5 8.5h190v123l-8 12h-182q-12 0 -21.5 10t-9.5 23v84q0 13 9.5 22t21.5 9h79z" />
<glyph unicode="&#xa6;" horiz-adv-x="505" d="M174 -66v605q0 13 8.5 20.5t18.5 7.5h104q11 0 19 -7.5t8 -20.5v-605q0 -13 -8 -20.5t-19 -7.5h-104q-10 0 -18.5 7.5t-8.5 20.5zM174 723v604q0 13 8.5 21t18.5 8h104q11 0 19 -8t8 -21v-604q0 -13 -8 -21t-19 -8h-104q-10 0 -18.5 8t-8.5 21z" />
<glyph unicode="&#xa7;" horiz-adv-x="1159" d="M186 313q9 124 125 189q-73 42 -102 101.5t-23 144.5q9 111 106 176t263 65q164 0 334 -55q30 -10 24 -43l-8 -49q-3 -17 -17 -24.5t-34 -2.5q-177 45 -293 45q-210 0 -221 -121q-4 -38 14.5 -67.5t57.5 -51.5t84.5 -36.5t107.5 -28.5q215 -45 296.5 -122t72.5 -212 q-9 -117 -127 -184q74 -42 103.5 -102.5t23.5 -147.5q-8 -110 -111.5 -176t-275.5 -66q-146 0 -338 56q-17 4 -24.5 17t-4.5 28l8 47q6 37 52 26q166 -41 305 -41q218 0 235 121q5 36 -7.5 64.5t-35 45.5t-58.5 31.5t-65 21.5t-68.5 16t-56.5 14q-197 56 -274 127t-68 194z M340 305q-4 -38 14.5 -67.5t57.5 -51.5t84.5 -36.5t107.5 -28.5l29 -6q169 13 186 118q11 71 -62 117.5t-194 67.5q-26 4 -37 8q-175 -10 -186 -121z" />
<glyph unicode="&#xa8;" horiz-adv-x="1067" d="M205 1286q0 54 38.5 92.5t92.5 38.5t92.5 -38.5t38.5 -92.5t-38.5 -92.5t-92.5 -38.5t-92.5 38.5t-38.5 92.5zM600 1286q0 54 38.5 92.5t92.5 38.5t92.5 -38.5t38.5 -92.5t-38.5 -92.5t-92.5 -38.5t-92.5 38.5t-38.5 92.5z" />
<glyph unicode="&#xa9;" horiz-adv-x="1155" d="M184 721q0 163 115.5 278t278.5 115t278 -115t115 -278t-115 -278t-278 -115t-278.5 115t-115.5 278zM256 721q0 -133 94 -227.5t228 -94.5q133 0 227 94t94 228q0 133 -93.5 227t-227.5 94t-228 -94t-94 -227zM412 637v168q0 61 48.5 104t117.5 43q81 0 131 -65 q12 -12 -2 -23l-17 -14q-13 -10 -24 4q-31 39 -86 39q-42 0 -72.5 -26t-30.5 -62v-168q0 -36 30.5 -62t72.5 -26q56 0 86 41q11 11 24 2l17 -14q14 -11 2 -23q-53 -66 -131 -66q-69 0 -117.5 43t-48.5 105z" />
<glyph unicode="&#xaa;" horiz-adv-x="839" d="M205 1012q0 82 64 128t157 46h123v33q0 19 -2 33.5t-8.5 25t-12.5 17.5t-20 11.5t-24 6.5t-31 2.5t-36 0.5t-44 -0.5t-49 -0.5q-21 0 -21 20v33q0 18 21 21q109 8 178.5 0t102 -54t32.5 -147v-309q0 -19 -19 -19h-47q-7 0 -12.5 5.5t-5.5 13.5v26q-63 -51 -158 -51 q-79 0 -133.5 40t-54.5 118zM291 1010q0 -40 30 -60t76 -20q44 0 86.5 16t65.5 43v123h-121q-64 0 -100.5 -26t-36.5 -76z" />
<glyph unicode="&#xab;" horiz-adv-x="1267" d="M205 495q0 41 28 70l342 342q7 7 18.5 7t20.5 -7l56 -55q6 -7 5.5 -18.5t-7.5 -18.5l-314 -315l318 -318q8 -8 8.5 -19t-8.5 -20l-58 -55q-8 -8 -20 -8t-19 6l-342 340q-28 28 -28 69zM587.5 494.5q0.5 40.5 28.5 70.5l340 342q9 7 20.5 7t18.5 -7l56 -55q8 -7 7.5 -18.5 t-9.5 -18.5l-314 -315l318 -318q19 -20 0 -39l-58 -55q-18 -18 -39 -2l-340 340q-29 28 -28.5 68.5z" />
<glyph unicode="&#xac;" horiz-adv-x="1155" d="M37 797v82h1077v-408h-80v326h-997z" />
<glyph unicode="&#xad;" horiz-adv-x="1187" d="M205 475v82q0 13 9.5 23t23.5 10h712q12 0 22.5 -10t10.5 -23v-82q0 -13 -10.5 -23t-22.5 -10h-712q-14 0 -23.5 10t-9.5 23z" />
<glyph unicode="&#xae;" horiz-adv-x="1155" d="M184 721q0 163 115.5 278t278.5 115t278 -115t115 -278t-115 -278t-278 -115t-278.5 115t-115.5 278zM256 721q0 -133 94 -227.5t228 -94.5q133 0 227 94t94 228q0 133 -93.5 227t-227.5 94t-228 -94t-94 -227zM432 504v426q0 14 14 14h177q53 0 89 -36t36 -89v-22 q0 -45 -31 -80t-74 -43l96 -162q5 -8 1.5 -14t-13.5 -6h-33q-16 0 -24 14l-90 166h-82v-168q0 -5 -4.5 -8.5t-10.5 -3.5h-37q-14 0 -14 12zM498 731h125q26 0 45.5 20t19.5 46v22q0 26 -19.5 46t-45.5 20h-125v-154z" />
<glyph unicode="&#xaf;" horiz-adv-x="1024" d="M-16 1462v84h1058v-84h-1058z" />
<glyph unicode="&#xb0;" horiz-adv-x="819" d="M205 1204q0 83 60 144t145 61q84 0 144 -61t60 -144q0 -86 -59.5 -145.5t-144.5 -59.5q-86 0 -145.5 59.5t-59.5 145.5zM303 1204q0 -44 31.5 -75t75.5 -31t75 31t31 75t-31 75.5t-75 31.5t-75.5 -31.5t-31.5 -75.5z" />
<glyph unicode="&#xb1;" horiz-adv-x="1157" d="M205 20v93q0 7 5.5 12.5t14.5 5.5h707q8 0 14 -5.5t6 -12.5v-93q0 -18 -20 -18l-707 -2q-9 0 -14.5 6t-5.5 14zM205 571v93q0 6 5.5 12t14.5 6h287v295q0 20 18 20h93q7 0 12.5 -5t5.5 -15v-295h291q8 0 14 -6t6 -12v-93q0 -18 -20 -18h-291v-289q0 -10 -5.5 -16 t-12.5 -6h-93q-18 0 -18 22v287h-287q-9 0 -14.5 6t-5.5 14z" />
<glyph unicode="&#xb2;" horiz-adv-x="714" d="M211 610v56l162 174q36 39 49.5 61t13.5 43q0 32 -18 54.5t-47 25.5q-32 3 -60 -16t-37 -47q-6 -18 -22 -13l-27 8q-28 8 -12 41q20 42 61 65t88 23q63 0 105.5 -40.5t42.5 -100.5q0 -19 -2.5 -31.5t-21.5 -42t-56 -65.5l-141 -139h160v16q0 14 16 14h24q15 0 15 -14v-70 q0 -14 -15 -14h-264q-14 0 -14 12z" />
<glyph unicode="&#xb3;" horiz-adv-x="712" d="M211 678q-11 34 12 41l29 8q16 5 22 -12q9 -31 34 -50t57 -16q31 3 51 24.5t20 55.5q0 35 -23 60.5t-55 25.5q-14 0 -14 14v31q0 14 14 14q30 0 52 22t22 54q1 34 -18 55.5t-49 24.5q-31 3 -54 -15.5t-32 -49.5q-6 -18 -23 -13l-25 9q-16 5 -17 18.5t5 21.5 q18 44 57 66.5t86 22.5q60 0 100 -40t40 -100q0 -68 -64 -102q32 -17 51 -49.5t19 -69.5q0 -59 -41.5 -99t-104.5 -40q-49 0 -91 22.5t-60 65.5z" />
<glyph unicode="&#xb4;" horiz-adv-x="772" d="M213 1188l133 287q10 26 20 33.5t33 7.5h144q15 0 20.5 -12t-4.5 -25l-237 -338q-23 -33 -54 -19l-43 21q-28 12 -12 45z" />
<glyph unicode="&#xb5;" horiz-adv-x="1189" d="M205 -356v1288q0 14 9 23.5t22 9.5h86q12 0 21 -10t9 -23v-631q0 -85 49 -125.5t125 -40.5q67 0 147 26t154 72v699q0 13 10.5 23t22.5 10h96q29 0 29 -33v-901q0 -31 -29 -31h-84q-12 0 -24 9.5t-12 21.5v53q-188 -98 -334 -98q-86 0 -150 34v-376q0 -13 -11 -23 t-24 -10h-81q-13 0 -22 9.5t-9 23.5z" />
<glyph unicode="&#xb6;" horiz-adv-x="792" d="M-12 840q0 189 170 278q84 41 215 41h424v-47h-115v-1491h-61v1491h-160v-1491h-62v893q-132 6 -209 31q-105 33 -159 125q-43 76 -43 170z" />
<glyph unicode="&#xb7;" horiz-adv-x="512" d="M145 678q0 47 32 78.5t79 31.5t79 -31.5t32 -78.5t-32 -79t-79 -32q-44 0 -77.5 33.5t-33.5 77.5z" />
<glyph unicode="&#xb8;" horiz-adv-x="772" d="M208.5 -316q-5.5 12 4.5 25l238 338q12 17 21.5 21.5t31.5 -2.5l43 -21q28 -12 12 -45l-133 -287q-12 -27 -21 -34t-32 -7h-144q-15 0 -20.5 12z" />
<glyph unicode="&#xb9;" horiz-adv-x="700" d="M205 612v41q0 13 14 13h100v342l-71 -29q-15 -4 -19 8l-12 43q-3 9 6 14l113 41q23 8 38 -1t15 -25v-393h92q15 0 15 -13v-41q0 -14 -15 -14h-262q-14 0 -14 14z" />
<glyph unicode="&#xba;" horiz-adv-x="843" d="M205 1057v149q0 85 63.5 144t155.5 59q89 0 152 -59t63 -144v-149q0 -85 -63 -144t-152 -59q-92 0 -155.5 59t-63.5 144zM295 1053q0 -50 37.5 -85.5t89.5 -35.5q53 0 91 36t38 85v157q0 51 -38 86t-91 35t-90 -35t-37 -86v-157z" />
<glyph unicode="&#xbb;" horiz-adv-x="1267" d="M209.5 833.5q-0.5 11.5 7.5 18.5l55 55q8 7 19 7t20 -7l340 -342q28 -30 28.5 -70.5t-28.5 -68.5l-340 -340q-21 -16 -39 2l-57 55q-19 19 0 39l317 318l-313 315q-9 7 -9.5 18.5zM587.5 163q0.5 11 8.5 19l317 318l-313 315q-7 7 -7.5 18.5t5.5 18.5l55 55q9 7 20 7 t19 -7l342 -342q28 -29 28 -70t-28 -69l-342 -340q-6 -6 -18 -6t-21 8l-57 55q-9 9 -8.5 20z" />
<glyph unicode="&#xbc;" horiz-adv-x="1142" d="M205 612v41q0 13 14 13h100v342l-71 -29q-15 -4 -19 8l-12 43q-3 9 6 14l113 41q23 8 38 -1t15 -25v-393h92q15 0 15 -13v-41q0 -14 -15 -14h-262q-14 0 -14 14zM231 285q-11 13 2 26l625 473q14 10 23 -2l28 -41q13 -16 0 -26l-624 -473q-15 -10 -25 6zM614 143v45 l172 285q9 15 27 12l53 -6q11 -2 11 -14v-283h47q14 0 14 -12v-33q0 -12 -14 -12h-47v-62h43q12 0 12 -14v-37q0 -4 -4 -8t-8 -4h-168q-6 0 -10.5 3.5t-4.5 8.5v37q0 14 15 14h57v62h-176q-8 0 -13.5 5.5t-5.5 12.5zM674 182h135v221z" />
<glyph unicode="&#xbd;" horiz-adv-x="1157" d="M205 612v41q0 13 14 13h100v342l-71 -29q-15 -4 -19 8l-12 43q-3 9 6 14l113 41q23 8 38 -1t15 -25v-393h92q15 0 15 -13v-41q0 -14 -15 -14h-262q-14 0 -14 14zM231 285q-11 13 2 26l625 473q14 10 23 -2l28 -41q13 -16 0 -26l-624 -473q-15 -10 -25 6zM653 12v56 l162 174q37 40 50.5 61.5t13.5 42.5q0 32 -18.5 54.5t-47.5 25.5q-31 3 -59 -16t-37 -48q-6 -18 -23 -12l-26 8q-29 9 -13 41q20 41 61.5 64.5t88.5 23.5q63 0 105 -40.5t42 -100.5q0 -19 -2.5 -31.5t-21.5 -42t-56 -65.5l-141 -139h160v16q0 14 16 14h25q14 0 14 -14v-70 q0 -14 -14 -14h-264q-15 0 -15 12z" />
<glyph unicode="&#xbe;" horiz-adv-x="1142" d="M211 674q-11 34 12 41l29 8q16 5 22 -12q9 -31 34 -50t57 -16q31 3 51 24.5t20 55.5q0 35 -23 60.5t-55 25.5q-14 0 -14 14v31q0 14 14 14q30 0 52 22t22 54q1 34 -18 55.5t-49 24.5q-31 3 -54 -15.5t-32 -49.5q-6 -18 -23 -13l-25 8q-23 7 -12 41q18 44 57 66t86 22 q60 0 100 -39.5t40 -99.5q0 -68 -64 -102q32 -17 51 -49.5t19 -69.5q0 -59 -41.5 -99t-104.5 -40q-49 0 -91 22.5t-60 65.5zM231 285q-11 13 2 26l625 473q14 10 23 -2l28 -41q13 -16 0 -26l-624 -473q-15 -10 -25 6zM614 143v45l172 285q9 15 27 12l53 -6q11 -2 11 -14 v-283h47q14 0 14 -12v-33q0 -12 -14 -12h-47v-62h43q12 0 12 -14v-37q0 -4 -4 -8t-8 -4h-168q-6 0 -10.5 3.5t-4.5 8.5v37q0 14 15 14h57v62h-176q-8 0 -13.5 5.5t-5.5 12.5zM674 182h135v221z" />
<glyph unicode="&#xbf;" horiz-adv-x="1075" d="M197 -152q0 49 16 93t41.5 77t56 63.5t61 60t56 60t41.5 69t16 81.5v64q0 19 10 30t27 11h80q14 0 25 -9t12 -24q4 -70 -5 -124.5t-33.5 -98t-49 -72.5t-66.5 -68q-1 -1 -19.5 -17.5t-22.5 -21t-20 -20.5t-21.5 -24.5l-16.5 -25.5t-15 -30.5t-8 -31.5t-4 -37 q0 -71 51 -114.5t117 -43.5q147 0 226 143q12 21 30 21q12 0 21 -6l49 -29q14 -8 17.5 -25t-3.5 -28q-49 -104 -142 -160.5t-198 -56.5q-83 0 -157 33.5t-123 102t-49 158.5zM436 707q0 51 37 87.5t88 36.5t88 -36.5t37 -87.5t-37 -88t-88 -37t-88 37t-37 88z" />
<glyph unicode="&#xc0;" horiz-adv-x="1122" d="M145 31l316 1192q11 41 55 41h90q45 0 56 -41l315 -1192q3 -12 -5 -21.5t-20 -9.5h-88q-14 0 -25 9t-14 22l-120 467h-287l-121 -467q-3 -13 -14 -22t-25 -9h-88q-12 0 -20 9.5t-5 21.5zM225 1813.5q6 11.5 21 11.5h143q23 0 32 -7t21 -34l133 -287q16 -33 -12 -45 l-43 -20q-31 -13 -53 18l-238 338q-10 14 -4 25.5zM455 645h211l-105 428z" />
<glyph unicode="&#xc1;" horiz-adv-x="1122" d="M145 31l316 1192q11 41 55 41h90q45 0 56 -41l315 -1192q3 -12 -5 -21.5t-20 -9.5h-88q-14 0 -25 9t-14 22l-120 467h-287l-121 -467q-3 -13 -14 -22t-25 -9h-88q-12 0 -20 9.5t-5 21.5zM455 645h211l-105 428zM547 1497l133 287q12 27 21 34t32 7h144q15 0 20.5 -11.5 t-4.5 -25.5l-238 -338q-22 -31 -53 -18l-43 20q-28 12 -12 45z" />
<glyph unicode="&#xc2;" horiz-adv-x="1122" d="M145 31l316 1192q11 41 55 41h90q45 0 56 -41l315 -1192q3 -12 -5 -21.5t-20 -9.5h-88q-14 0 -25 9t-14 22l-120 467h-287l-121 -467q-3 -13 -14 -22t-25 -9h-88q-12 0 -20 9.5t-5 21.5zM311 1483q-18 21 2 41l150 164q18 21 28.5 31t29.5 20t40 10t40 -10t29.5 -20 t28.5 -31l150 -164q20 -20 2 -41l-31 -33q-8 -9 -19.5 -8.5t-19.5 8.5l-180 156l-180 -156q-8 -8 -19.5 -8.5t-19.5 8.5zM455 645h211l-105 428z" />
<glyph unicode="&#xc3;" horiz-adv-x="1122" d="M145 31l316 1192q11 41 55 41h90q45 0 56 -41l315 -1192q3 -12 -5 -21.5t-20 -9.5h-88q-14 0 -25 9t-14 22l-120 467h-287l-121 -467q-3 -13 -14 -22t-25 -9h-88q-12 0 -20 9.5t-5 21.5zM266 1540q57 137 176 137q52 0 139 -32.5t113 -32.5q50 0 80 51q12 21 37 10 l39 -18q23 -10 14 -31q-57 -137 -176 -137q-38 0 -126.5 32.5t-125.5 32.5q-50 0 -80 -51q-12 -21 -37 -10l-38 18q-24 10 -15 31zM455 645h211l-105 428z" />
<glyph unicode="&#xc4;" horiz-adv-x="1122" d="M145 31l316 1192q11 41 55 41h90q45 0 56 -41l315 -1192q3 -12 -5 -21.5t-20 -9.5h-88q-14 0 -25 9t-14 22l-120 467h-287l-121 -467q-3 -13 -14 -22t-25 -9h-88q-12 0 -20 9.5t-5 21.5zM233 1597q0 54 39 93t93 39t92.5 -39t38.5 -93t-38.5 -92.5t-92.5 -38.5t-93 38.5 t-39 92.5zM455 645h211l-105 428zM629 1597q0 54 38.5 93t92.5 39t92.5 -39t38.5 -93t-38.5 -92.5t-92.5 -38.5t-92.5 38.5t-38.5 92.5z" />
<glyph unicode="&#xc5;" horiz-adv-x="1122" d="M145 31l316 1192q11 41 55 41h90q45 0 56 -41l315 -1192q3 -12 -5 -21.5t-20 -9.5h-88q-14 0 -25 9t-14 22l-120 467h-287l-121 -467q-3 -13 -14 -22t-25 -9h-88q-12 0 -20 9.5t-5 21.5zM401 1595q0 64 46.5 111t111.5 47q64 0 111 -47.5t47 -110.5q0 -66 -46.5 -111.5 t-111.5 -45.5q-66 0 -112 45.5t-46 111.5zM455 645h211l-105 428zM485 1595q0 -31 21.5 -52t52.5 -21t52.5 21t21.5 52t-21.5 52.5t-52.5 21.5t-52.5 -21.5t-21.5 -52.5z" />
<glyph unicode="&#xc6;" horiz-adv-x="1773" d="M127.5 11.5q-5.5 11.5 1.5 23.5l627 1188q12 22 26 31.5t37 9.5h778q13 0 23 -9t10 -22v-86q0 -13 -10.5 -23t-22.5 -10h-591v-319h325q13 0 23 -9t10 -22v-84q0 -13 -10.5 -23t-22.5 -10h-325v-497h591q13 0 23 -9t10 -22v-86q0 -13 -10.5 -23t-22.5 -10h-700 q-17 0 -30 13t-13 30v455h-317l-244 -467q-15 -31 -47 -31h-99q-14 0 -19.5 11.5zM612 645h242v473z" />
<glyph unicode="&#xc7;" horiz-adv-x="1101" d="M205 344v571q0 153 121 261t292 108q87 0 175.5 -38t154.5 -124q9 -12 8 -28.5t-14 -28.5l-41 -33q-14 -12 -30.5 -11t-28.5 15q-41 45 -100 73t-119 28q-102 0 -179 -64.5t-77 -154.5v-576q0 -90 77 -155.5t179 -65.5q60 0 119.5 27.5t99.5 72.5q12 14 28.5 15t30.5 -11 l41 -32q13 -12 14 -29t-8 -29q-98 -127 -256 -153l-125 -277q-13 -33 -49 -33h-129q-21 0 -28 15t4 30l184 263q-148 22 -246 124.5t-98 239.5z" />
<glyph unicode="&#xc8;" d="M205 43v1178q0 17 13 30t30 13h710q13 0 23 -9t10 -22v-86q0 -13 -10.5 -23t-22.5 -10h-591v-319h325q13 0 23 -9t10 -22v-84q0 -13 -10.5 -23t-22.5 -10h-325v-497h591q13 0 23 -9t10 -22v-86q0 -13 -10.5 -23t-22.5 -10h-710q-17 0 -30 13t-13 30zM462.5 1813.5 q5.5 11.5 20.5 11.5h144q23 0 32 -7t21 -34l133 -287q16 -33 -12 -45l-43 -20q-31 -13 -53 18l-238 338q-10 14 -4.5 25.5z" />
<glyph unicode="&#xc9;" d="M205 43v1178q0 17 13 30t30 13h710q13 0 23 -9t10 -22v-86q0 -13 -10.5 -23t-22.5 -10h-591v-319h325q13 0 23 -9t10 -22v-84q0 -13 -10.5 -23t-22.5 -10h-325v-497h591q13 0 23 -9t10 -22v-86q0 -13 -10.5 -23t-22.5 -10h-710q-17 0 -30 13t-13 30zM547 1497l133 287 q12 27 21 34t32 7h144q15 0 20.5 -11.5t-4.5 -25.5l-238 -338q-22 -31 -53 -18l-43 20q-28 12 -12 45z" />
<glyph unicode="&#xca;" d="M205 43v1178q0 17 13 30t30 13h710q13 0 23 -9t10 -22v-86q0 -13 -10.5 -23t-22.5 -10h-591v-319h325q13 0 23 -9t10 -22v-84q0 -13 -10.5 -23t-22.5 -10h-325v-497h591q13 0 23 -9t10 -22v-86q0 -13 -10.5 -23t-22.5 -10h-710q-17 0 -30 13t-13 30zM350 1483 q-18 21 2 41l150 164q18 21 28.5 31t29.5 20t40 10t40 -10t29.5 -20t28.5 -31l150 -164q20 -20 2 -41l-31 -33q-8 -9 -19.5 -8.5t-19.5 8.5l-180 156l-180 -156q-8 -8 -19.5 -8.5t-19.5 8.5z" />
<glyph unicode="&#xcb;" d="M205 43v1178q0 17 13 30t30 13h710q13 0 23 -9t10 -22v-86q0 -13 -10.5 -23t-22.5 -10h-591v-319h325q13 0 23 -9t10 -22v-84q0 -13 -10.5 -23t-22.5 -10h-325v-497h591q13 0 23 -9t10 -22v-86q0 -13 -10.5 -23t-22.5 -10h-710q-17 0 -30 13t-13 30zM270 1597 q0 54 38.5 93t92.5 39t92.5 -39t38.5 -93t-38.5 -92.5t-92.5 -38.5t-92.5 38.5t-38.5 92.5zM666 1597q0 54 38.5 93t92.5 39t92.5 -39t38.5 -93t-38.5 -92.5t-92.5 -38.5t-92.5 38.5t-38.5 92.5z" />
<glyph unicode="&#xcc;" horiz-adv-x="1157" d="M184 31v86q0 13 10.5 23t22.5 10h287v964h-287q-12 0 -22.5 10t-10.5 23v86q0 13 10 22t23 9h723q13 0 23 -9t10 -22v-86q0 -13 -10.5 -23t-22.5 -10h-274v-964h274q12 0 22.5 -10t10.5 -23v-86q0 -13 -10 -22t-23 -9h-723q-13 0 -23 9t-10 22zM280.5 1813.5 q5.5 11.5 20.5 11.5h143q23 0 32.5 -7.5t21.5 -33.5l133 -287q16 -32 -13 -45l-43 -20q-31 -13 -53 18l-237 338q-10 14 -4.5 25.5z" />
<glyph unicode="&#xcd;" horiz-adv-x="1157" d="M184 31v86q0 13 10.5 23t22.5 10h275v964h-275q-12 0 -22.5 10t-10.5 23v86q0 13 10 22t23 9h723q13 0 23 -9t10 -22v-86q0 -13 -10.5 -23t-22.5 -10h-287v-964h287q12 0 22.5 -10t10.5 -23v-86q0 -13 -10 -22t-23 -9h-723q-13 0 -23 9t-10 22zM526 1497l133 287 q12 26 21.5 33.5t32.5 7.5h143q15 0 20.5 -11.5t-4.5 -25.5l-237 -338q-22 -31 -53 -18l-43 20q-29 13 -13 45z" />
<glyph unicode="&#xce;" horiz-adv-x="1157" d="M184 31v86q0 13 10.5 23t22.5 10h287v964h-287q-12 0 -22.5 10t-10.5 23v86q0 13 10 22t23 9h723q13 0 23 -9t10 -22v-86q0 -13 -10.5 -23t-22.5 -10h-274v-964h274q12 0 22.5 -10t10.5 -23v-86q0 -13 -10 -22t-23 -9h-723q-13 0 -23 9t-10 22zM330 1483q-18 21 2 41 l149 164q17 20 28 30.5t30.5 20.5t40.5 10t40 -10t29.5 -20t28.5 -31l149 -164q20 -20 2 -41l-30 -33q-8 -9 -19.5 -8.5t-19.5 8.5l-180 156l-181 -156q-8 -8 -19.5 -8.5t-19.5 8.5z" />
<glyph unicode="&#xcf;" horiz-adv-x="1157" d="M184 31v86q0 13 10.5 23t22.5 10h287v964h-287q-12 0 -22.5 10t-10.5 23v86q0 13 10 22t23 9h723q13 0 23 -9t10 -22v-86q0 -13 -10.5 -23t-22.5 -10h-274v-964h274q12 0 22.5 -10t10.5 -23v-86q0 -13 -10 -22t-23 -9h-723q-13 0 -23 9t-10 22zM252 1597q0 54 38.5 93 t92.5 39t92.5 -39t38.5 -93t-38.5 -92.5t-92.5 -38.5t-92.5 38.5t-38.5 92.5zM647 1597q0 54 38.5 93t92.5 39t92.5 -39t38.5 -93t-38.5 -92.5t-92.5 -38.5t-92.5 38.5t-38.5 92.5z" />
<glyph unicode="&#xd1;" horiz-adv-x="1198" d="M205 31v1194q0 15 11 27t26 12h114l475 -920v889q0 13 9.5 22t23.5 9h97q14 0 23 -9t9 -22v-1196q0 -15 -11 -26t-26 -11h-112l-477 920v-889q0 -13 -9.5 -22t-23.5 -9h-96q-14 0 -23.5 9t-9.5 22zM307 1540q57 137 176 137q52 0 139 -32.5t113 -32.5q50 0 80 51 q12 21 37 10l39 -18q23 -10 14 -31q-57 -137 -176 -137q-38 0 -126.5 32.5t-125.5 32.5q-50 0 -80 -51q-12 -21 -37 -10l-38 18q-24 10 -15 31z" />
<glyph unicode="&#xd2;" horiz-adv-x="1245" d="M205 344v571q0 153 121 261t292 108q177 0 299.5 -107.5t122.5 -261.5v-571q0 -154 -121.5 -262.5t-291.5 -108.5h-9q-170 0 -291.5 108.5t-121.5 262.5zM367 342q0 -90 77 -155.5t179 -65.5t179 65.5t77 155.5v576q0 90 -77 154.5t-179 64.5t-179 -64.5t-77 -154.5v-576 zM367 1513l155 175q46 61 99 61q52 0 98 -61l155 -175q18 -18 -2 -36l-32 -27q-9 -8 -20.5 -8t-18.5 8l-180 156l-181 -156q-8 -8 -19 -8t-20 8l-32 27q-20 18 -2 36z" />
<glyph unicode="&#xd3;" horiz-adv-x="1245" d="M205 344v571q0 153 121 261t292 108q177 0 299.5 -107.5t122.5 -261.5v-571q0 -154 -122.5 -261.5t-299.5 -107.5q-171 0 -292 108t-121 261zM367 342q0 -90 77 -154.5t179 -64.5t179 64.5t77 154.5v576q0 90 -77 154.5t-179 64.5t-179 -64.5t-77 -154.5v-576zM547 1497 l133 287q12 27 21 34t32 7h144q15 0 20.5 -11.5t-4.5 -25.5l-238 -338q-22 -31 -53 -18l-43 20q-28 12 -12 45z" />
<glyph unicode="&#xd4;" horiz-adv-x="1245" d="M205 344v571q0 153 121 261t292 108q177 0 299.5 -107.5t122.5 -261.5v-571q0 -154 -122.5 -261.5t-299.5 -107.5q-171 0 -292 108t-121 261zM297 1597q0 54 38.5 93t92.5 39t92.5 -39t38.5 -93t-38.5 -92.5t-92.5 -38.5t-92.5 38.5t-38.5 92.5zM367 342q0 -90 77 -154.5 t179 -64.5t179 64.5t77 154.5v576q0 90 -77 154.5t-179 64.5t-179 -64.5t-77 -154.5v-576zM692 1597q0 54 38.5 93t92.5 39t92.5 -39t38.5 -93t-38.5 -92.5t-92.5 -38.5t-92.5 38.5t-38.5 92.5z" />
<glyph unicode="&#xd5;" horiz-adv-x="1245" d="M205 344v571q0 153 121 261t292 108q177 0 299.5 -107.5t122.5 -261.5v-571q0 -154 -121.5 -262.5t-291.5 -108.5h-9q-170 0 -291.5 108.5t-121.5 262.5zM319 1540q57 137 177 137q52 0 139 -32.5t113 -32.5q29 0 46.5 12.5t32.5 38.5q12 21 37 10l39 -18q24 -10 15 -31 q-57 -137 -177 -137q-38 0 -126.5 32.5t-125.5 32.5q-29 0 -46.5 -12.5t-32.5 -38.5q-12 -21 -37 -10l-39 18q-24 10 -15 31zM367 342q0 -90 77 -155.5t179 -65.5t179 65.5t77 155.5v576q0 90 -77 154.5t-179 64.5t-179 -64.5t-77 -154.5v-576z" />
<glyph unicode="&#xd6;" horiz-adv-x="1245" d="M205 344v571q0 153 121 261t292 108q177 0 299.5 -107.5t122.5 -261.5v-571q0 -154 -121.5 -262.5t-291.5 -108.5h-9q-170 0 -291.5 108.5t-121.5 262.5zM299 1597q0 54 38.5 93t92.5 39t92.5 -39t38.5 -93t-38.5 -92.5t-92.5 -38.5t-92.5 38.5t-38.5 92.5zM367 342 q0 -90 77 -155.5t179 -65.5t179 65.5t77 155.5v576q0 90 -77 154.5t-179 64.5t-179 -64.5t-77 -154.5v-576zM694 1597q0 54 38.5 93t92.5 39t92.5 -39t38.5 -93t-38.5 -92.5t-92.5 -38.5t-92.5 38.5t-38.5 92.5z" />
<glyph unicode="&#xd7;" horiz-adv-x="1021" d="M211 780l65 66q5 5 13.5 5t15.5 -7l207 -207l207 205q14 14 26 2l66 -66q13 -13 -2 -28l-205 -205l205 -205q15 -16 2 -29l-63 -63q-14 -14 -31 2l-203 203l-203 -203q-14 -14 -28 0l-66 65q-5 4 -4.5 12.5t6.5 14.5l203 203l-209 209q-14 14 -2 26z" />
<glyph unicode="&#xd8;" horiz-adv-x="1204" d="M184 344v571q0 153 121.5 261t292.5 108q109 0 201 -45l37 76q6 12 18.5 17t24.5 -1l82 -41q12 -6 17 -18.5t-1 -24.5l-49 -100q92 -102 92 -232v-571q0 -153 -121.5 -262t-292.5 -109h-8q-116 0 -217 56l-31 -62q-6 -12 -19.5 -16t-25.5 2l-82 39q-12 6 -16 19.5t2 25.5 l47 98q-72 94 -72 209zM346 319l385 785q-64 33 -129 33q-102 0 -179 -64.5t-77 -154.5v-576v-23zM449 166q67 -45 153 -45q102 0 179 65.5t77 155.5v576q0 33 -12 63z" />
<glyph unicode="&#xd9;" horiz-adv-x="1245" d="M205 344v887q0 14 9 23.5t24 9.5h96q14 0 23.5 -9t9.5 -22v-891q0 -90 77 -155.5t179 -65.5t179 65.5t77 155.5v889q0 14 8.5 23.5t23.5 9.5h97q14 0 23 -9t9 -22v-889q0 -154 -122 -262.5t-295 -108.5t-295.5 108.5t-122.5 262.5zM348 1813.5q6 11.5 21 11.5h143 q23 0 32 -7t21 -34l133 -287q16 -33 -12 -45l-43 -20q-31 -13 -53 18l-238 338q-10 14 -4 25.5z" />
<glyph unicode="&#xda;" horiz-adv-x="1245" d="M205 344v887q0 14 9 23.5t24 9.5h96q14 0 23.5 -9t9.5 -22v-891q0 -90 77 -155.5t179 -65.5t179 65.5t77 155.5v889q0 14 8.5 23.5t23.5 9.5h97q14 0 23 -9t9 -22v-889q0 -154 -122 -262.5t-295 -108.5t-295.5 108.5t-122.5 262.5zM547 1497l133 287q12 27 21 34t32 7 h144q15 0 20.5 -11.5t-4.5 -25.5l-238 -338q-22 -31 -53 -18l-43 20q-28 12 -12 45z" />
<glyph unicode="&#xdb;" horiz-adv-x="1245" d="M205 344v887q0 14 9 23.5t24 9.5h96q14 0 23.5 -9t9.5 -22v-891q0 -90 77 -155.5t179 -65.5t179 65.5t77 155.5v889q0 14 8.5 23.5t23.5 9.5h97q14 0 23 -9t9 -22v-889q0 -154 -122 -262.5t-295 -108.5t-295.5 108.5t-122.5 262.5zM371 1483q-18 21 2 41l149 164 q17 20 28 30.5t30.5 20.5t40.5 10t40 -10t29.5 -20t28.5 -31l149 -164q20 -20 2 -41l-30 -33q-8 -9 -19.5 -8.5t-19.5 8.5l-180 156l-181 -156q-8 -8 -19.5 -8.5t-19.5 8.5z" />
<glyph unicode="&#xdc;" horiz-adv-x="1245" d="M205 344v887q0 14 9 23.5t24 9.5h96q14 0 23.5 -9t9.5 -22v-891q0 -90 77 -155.5t179 -65.5t179 65.5t77 155.5v889q0 14 8.5 23.5t23.5 9.5h97q14 0 23 -9t9 -22v-889q0 -154 -122 -262.5t-295 -108.5t-295.5 108.5t-122.5 262.5zM299 1597q0 54 38.5 93t92.5 39 t92.5 -39t38.5 -93t-38.5 -92.5t-92.5 -38.5t-92.5 38.5t-38.5 92.5zM694 1597q0 54 38.5 93t92.5 39t92.5 -39t38.5 -93t-38.5 -92.5t-92.5 -38.5t-92.5 38.5t-38.5 92.5z" />
<glyph unicode="&#xdd;" horiz-adv-x="1183" d="M170 1184q-17 24 4 39l76 55q9 8 21.5 6t19.5 -12l301 -441l301 441q7 10 19.5 12t21.5 -6l76 -55q21 -15 4 -39l-340 -496v-657q0 -13 -9 -22t-24 -9h-96q-15 0 -24 9t-9 22v657zM526 1497l133 287q12 26 21.5 33.5t32.5 7.5h143q15 0 20.5 -11.5t-4.5 -25.5l-237 -338 q-22 -31 -53 -18l-43 20q-29 13 -13 45z" />
<glyph unicode="&#xdf;" horiz-adv-x="1114" d="M205 33v921q0 128 91 219t218 91h117q127 0 218 -91t91 -219v-12q0 -132 -98 -215q69 -40 109 -108.5t40 -147.5v-162q0 -127 -90.5 -218t-218.5 -91h-166q-14 0 -23.5 10t-9.5 23v82q0 13 9.5 22.5t23.5 9.5h166q64 0 113 48.5t49 113.5v164q0 65 -49 113.5t-113 48.5 h-84q-14 0 -23.5 9.5t-9.5 23.5v73q0 13 9.5 23t23.5 10h39q61 0 108.5 49.5t47.5 112.5v18q0 64 -48.5 113t-113.5 49h-109q-64 0 -113 -49t-49 -113v-921q0 -13 -9 -23t-23 -10h-90q-14 0 -23.5 10t-9.5 23z" />
<glyph unicode="&#xe0;" horiz-adv-x="1110" d="M143 268q-4 101 52 175.5t147.5 110.5t204.5 36h225v65q0 54 -12 88.5t-37 53t-63 26.5t-89.5 9t-116.5 0q-20 0 -32 -0.5t-31 -0.5h-35q-39 0 -39 37v58q0 36 39 39q198 17 325 3t186 -99t59 -269v-567q0 -14 -9 -23.5t-24 -9.5h-84q-12 0 -22.5 10t-10.5 23v41 q-57 -43 -134.5 -68.5t-156.5 -25.5q-141 0 -238.5 73t-103.5 215zM297 264q6 -74 60 -110.5t137 -36.5q80 0 160 30t120 78v236h-225q-123 0 -190.5 -53.5t-61.5 -143.5zM391 1504q6 12 21 12h143q23 0 32 -7t21 -34l133 -287q16 -33 -12 -45l-43 -21q-30 -13 -53 19 l-238 338q-10 13 -4 25z" />
<glyph unicode="&#xe1;" horiz-adv-x="1110" d="M143 268q-4 101 52 175.5t147.5 110.5t204.5 36h225v65q0 54 -12 88.5t-37 53t-63 26.5t-89.5 9t-116.5 0q-20 0 -32 -0.5t-31 -0.5h-35q-39 0 -39 37v58q0 36 39 39q198 17 325 3t186 -99t59 -269v-567q0 -14 -9 -23.5t-24 -9.5h-84q-12 0 -22.5 10t-10.5 23v41 q-57 -43 -134.5 -68.5t-156.5 -25.5q-141 0 -238.5 73t-103.5 215zM297 264q6 -74 60 -110.5t137 -36.5q80 0 160 30t120 78v236h-225q-123 0 -190.5 -53.5t-61.5 -143.5zM496 1188l133 287q12 27 21 34t32 7h143q15 0 21 -12t-4 -25l-238 -338q-23 -32 -53 -19l-43 21 q-28 12 -12 45z" />
<glyph unicode="&#xe2;" horiz-adv-x="1110" d="M143 268q-4 101 52 175.5t147.5 110.5t204.5 36h225v65q0 54 -12 88.5t-37 53t-63 26.5t-89.5 9t-116.5 0q-20 0 -32 -0.5t-31 -0.5h-35q-39 0 -39 37v58q0 36 39 39q198 17 325 3t186 -99t59 -269v-567q0 -14 -9 -23.5t-24 -9.5h-84q-12 0 -22.5 10t-10.5 23v41 q-57 -43 -134.5 -68.5t-156.5 -25.5q-141 0 -238.5 73t-103.5 215zM297 264q6 -74 60 -110.5t137 -36.5q80 0 160 30t120 78v236h-225q-123 0 -190.5 -53.5t-61.5 -143.5zM358 1178q-18 21 2 41l150 163q19 21 28.5 31t29 20.5t40.5 10.5t40.5 -10.5t30 -20.5t28.5 -31 l149 -163q20 -20 2 -41l-31 -33q-8 -9 -19.5 -8.5t-19.5 8.5l-180 155l-180 -155q-8 -8 -19.5 -8.5t-19.5 8.5z" />
<glyph unicode="&#xe3;" horiz-adv-x="1110" d="M143 268q-4 101 52 175.5t147.5 110.5t204.5 36h225v65q0 54 -12 88.5t-37 53t-63 26.5t-89.5 9t-116.5 0q-20 0 -32 -0.5t-31 -0.5h-35q-39 0 -39 37v58q0 36 39 39q198 17 325 3t186 -99t59 -269v-567q0 -14 -9 -23.5t-24 -9.5h-84q-12 0 -22.5 10t-10.5 23v41 q-57 -43 -134.5 -68.5t-156.5 -25.5q-141 0 -238.5 73t-103.5 215zM295 1225q57 137 176 137q52 0 139 -33t113 -33q50 0 80 52q12 21 37 10l39 -19q23 -10 14 -30q-57 -138 -176 -138q-38 0 -126.5 33t-125.5 33q-50 0 -80 -51q-12 -21 -37 -10l-39 18q-23 10 -14 31z M297 264q6 -74 60 -110.5t137 -36.5q80 0 160 30t120 78v236h-225q-123 0 -190.5 -53.5t-61.5 -143.5z" />
<glyph unicode="&#xe4;" horiz-adv-x="1120" d="M143 268q-4 101 52 175.5t147.5 110.5t204.5 36h225v65q0 54 -12 88.5t-37 53t-63 26.5t-89.5 9t-116.5 0q-20 0 -32 -0.5t-31 -0.5h-35q-39 0 -39 37v58q0 36 39 39q198 17 325 3t186 -99t59 -269v-567q0 -14 -9 -23.5t-24 -9.5h-84q-12 0 -22.5 10t-10.5 23v41 q-57 -43 -134.5 -68.5t-156.5 -25.5q-141 0 -238.5 73t-103.5 215zM279 1286q0 54 38.5 92.5t92.5 38.5t92.5 -38.5t38.5 -92.5t-38.5 -92.5t-92.5 -38.5t-92.5 38.5t-38.5 92.5zM297 264q6 -74 60 -110.5t137 -36.5q80 0 160 30t120 78v236h-225q-123 0 -190.5 -53.5 t-61.5 -143.5zM674 1286q0 54 38.5 92.5t92.5 38.5t92.5 -38.5t38.5 -92.5t-38.5 -92.5t-92.5 -38.5t-92.5 38.5t-38.5 92.5z" />
<glyph unicode="&#xe5;" horiz-adv-x="1110" d="M143 268q-4 101 52 175.5t147.5 110.5t204.5 36h225v65q0 54 -12 88.5t-37 53t-63 26.5t-89.5 9t-116.5 0q-20 0 -32 -0.5t-31 -0.5h-35q-39 0 -39 37v58q0 36 39 39q198 17 325 3t186 -99t59 -269v-567q0 -14 -9 -23.5t-24 -9.5h-84q-12 0 -22.5 10t-10.5 23v41 q-57 -43 -134.5 -68.5t-156.5 -25.5q-141 0 -238.5 73t-103.5 215zM297 264q6 -74 60 -110.5t137 -36.5q80 0 160 30t120 78v236h-225q-123 0 -190.5 -53.5t-61.5 -143.5zM463 1286q0 64 46.5 111t111.5 47q64 0 110.5 -47.5t46.5 -110.5q0 -66 -46 -112t-111 -46 q-66 0 -112 46t-46 112zM547 1286q0 -31 21.5 -52.5t52.5 -21.5t52 21.5t21 52.5t-21 52.5t-52 21.5t-52.5 -21.5t-21.5 -52.5z" />
<glyph unicode="&#xe6;" horiz-adv-x="1689" d="M143 268q-4 101 52 175.5t147.5 110.5t204.5 36h225v65q0 54 -12 88.5t-37 53t-63 26.5t-89.5 9t-116.5 0q-20 0 -32 -0.5t-31 -0.5h-35q-39 0 -39 37v58q0 36 39 39q133 10 230.5 9.5t168 -27.5t111.5 -87q50 59 127 94t162 35q161 0 274 -107t113 -261v-86 q0 -32 -23 -55t-55 -23h-538v-86q0 -53 9 -90t32 -63.5t52.5 -42t80.5 -24t105 -11.5t136 -3q39 0 39 -37v-61q0 -39 -39 -39h-77q-157 0 -254 26t-156 95q-69 -70 -170.5 -105.5t-198.5 -35.5q-141 0 -238.5 73t-103.5 215zM297 264q6 -74 60 -110.5t137 -36.5q80 0 160 30 t120 78v236h-225q-123 0 -190.5 -53.5t-61.5 -143.5zM926 590h456v33q0 91 -66 155t-161 64t-162 -64t-67 -155v-33z" />
<glyph unicode="&#xe7;" horiz-adv-x="997" d="M143 344v270q0 154 114 261.5t275 107.5q83 0 166.5 -38t145.5 -124q10 -11 9.5 -28.5t-13.5 -28.5l-43 -35q-32 -25 -54 6q-36 46 -90 73.5t-112 27.5q-96 0 -166 -65t-70 -155v-274q0 -90 70 -155.5t166 -65.5q58 0 112.5 27.5t89.5 74.5q25 31 54 6l43 -36 q13 -10 13.5 -28t-9.5 -28q-95 -131 -248 -157l-123 -267q-12 -27 -21 -34t-32 -7h-144q-15 0 -20.5 12t4.5 25l191 273q-133 26 -220.5 128t-87.5 234z" />
<glyph unicode="&#xe8;" horiz-adv-x="1085" d="M170 381q0 -71 13 -127t35 -95.5t58 -68.5t75 -46t93 -27t105.5 -13.5t118.5 -3.5h77q39 0 39 39v61q0 37 -39 37q-82 0 -136 3t-105 11.5t-80.5 24t-52.5 42t-32 63.5t-9 90v67h538q32 0 55 23t23 55v105q0 154 -113 261t-274 107q-162 0 -275.5 -107.5t-113.5 -260.5 v-240zM330 571v52q0 91 67 155t162 64t161 -64t66 -155v-52h-456zM391 1504q6 12 21 12h143q23 0 32 -7t21 -34l133 -287q16 -33 -12 -45l-43 -21q-30 -13 -53 19l-238 338q-10 13 -4 25z" />
<glyph unicode="&#xe9;" horiz-adv-x="1085" d="M170 381q0 -71 13 -127t35 -95.5t58 -68.5t75 -46t93 -27t105.5 -13.5t118.5 -3.5h77q39 0 39 39v61q0 37 -39 37q-82 0 -136 3t-105 11.5t-80.5 24t-52.5 42t-32 63.5t-9 90v67h538q32 0 55 23t23 55v105q0 154 -113 261t-274 107q-162 0 -275.5 -107.5t-113.5 -260.5 v-240zM330 571v52q0 91 67 155t162 64t161 -64t66 -155v-52h-456zM496 1188l133 287q12 27 21 34t32 7h143q15 0 21 -12t-4 -25l-238 -338q-23 -32 -53 -19l-43 21q-28 12 -12 45z" />
<glyph unicode="&#xea;" horiz-adv-x="1085" d="M170 381q0 -71 13 -127t35 -95.5t58 -68.5t75 -46t93 -27t105.5 -13.5t118.5 -3.5h77q39 0 39 39v61q0 37 -39 37q-82 0 -136 3t-105 11.5t-80.5 24t-52.5 42t-32 63.5t-9 90v67h538q32 0 55 23t23 55v105q0 154 -113 261t-274 107q-162 0 -275.5 -107.5t-113.5 -260.5 v-240zM307 1178q-18 21 2 41l150 163q19 21 28.5 31t29 20.5t40.5 10.5t40.5 -10.5t29 -20.5t28.5 -31l150 -163q20 -20 2 -41l-31 -33q-8 -9 -19.5 -8.5t-19.5 8.5l-180 155l-180 -155q-8 -8 -19.5 -8.5t-19.5 8.5zM330 571v52q0 91 67 155t162 64t161 -64t66 -155v-52 h-456z" />
<glyph unicode="&#xeb;" horiz-adv-x="1085" d="M170 381q0 -71 13 -127t35 -95.5t58 -68.5t75 -46t93 -27t105.5 -13.5t118.5 -3.5h77q39 0 39 39v61q0 37 -39 37q-82 0 -136 3t-105 11.5t-80.5 24t-52.5 42t-32 63.5t-9 90v67h538q32 0 55 23t23 55v105q0 154 -113 261t-274 107q-162 0 -275.5 -107.5t-113.5 -260.5 v-240zM233 1286q0 54 39 92.5t93 38.5t92.5 -38.5t38.5 -92.5t-38.5 -92.5t-92.5 -38.5t-93 38.5t-39 92.5zM330 571v52q0 91 67 155t162 64t161 -64t66 -155v-52h-456zM629 1286q0 54 38.5 92.5t92.5 38.5t92.5 -38.5t38.5 -92.5t-38.5 -92.5t-92.5 -38.5t-92.5 38.5 t-38.5 92.5z" />
<glyph unicode="&#xec;" horiz-adv-x="1103" d="M164 33v73q0 14 10 23.5t23 9.5h276v686h-137q-12 0 -21.5 10t-9.5 23v76q0 13 9.5 22t21.5 9h254q17 0 30 -13t13 -30v-783h274q13 0 23 -9.5t10 -23.5v-73q0 -13 -10 -23t-23 -10h-710q-13 0 -23 10t-10 23zM288.5 1504q5.5 12 20.5 12h144q23 0 32 -7t21 -34l133 -287 q16 -33 -12 -45l-43 -21q-31 -14 -54 19l-237 338q-10 13 -4.5 25z" />
<glyph unicode="&#xed;" horiz-adv-x="1103" d="M164 33v73q0 14 10 23.5t23 9.5h276v686h-137q-12 0 -21.5 10t-9.5 23v76q0 13 9.5 22t21.5 9h254q17 0 30 -13t13 -30v-783h274q13 0 23 -9.5t10 -23.5v-73q0 -13 -10 -23t-23 -10h-710q-13 0 -23 10t-10 23zM496 1188l133 287q12 27 21 34t32 7h143q15 0 21 -12t-4 -25 l-238 -338q-23 -32 -53 -19l-43 21q-28 12 -12 45z" />
<glyph unicode="&#xee;" horiz-adv-x="1103" d="M164 33v73q0 14 10 23.5t23 9.5h276v686h-137q-12 0 -21.5 10t-9.5 23v76q0 13 9.5 22t21.5 9h254q17 0 30 -13t13 -30v-783h274q13 0 23 -9.5t10 -23.5v-73q0 -13 -10 -23t-23 -10h-710q-13 0 -23 10t-10 23zM258 1178q-18 21 2 41l150 163q19 21 28.5 31t29 20.5 t40.5 10.5t40.5 -10.5t29 -20.5t28.5 -31l150 -163q20 -20 2 -41l-31 -33q-8 -9 -19.5 -8.5t-19.5 8.5l-180 155l-180 -155q-8 -8 -19.5 -8.5t-19.5 8.5z" />
<glyph unicode="&#xef;" horiz-adv-x="1103" d="M164 33v73q0 14 10 23.5t23 9.5h276v686h-137q-12 0 -21.5 10t-9.5 23v76q0 13 9.5 22t21.5 9h254q17 0 30 -13t13 -30v-783h274q13 0 23 -9.5t10 -23.5v-73q0 -13 -10 -23t-23 -10h-710q-13 0 -23 10t-10 23zM209 1286q0 54 38.5 92.5t92.5 38.5t92.5 -38.5t38.5 -92.5 t-38.5 -92.5t-92.5 -38.5t-92.5 38.5t-38.5 92.5zM604 1286q0 54 38.5 92.5t92.5 38.5t92.5 -38.5t38.5 -92.5t-38.5 -92.5t-92.5 -38.5t-92.5 38.5t-38.5 92.5z" />
<glyph unicode="&#xf1;" horiz-adv-x="1110" d="M205 33v901q0 12 9.5 21.5t23.5 9.5h84q14 0 23 -9t9 -22v-51q186 102 336 102q135 0 215 -86t80 -274v-592q0 -14 -9 -23.5t-22 -9.5h-98q-12 0 -21.5 10t-9.5 23v624q0 93 -44 135t-119 42q-130 0 -300 -99v-702q0 -13 -10 -23t-22 -10h-97q-28 0 -28 33zM295 1225 q57 137 176 137q52 0 139 -33t113 -33q50 0 80 52q12 21 37 10l39 -19q23 -10 14 -30q-57 -138 -176 -138q-38 0 -126.5 33t-125.5 33q-50 0 -80 -51q-12 -21 -37 -10l-39 18q-23 10 -14 31z" />
<glyph unicode="&#xf2;" d="M174 350v264q0 154 115 261.5t282 107.5q162 0 276 -108t114 -261v-264q0 -154 -114.5 -262t-275.5 -108q-167 0 -282 108t-115 262zM325.5 1504q5.5 12 20.5 12h143q23 0 32.5 -7.5t21.5 -33.5l133 -287q16 -33 -12 -45l-43 -21q-31 -14 -54 19l-237 338q-10 13 -4.5 25 zM336 340q0 -89 68 -154t163 -65t164.5 65t69.5 154v283q0 90 -69 154.5t-165 64.5q-95 0 -163 -64t-68 -155v-283z" />
<glyph unicode="&#xf3;" d="M174 350v264q0 154 115 261.5t282 107.5q162 0 276 -108t114 -261v-264q0 -154 -114.5 -262t-275.5 -108q-167 0 -282 108t-115 262zM336 340q0 -89 68 -154t163 -65t164.5 65t69.5 154v283q0 90 -69 154.5t-165 64.5q-95 0 -163 -64t-68 -155v-283zM492 1188l133 287 q12 27 21 34t32 7h143q15 0 21 -12t-4 -25l-238 -338q-23 -32 -53 -19l-43 21q-28 12 -12 45z" />
<glyph unicode="&#xf4;" d="M174 350v264q0 154 115 261.5t282 107.5q162 0 276 -108t114 -261v-264q0 -154 -114.5 -262t-275.5 -108q-167 0 -282 108t-115 262zM319 1178q-18 20 3 41l149 163q19 21 28.5 31t29 20.5t40.5 10.5t40.5 -10.5t30 -20.5t28.5 -31l149 -163q20 -20 2 -41l-31 -33 q-8 -9 -19 -8.5t-19 8.5l-181 155l-180 -155q-8 -8 -19.5 -8.5t-19.5 8.5zM336 340q0 -89 68 -154t163 -65t164.5 65t69.5 154v283q0 90 -69 154.5t-165 64.5q-95 0 -163 -64t-68 -155v-283z" />
<glyph unicode="&#xf5;" d="M174 350v264q0 154 115 261.5t282 107.5q162 0 276 -108t114 -261v-264q0 -154 -114.5 -262t-275.5 -108q-167 0 -282 108t-115 262zM268 1225q57 137 176 137q52 0 139 -33t113 -33q50 0 80 52q12 21 37 10l39 -19q23 -10 14 -30q-57 -138 -176 -138q-38 0 -126.5 33 t-125.5 33q-50 0 -80 -51q-12 -20 -36 -10l-39 18q-24 10 -15 31zM336 340q0 -89 68 -154t163 -65t164.5 65t69.5 154v283q0 90 -69 154.5t-165 64.5q-95 0 -163 -64t-68 -155v-283z" />
<glyph unicode="&#xf6;" d="M174 350v264q0 154 115 261.5t282 107.5q162 0 276 -108t114 -261v-264q0 -154 -114.5 -262t-275.5 -108q-167 0 -282 108t-115 262zM238 1286q0 54 38.5 92.5t92.5 38.5t92.5 -38.5t38.5 -92.5t-38.5 -92.5t-92.5 -38.5t-92.5 38.5t-38.5 92.5zM336 340q0 -89 68 -154 t163 -65t164.5 65t69.5 154v283q0 90 -69 154.5t-165 64.5q-95 0 -163 -64t-68 -155v-283zM633 1286q0 54 38.5 92.5t92.5 38.5t92.5 -38.5t38.5 -92.5t-38.5 -92.5t-92.5 -38.5t-92.5 38.5t-38.5 92.5z" />
<glyph unicode="&#xf7;" horiz-adv-x="1157" d="M205 471v92q0 7 6 13t14 6h707q8 0 14 -6t6 -13v-92q0 -18 -20 -18l-707 -2q-9 0 -14.5 6t-5.5 14zM457 131q0 54 38.5 92.5t92.5 38.5t92.5 -38.5t38.5 -92.5t-38.5 -92.5t-92.5 -38.5t-92.5 38.5t-38.5 92.5zM457 901q0 54 38.5 92.5t92.5 38.5t92.5 -38.5t38.5 -92.5 t-38.5 -92.5t-92.5 -38.5t-92.5 38.5t-38.5 92.5z" />
<glyph unicode="&#xf8;" horiz-adv-x="1155" d="M174 344v270q0 154 115 261.5t282 107.5q81 0 154 -31l111 226q6 12 20 16t27 -2l78 -39q12 -6 17 -18.5t-1 -24.5l-121 -246q105 -105 105 -250v-270q0 -154 -114.5 -262.5t-275.5 -108.5q-70 0 -141 23l-80 -166q-6 -12 -19.5 -16t-25.5 2l-82 39q-12 6 -16 19.5 t2 25.5l86 176q-121 108 -121 268zM336 334q0 -60 31 -111l295 600q-46 19 -95 19q-95 0 -163 -64t-68 -155v-289zM494 125q38 -10 73 -10q95 0 164.5 65t69.5 154v289q0 41 -21 88z" />
<glyph unicode="&#xf9;" horiz-adv-x="1148" d="M164 344v588q0 14 9 23.5t22 9.5h98q12 0 21.5 -10t9.5 -23v-625q0 -174 163 -174q71 0 153 28t146 68v703q0 13 10.5 23t22.5 10h96q29 0 29 -33v-901q0 -13 -9 -22t-24 -9h-84q-14 0 -23 9t-9 22v51q-167 -100 -330 -100q-135 0 -218 87t-83 275zM360.5 1504 q5.5 12 20.5 12h143q23 0 32.5 -7.5t21.5 -33.5l133 -287q16 -32 -13 -45l-43 -21q-30 -13 -53 19l-237 338q-10 13 -4.5 25z" />
<glyph unicode="&#xfa;" horiz-adv-x="1148" d="M164 344v588q0 14 9 23.5t22 9.5h98q12 0 21.5 -10t9.5 -23v-625q0 -174 163 -174q71 0 153 28t146 68v703q0 13 10.5 23t22.5 10h96q29 0 29 -33v-901q0 -13 -9 -22t-24 -9h-84q-14 0 -23 9t-9 22v51q-167 -100 -330 -100q-135 0 -218 87t-83 275zM485 1188l133 287 q12 26 21.5 33.5t32.5 7.5h143q15 0 20.5 -12t-4.5 -25l-237 -338q-23 -32 -53 -19l-43 21q-29 13 -13 45z" />
<glyph unicode="&#xfb;" horiz-adv-x="1148" d="M164 344v588q0 14 9 23.5t22 9.5h98q12 0 21.5 -10t9.5 -23v-625q0 -174 163 -174q71 0 153 28t146 68v703q0 13 10.5 23t22.5 10h96q29 0 29 -33v-901q0 -13 -9 -22t-24 -9h-84q-14 0 -23 9t-9 22v51q-167 -100 -330 -100q-135 0 -218 87t-83 275zM303 1178q-18 21 2 41 l150 163q19 21 28.5 31t29 20.5t40.5 10.5t40.5 -10.5t29 -20.5t28.5 -31l150 -163q20 -20 2 -41l-31 -33q-8 -9 -19.5 -8.5t-19.5 8.5l-180 155l-180 -155q-8 -8 -19.5 -8.5t-19.5 8.5z" />
<glyph unicode="&#xfc;" horiz-adv-x="1148" d="M164 344v588q0 14 9 23.5t22 9.5h98q12 0 21.5 -10t9.5 -23v-625q0 -174 163 -174q71 0 153 28t146 68v703q0 13 10.5 23t22.5 10h96q29 0 29 -33v-901q0 -13 -9 -22t-24 -9h-84q-14 0 -23 9t-9 22v51q-167 -100 -330 -100q-135 0 -218 87t-83 275zM229 1286 q0 54 38.5 92.5t92.5 38.5t93 -38.5t39 -92.5t-39 -92.5t-93 -38.5t-92.5 38.5t-38.5 92.5zM625 1286q0 54 38.5 92.5t92.5 38.5t92.5 -38.5t38.5 -92.5t-38.5 -92.5t-92.5 -38.5t-92.5 38.5t-38.5 92.5z" />
<glyph unicode="&#xfd;" horiz-adv-x="1159" d="M164 344v588q0 14 9 23.5t22 9.5h98q12 0 21.5 -10t9.5 -23v-625q0 -174 163 -174q78 0 159 27.5t140 68.5v703q0 13 10.5 23t22.5 10h99q28 0 28 -33v-981q0 -69 -13 -123.5t-35.5 -93.5t-59 -67t-76 -44.5t-94 -26t-106 -13t-118.5 -3.5h-71q-39 0 -39 39v62 q0 36 39 36q89 0 142.5 2.5t105.5 12t79 26t49 46.5t29.5 72t7.5 104v96q-149 -94 -321 -94q-135 0 -218 87t-83 275zM485 1188l133 287q10 26 20.5 33.5t33.5 7.5h143q15 0 20.5 -12t-4.5 -25l-237 -338q-23 -32 -53 -19l-43 21q-29 13 -13 45z" />
<glyph unicode="&#xff;" horiz-adv-x="1159" d="M164 344v588q0 14 9 23.5t22 9.5h98q12 0 21.5 -10t9.5 -23v-625q0 -174 163 -174q78 0 159 27.5t140 68.5v703q0 13 10.5 23t22.5 10h99q28 0 28 -33v-981q0 -69 -13 -123.5t-35.5 -93.5t-59 -67t-76 -44.5t-94 -26t-106 -13t-118.5 -3.5h-71q-39 0 -39 39v62 q0 36 39 36q89 0 142.5 2.5t105.5 12t79 26t49 46.5t29.5 72t7.5 104v96q-149 -94 -321 -94q-135 0 -218 87t-83 275zM233 1286q0 54 39 92.5t93 38.5t92.5 -38.5t38.5 -92.5t-38.5 -92.5t-92.5 -38.5t-93 38.5t-39 92.5zM629 1286q0 54 38.5 92.5t92.5 38.5t92.5 -38.5 t38.5 -92.5t-38.5 -92.5t-92.5 -38.5t-92.5 38.5t-38.5 92.5z" />
<glyph unicode="&#x152;" horiz-adv-x="1808" d="M205 344v571q0 153 121 261t292 108q152 0 256 -96v33q0 17 13.5 30t30.5 13h714q13 0 23 -9t10 -22v-86q0 -13 -10.5 -23t-22.5 -10h-592v-319h326q13 0 23 -9t10 -22v-84q0 -13 -10.5 -23t-22.5 -10h-326v-497h592q13 0 23 -9t10 -22v-86q0 -13 -10.5 -23t-22.5 -10 h-710q-17 0 -30 13t-13 30v27q-105 -97 -256 -97q-173 0 -295.5 108.5t-122.5 262.5zM367 342q0 -90 77 -155.5t179 -65.5t179 65.5t77 155.5v584q-4 87 -80.5 149t-175.5 62q-102 0 -179 -64.5t-77 -154.5v-576z" />
<glyph unicode="&#x153;" horiz-adv-x="1722" d="M174 350v264q0 154 115 261.5t282 107.5q94 0 175.5 -42t130.5 -110q51 71 133.5 114.5t179.5 43.5q161 0 274 -107t113 -261v-105q0 -32 -23 -55t-55 -23h-538v-67q0 -53 9 -90t32 -63.5t52.5 -42t80.5 -24t105 -11.5t136 -3q39 0 39 -37v-61q0 -39 -39 -39h-78 q-156 0 -258.5 24.5t-162.5 94.5q-55 -65 -135 -102t-171 -37q-167 0 -282 108t-115 262zM336 340q0 -89 68 -154t163 -65t164.5 65t69.5 154v283q0 90 -69 154.5t-165 64.5q-95 0 -163 -64t-68 -155v-283zM961 571h456v52q0 91 -66 155t-161 64t-162 -64t-67 -155v-52z" />
<glyph unicode="&#x178;" horiz-adv-x="1183" d="M170 1184q-17 24 4 39l76 55q9 8 21.5 6t19.5 -12l301 -441l301 441q7 10 19.5 12t21.5 -6l76 -55q21 -15 4 -39l-340 -496v-657q0 -13 -9 -22t-24 -9h-96q-15 0 -24 9t-9 22v657zM264 1597q0 54 38.5 93t92.5 39t92.5 -39t38.5 -93t-38.5 -92.5t-92.5 -38.5t-92.5 38.5 t-38.5 92.5zM659 1597q0 54 39 93t93 39t92.5 -39t38.5 -93t-38.5 -92.5t-92.5 -38.5t-93 38.5t-39 92.5z" />
<glyph unicode="&#x2c6;" horiz-adv-x="933" d="M217 1178q-18 21 2 41l150 163q19 21 28.5 31t29 20.5t40.5 10.5t40.5 -10.5t29 -20.5t28.5 -31l150 -163q20 -20 2 -41l-31 -33q-8 -9 -19.5 -8.5t-19.5 8.5l-180 155l-180 -155q-8 -8 -19.5 -8.5t-19.5 8.5z" />
<glyph unicode="&#x2dc;" horiz-adv-x="1011" d="M207 1225q57 137 176 137q52 0 139 -33t113 -33q50 0 80 52q12 21 37 10l39 -19q23 -10 14 -30q-57 -138 -176 -138q-38 0 -126.5 33t-125.5 33q-50 0 -80 -51q-12 -21 -37 -10l-39 18q-23 10 -14 31z" />
<glyph unicode="&#x2000;" horiz-adv-x="912" />
<glyph unicode="&#x2001;" horiz-adv-x="1825" />
<glyph unicode="&#x2002;" horiz-adv-x="912" />
<glyph unicode="&#x2003;" horiz-adv-x="1825" />
<glyph unicode="&#x2004;" horiz-adv-x="608" />
<glyph unicode="&#x2005;" horiz-adv-x="456" />
<glyph unicode="&#x2006;" horiz-adv-x="304" />
<glyph unicode="&#x2007;" horiz-adv-x="304" />
<glyph unicode="&#x2008;" horiz-adv-x="228" />
<glyph unicode="&#x2009;" horiz-adv-x="365" />
<glyph unicode="&#x200a;" horiz-adv-x="101" />
<glyph unicode="&#x2010;" horiz-adv-x="1187" d="M205 475v82q0 13 9.5 23t23.5 10h712q12 0 22.5 -10t10.5 -23v-82q0 -13 -10.5 -23t-22.5 -10h-712q-14 0 -23.5 10t-9.5 23z" />
<glyph unicode="&#x2011;" horiz-adv-x="1187" d="M205 475v82q0 13 9.5 23t23.5 10h712q12 0 22.5 -10t10.5 -23v-82q0 -13 -10.5 -23t-22.5 -10h-712q-14 0 -23.5 10t-9.5 23z" />
<glyph unicode="&#x2012;" horiz-adv-x="1187" d="M205 475v82q0 13 9.5 23t23.5 10h712q12 0 22.5 -10t10.5 -23v-82q0 -13 -10.5 -23t-22.5 -10h-712q-14 0 -23.5 10t-9.5 23z" />
<glyph unicode="&#x2013;" horiz-adv-x="921" d="M205 936v106q0 11 8 19t20 8h457q10 0 18.5 -8.5t8.5 -18.5v-106q0 -12 -8 -20.5t-19 -8.5h-457q-12 0 -20 8.5t-8 20.5z" />
<glyph unicode="&#x2014;" horiz-adv-x="1187" d="M205 475v82q0 13 9.5 23t23.5 10h712q12 0 22.5 -10t10.5 -23v-82q0 -13 -10.5 -23t-22.5 -10h-712q-14 0 -23.5 10t-9.5 23z" />
<glyph unicode="&#x2018;" horiz-adv-x="569" d="M205 698v535q0 12 9 21.5t22 9.5h98q12 0 21.5 -9.5t9.5 -21.5v-535q0 -12 -9.5 -21t-21.5 -9h-98q-13 0 -22 9t-9 21z" />
<glyph unicode="&#x2019;" horiz-adv-x="569" d="M205 698v535q0 12 9 21.5t22 9.5h98q12 0 21.5 -9.5t9.5 -21.5v-535q0 -12 -9.5 -21t-21.5 -9h-98q-13 0 -22 9t-9 21z" />
<glyph unicode="&#x201a;" horiz-adv-x="499" d="M125 -242l88 430h162l-166 -430h-84z" />
<glyph unicode="&#x201c;" horiz-adv-x="942" d="M205 698v535q0 12 9 21.5t22 9.5h98q12 0 21.5 -9.5t9.5 -21.5v-535q0 -12 -9.5 -21t-21.5 -9h-98q-13 0 -22 9t-9 21zM578 698v535q0 12 8.5 21.5t21.5 9.5h99q12 0 21 -9.5t9 -21.5v-535q0 -12 -9 -21t-21 -9h-99q-13 0 -21.5 9t-8.5 21z" />
<glyph unicode="&#x201d;" horiz-adv-x="942" d="M205 698v535q0 12 9 21.5t22 9.5h98q12 0 21.5 -9.5t9.5 -21.5v-535q0 -12 -9.5 -21t-21.5 -9h-98q-13 0 -22 9t-9 21zM578 698v535q0 12 8.5 21.5t21.5 9.5h99q12 0 21 -9.5t9 -21.5v-535q0 -12 -9 -21t-21 -9h-99q-13 0 -21.5 9t-8.5 21z" />
<glyph unicode="&#x201e;" horiz-adv-x="792" d="M82 559q0 10 22 84l80 260q27 84 97 84q79 0 79 -67q0 -24 -30 -82l-160 -228q-47 -71 -72 -71q-16 0 -16 20zM387 559q0 7 25 84l82 260q24 84 94 84q80 0 80 -67q0 -22 -31 -82l-160 -228q-50 -71 -69 -71q-21 0 -21 20z" />
<glyph unicode="&#x2022;" horiz-adv-x="716" d="M113 678q0 105 71 176q71 74 178 74q108 0 179 -74q73 -70 73 -176t-73 -179t-179 -73q-105 0 -177 73t-72 179z" />
<glyph unicode="&#x2026;" horiz-adv-x="1888" d="M205 104q0 51 37 88t88 37t88 -37t37 -88t-37 -87.5t-88 -36.5t-88 36.5t-37 87.5zM819 104q0 51 37 88t88 37t88 -37t37 -88t-37 -87.5t-88 -36.5t-88 36.5t-37 87.5zM1434 104q0 51 37 88t88 37t87.5 -37t36.5 -88t-36.5 -87.5t-87.5 -36.5t-88 36.5t-37 87.5z" />
<glyph unicode="&#x202f;" horiz-adv-x="365" />
<glyph unicode="&#x2039;" horiz-adv-x="937" d="M206 495q0 46 32 78l378 379q9 9 21.5 9t21.5 -9l62 -61q19 -19 -2 -41l-348 -350l352 -353q9 -9 9 -21.5t-9 -21.5l-64 -61q-9 -9 -21.5 -10t-21.5 8l-378 377q-32 31 -32 77z" />
<glyph unicode="&#x203a;" horiz-adv-x="937" d="M206 125.5q0 12.5 9 21.5l352 353l-348 350q-21 22 -2 41l62 61q9 9 21.5 9t21.5 -9l378 -379q32 -32 32 -78t-32 -77l-378 -377q-9 -9 -21.5 -8t-21.5 10l-64 61q-9 9 -9 21.5z" />
<glyph unicode="&#x205f;" horiz-adv-x="456" />
<glyph unicode="&#x20ac;" horiz-adv-x="1116" d="M164 451v84q0 13 9.5 21.5t21.5 8.5h116v135h-116q-12 0 -21.5 10t-9.5 23v84q0 13 9.5 22t21.5 9h116v49q0 69 13 123.5t35.5 93.5t59 67t76 44.5t94.5 26t106.5 13t119.5 3.5h57q39 0 39 -39v-64q0 -37 -39 -37q-76 0 -115 -1t-90.5 -5t-75 -13.5t-52 -26t-39.5 -42 t-19 -61.5t-8 -86v-45h258q13 0 23 -9t10 -22v-84q0 -13 -10.5 -23t-22.5 -10h-258v-135h258q13 0 23 -8.5t10 -21.5v-84q0 -13 -10.5 -23t-22.5 -10h-258v-45q0 -50 8 -86t19 -62t39.5 -42t52.5 -25.5t75 -14t90.5 -5.5t114.5 -1q39 0 39 -37v-63q0 -39 -39 -39h-57 q-68 0 -119.5 3.5t-106.5 13t-94.5 26t-76 44.5t-59 67t-35.5 93.5t-13 123.5v49h-116q-12 0 -21.5 10t-9.5 23z" />
<glyph unicode="&#x2122;" horiz-adv-x="1155" d="M184 1212v39q0 4 5 8.5t10 4.5h325q5 0 10 -4.5t5 -8.5v-39q0 -14 -15 -14h-129v-489q0 -13 -16 -13h-41q-16 0 -16 13v489h-123q-15 0 -15 14zM616 709v540q0 15 17 15h55l107 -197l102 197h59q15 0 15 -15v-540q0 -13 -15 -13h-45q-6 0 -10 4t-4 9v419l-76 -143 q-11 -18 -26 -18q-18 0 -29 18l-76 143v-419q0 -13 -16 -13h-41q-7 0 -12 4t-5 9z" />
<glyph unicode="&#x25fc;" horiz-adv-x="993" d="M0 0v993h993v-993h-993z" />
<glyph unicode="&#xfb01;" horiz-adv-x="1800" d="M164 33v73q0 14 10 23.5t23 9.5h145v686h-115q-12 0 -21 10t-9 23v76q0 13 9 22t21 9h115v49q0 80 16.5 141t50.5 101t75.5 66t103 39t120 18t138.5 5h57q39 0 39 -38v-64q0 -37 -39 -37q-76 0 -115 -1t-90.5 -5t-75 -13.5t-52 -26t-39.5 -42t-19 -61.5t-8 -86v-45h782 q17 0 30 -13t13 -30v-783h275q13 0 22.5 -9.5t9.5 -23.5v-73q0 -14 -9.5 -23.5t-22.5 -9.5h-1407q-13 0 -23 10t-10 23zM504 139h663v686h-663v-686zM1073 1286q0 54 38.5 92.5t92.5 38.5t92.5 -38.5t38.5 -92.5t-38.5 -92.5t-92.5 -38.5t-92.5 38.5t-38.5 92.5z" />
<glyph unicode="&#xfb02;" horiz-adv-x="1800" d="M164 33v73q0 14 10 23.5t23 9.5h145v686h-115q-12 0 -21 10t-9 23v76q0 13 9 22t21 9h115v49q0 80 16.5 141t50.5 101t75.5 66t103 39t120 18t138.5 5h440q17 0 30 -13t13 -30v-1202h275q13 0 22.5 -9.5t9.5 -23.5v-73q0 -14 -9.5 -23.5t-22.5 -9.5h-1407q-13 0 -23 10 t-10 23zM504 139h663v1106h-264q-76 0 -115 -1t-90.5 -5t-75 -13.5t-52 -26t-39.5 -42t-19 -61.5t-8 -86v-45h307q13 0 23 -9t10 -22v-76q0 -13 -10.5 -23t-22.5 -10h-307v-686z" />
</font>
</defs>
</svg>
