<?xml version="1.0" standalone="no"?>
<!DOCTYPE svg PUBLIC "-//W3C//DTD SVG 1.1//EN" "http://www.w3.org/Graphics/SVG/1.1/DTD/svg11.dtd" >
<svg xmlns="http://www.w3.org/2000/svg" xmlns:xlink="http://www.w3.org/1999/xlink" version="1.1">
<metadata></metadata>
<defs>
<font id="arbelhagildamedium" horiz-adv-x="1134" >
<font-face units-per-em="2048" ascent="1638" descent="-410" />
<missing-glyph horiz-adv-x="655" />
<glyph horiz-adv-x="0" />
<glyph horiz-adv-x="682" />
<glyph unicode=" "  horiz-adv-x="655" />
<glyph unicode="&#x09;" horiz-adv-x="655" />
<glyph unicode="&#xa0;" horiz-adv-x="655" />
<glyph unicode="!" horiz-adv-x="679" d="M205 115q0 56 40 96.5t95 40.5t95 -40.5t40 -96.5q0 -55 -39.5 -95t-95.5 -40t-95.5 40t-39.5 95zM219 1102q-3 58 30 93.5t87 35.5t86 -35.5t29 -93.5l-31 -676q-2 -34 -26 -58t-58 -24q-35 0 -58.5 24t-25.5 58z" />
<glyph unicode="&#x22;" horiz-adv-x="942" d="M193 637v520q0 19 11.5 32t31.5 13h96q17 0 30 -13t13 -32v-520q0 -17 -13 -30t-30 -13h-96q-20 0 -31.5 12.5t-11.5 30.5zM555 637v520q0 19 11.5 32t31.5 13h96q17 0 30 -13t13 -32v-520q0 -17 -13 -30t-30 -13h-96q-20 0 -31.5 12.5t-11.5 30.5z" />
<glyph unicode="#" horiz-adv-x="1255" d="M137 344l13 68q6 39 49 39h163l35 180h-164q-20 0 -30.5 14.5t-7.5 32.5l12 67q6 39 49 39h168l43 244q6 41 47 41h72q42 0 35 -41l-43 -244h170l43 244q6 41 47 41h69q42 0 35 -41l-41 -244h166q19 0 28 -10.5t5 -28.5l-19 -88q-6 -26 -39 -26h-170l-32 -180h172 q41 0 32 -39l-18 -88q-6 -27 -39 -27h-172l-49 -264q-3 -18 -12 -25.5t-29 -7.5h-78q-39 0 -33 41l43 256h-165l-50 -264q-3 -18 -12 -25.5t-29 -7.5h-77q-39 0 -33 41l45 256h-160q-20 0 -31 14.5t-8 32.5zM516 451h170l33 180h-168z" />
<glyph unicode="$" horiz-adv-x="1128" d="M154 967q7 122 100 210t227 103v25q0 20 12 31.5t27 11.5h82q16 0 27.5 -11t11.5 -32v-29q93 -14 223 -64q51 -20 35 -67l-20 -58q-16 -45 -62 -28q-92 37 -176 53v-418q135 -55 211 -117.5t101 -128t18 -151.5q-10 -124 -102 -210t-228 -103v-33q0 -21 -11.5 -32 t-27.5 -11h-82q-15 0 -27 11.5t-12 31.5v35q-125 16 -248 65q-53 19 -36 68l22 57q17 46 62 29q118 -47 200 -58v433q-183 65 -259.5 160.5t-67.5 226.5zM336 952q-3 -60 30.5 -106t114.5 -86v352q-64 -17 -102.5 -59t-42.5 -101zM641 156q61 17 99.5 58t45.5 97 q7 66 -28 115.5t-117 89.5v-360z" />
<glyph unicode="%" horiz-adv-x="1196" d="M193 827q0 47 10.5 90t33 81.5t65 61.5t99.5 23q46 0 82 -15.5t59 -40.5t38.5 -59.5t21.5 -69t6 -71.5q0 -38 -6 -74t-21.5 -71t-38.5 -61t-59 -42t-82 -16t-83 16t-60 42t-38 61t-21 71t-6 74zM223 291q-16 22 6 37l613 460q9 8 20.5 7t18.5 -11l37 -49q16 -22 -7 -37 l-612 -460q-9 -8 -20.5 -7t-18.5 11zM317 827q0 -163 84 -163q82 0 82 163q0 160 -82 160q-84 0 -84 -160zM571 236q0 37 6 71.5t21.5 69t38.5 59.5t59 40.5t82 15.5q57 0 99.5 -23t65.5 -61.5t33.5 -81.5t10.5 -90q0 -49 -10.5 -93t-33.5 -83.5t-65.5 -63t-99.5 -23.5 q-46 0 -82 16t-59 41.5t-38.5 60.5t-21.5 71t-6 74zM696 236q0 -164 82 -164q84 0 84 164q0 159 -84 159q-82 0 -82 -159z" />
<glyph unicode="&#x26;" horiz-adv-x="1239" d="M178 317q0 100 56.5 191t164.5 147l-106 150q-55 79 -55 176q0 125 94.5 211t224.5 86q73 0 142.5 -35.5t117.5 -103.5q12 -19 16.5 -27t1.5 -23t-20 -30l-33 -29q-31 -25 -59 6q-39 43 -78 67t-92 23q-59 -2 -102 -39.5t-43 -97.5q0 -46 26 -84l377 -557l100 133 q26 32 56 8l43 -32q33 -23 10 -58l-117 -176l107 -164q12 -19 2 -39t-33 -20h-86q-24 0 -39 6.5t-29 26.5l-39 55q-101 -98 -254 -98q-67 0 -129.5 21.5t-113 61.5t-81 103.5t-30.5 140.5zM348 336q0 -88 55.5 -139.5t133.5 -51.5q93 0 163 70l-219 322q-66 -32 -99.5 -86.5 t-33.5 -114.5z" />
<glyph unicode="'" horiz-adv-x="569" d="M188 637v520q0 19 12.5 32t32.5 13h95q19 0 32 -13t13 -32v-520q0 -17 -13 -30t-32 -13h-95q-20 0 -32.5 12.5t-12.5 30.5z" />
<glyph unicode="(" horiz-adv-x="747" d="M190 621q0 299 177 553q80 116 139 116q18 0 29.5 -14t11.5 -37q0 -17 -37 -96q-135 -280 -135 -522q0 -243 135 -523q37 -79 37 -96q0 -23 -11.5 -37t-29.5 -14q-58 0 -139 117q-177 254 -177 553z" />
<glyph unicode=")" horiz-adv-x="747" d="M190 2q0 17 37 96q135 280 135 523q0 242 -135 522q-37 79 -37 96q0 23 11.5 37t29.5 14q60 0 140 -116q176 -252 176 -553t-176 -553q-81 -117 -140 -117q-18 0 -29.5 14t-11.5 37z" />
<glyph unicode="*" horiz-adv-x="1122" d="M197 1171.5q-5 14.5 0 28.5l16 49q5 15 16.5 22t26.5 3l225 -64l11 236q1 15 12 24t26 9h52q15 0 24.5 -9t11.5 -24l11 -236l225 64q33 10 43 -23l16 -53q5 -14 0 -27.5t-18 -17.5l-221 -82l129 -192q9 -12 6.5 -26.5t-14.5 -23.5l-45 -32q-28 -22 -50 4l-145 184 l-145 -184q-9 -11 -24 -11t-28 9l-41 30q-28 19 -10 48l129 194l-221 82q-13 4 -18 18.5z" />
<glyph unicode="+" horiz-adv-x="1157" d="M197 500v90q0 10 8.5 19t21.5 9h271v279q0 31 28 31h90q10 0 19.5 -8.5t9.5 -22.5v-279h275q13 0 21.5 -9t8.5 -19v-90q0 -12 -8.5 -20.5t-21.5 -8.5h-275v-272q0 -14 -9.5 -23.5t-19.5 -9.5h-90q-12 0 -20 9t-8 24v270h-271q-13 0 -21.5 9.5t-8.5 21.5z" />
<glyph unicode="," horiz-adv-x="712" d="M190 -176l84 346q11 49 60 49h137q25 0 36.5 -14.5t2.5 -36.5l-180 -406q-14 -31 -51 -16l-66 29q-18 7 -23 18t0 31z" />
<glyph unicode="-" d="M205 461v96q0 17 12 29t31 12h637q16 0 28.5 -12t12.5 -29v-96q0 -17 -12.5 -29t-28.5 -12h-637q-19 0 -31 12t-12 29z" />
<glyph unicode="." horiz-adv-x="659" d="M190 115q0 56 40.5 96.5t95.5 40.5t95 -40.5t40 -96.5q0 -55 -39.5 -95t-95.5 -40t-96 40t-40 95z" />
<glyph unicode="/" horiz-adv-x="1185" d="M195 42q-5 17 4 36l612 1247q7 17 24.5 21.5t32.5 -3.5l84 -43q15 -8 20.5 -24t-1.5 -33l-613 -1249q-19 -36 -59 -17l-80 39q-19 9 -24 26z" />
<glyph unicode="0" horiz-adv-x="1150" d="M156 633q0 95 11.5 182.5t41.5 175t75.5 151.5t118.5 104t166 40t166.5 -40t119 -104t75 -151.5t41.5 -175t12 -182.5q0 -78 -8.5 -152t-27 -149.5t-51 -138t-77 -112t-108.5 -77t-142 -27.5t-142 27.5t-108.5 77t-76.5 112t-50.5 138t-27 149.5t-8.5 152zM348 633 q0 -43 1.5 -82.5t7.5 -90.5t15.5 -94t26.5 -86t39.5 -72.5t56 -48t74.5 -18.5t74 18.5t55.5 48t39.5 72.5t26 86t15 94t7.5 90.5t1.5 82.5q0 42 -1.5 81t-7.5 90t-15 93.5t-26 85.5t-39.5 72.5t-55.5 48t-74 18.5t-74.5 -18.5t-56 -48t-39.5 -72.5t-26.5 -85.5t-15.5 -93.5 t-7.5 -90t-1.5 -81z" />
<glyph unicode="1" horiz-adv-x="1130" d="M156 43v84q0 19 12 31t31 12h264v887l-178 -66q-43 -16 -56 27l-30 88q-15 40 26 55l303 113q43 15 80 -9t37 -71v-1024h234q19 0 31 -12t12 -31v-84q0 -19 -12 -31t-31 -12h-680q-19 0 -31 12t-12 31z" />
<glyph unicode="2" horiz-adv-x="1116" d="M158 53v121l432 451q93 98 127.5 164.5t32.5 140.5q-1 79 -62 129.5t-137 50.5q-94 0 -152.5 -42t-103.5 -116q-28 -45 -76 -18l-43 24q-37 22 -18 72q49 123 156.5 188.5t236.5 65.5q96 0 183.5 -40.5t146.5 -122t61 -187.5q5 -196 -199 -397l-376 -367h415v63 q0 15 11 25t26 10h74q15 0 25 -10t10 -25v-194q0 -15 -11.5 -27t-25.5 -12h-680q-21 0 -37 16t-16 37z" />
<glyph unicode="3" horiz-adv-x="1132" d="M168 164q-29 44 6 76l33 30q22 19 43 17.5t37 -21.5q102 -119 241 -119q111 0 183.5 77t72.5 182q0 114 -72 180.5t-177 66.5h-52q-22 0 -35 7t-18 30l-22 90l266 307h-430q-19 0 -31 12t-12 31v84q0 19 12 31t31 12h602q19 0 33 -13t14 -34v-127l-254 -278 q141 -26 233.5 -130t92.5 -267q0 -132 -62.5 -232.5t-158.5 -150.5t-207 -50q-104 0 -202.5 48.5t-166.5 140.5z" />
<glyph unicode="4" horiz-adv-x="1181" d="M156 385v113l452 747q25 41 72 35l123 -18q23 -3 36 -18.5t13 -39.5v-712h117q18 0 30.5 -12.5t12.5 -30.5v-72q0 -19 -12 -32t-31 -13h-117v-170h117q19 0 31 -12t12 -31v-76q0 -19 -12 -31t-31 -12h-482q-19 0 -31 12t-12 31v76q0 19 12 31t31 12h191v170h-469 q-21 0 -37 16t-16 37zM340 492h338v561q-67 -108 -186 -307t-152 -254z" />
<glyph unicode="5" horiz-adv-x="1118" d="M168 164q-29 44 6 76l33 30q22 19 43 17.5t37 -21.5q102 -119 241 -119q111 0 183.5 77t72.5 182q0 114 -72 180.5t-177 66.5q-98 0 -187 -57q-40 -27 -82 -4l-65 35v590q0 21 14 34t33 13h575q19 0 31 -12t12 -31v-84q0 -19 -12 -31t-31 -12h-446v-314q88 39 180 39 q107 0 199 -48.5t150.5 -144t58.5 -218.5q0 -132 -62.5 -232.5t-158.5 -150.5t-207 -50q-104 0 -202.5 48.5t-166.5 140.5z" />
<glyph unicode="6" horiz-adv-x="1124" d="M156 541q0 333 174 530q83 97 200 150t256 53h41q50 0 50 -51v-47q0 -50 -50 -50q-192 0 -326 -116t-157 -320q48 52 115 81.5t131 29.5q159 0 270 -122t111 -292t-111.5 -291t-271.5 -121q-198 0 -318 154q-114 151 -114 412zM362 387q0 -104 61.5 -177t154.5 -73 q90 0 150 73t60 177t-60 175t-150 71q-93 0 -154.5 -71t-61.5 -175z" />
<glyph unicode="7" horiz-adv-x="1093" d="M156 1026v182q0 22 16 39t37 17h627q48 0 74.5 -36t11.5 -85l-330 -1102q-6 -23 -18.5 -32t-36.5 -9h-91q-27 0 -39 17t-4 44l328 1033h-430v-68q0 -19 -13 -31t-32 -12h-57q-19 0 -31 12t-12 31z" />
<glyph unicode="8" horiz-adv-x="1136" d="M156 350q0 96 44.5 173t131.5 122q-77 47 -119.5 121.5t-42.5 161.5q0 147 114 252.5t277 105.5q164 0 279.5 -105.5t115.5 -252.5q0 -87 -42 -161.5t-119 -121.5q86 -45 130 -122t44 -173q0 -155 -119.5 -266t-288.5 -111q-168 0 -286.5 110.5t-118.5 266.5zM338 348 q0 -89 65 -151t158 -62t158 62t65 151t-65 151t-158 62t-158 -62t-65 -151zM348 924q0 -85 62 -145t151 -60t151 60t62 145q0 86 -62 145t-151 59t-151 -59t-62 -145z" />
<glyph unicode="9" horiz-adv-x="1124" d="M156 872q0 170 111 291t270 121q198 0 317 -156q117 -152 117 -411q0 -332 -174 -529q-84 -97 -202 -149.5t-257 -52.5h-39q-49 0 -49 51v47q0 47 49 47q191 0 325.5 117t155.5 321q-46 -52 -113.5 -81t-131.5 -29q-157 0 -268 121.5t-111 291.5zM336 872 q0 -104 60.5 -174.5t152.5 -70.5t152.5 70.5t60.5 174.5t-61 177t-152 73t-152 -73t-61 -177z" />
<glyph unicode=":" horiz-adv-x="684" d="M190 129q0 61 43 104t105 43t104.5 -43t42.5 -104t-42.5 -104t-104.5 -43t-105 43t-43 104zM190 770q0 62 43 105t105 43q61 0 104 -43t43 -105q0 -60 -43 -103.5t-104 -43.5t-104.5 43.5t-43.5 103.5z" />
<glyph unicode=";" horiz-adv-x="739" d="M194.5 10q-4.5 11 0.5 31l84 346q11 49 59 49h137q25 0 36.5 -14.5t2.5 -36.5l-180 -405q-14 -32 -51 -17l-66 29q-18 7 -22.5 18zM244 770q0 62 43 105t104 43t104.5 -43t43.5 -105q0 -60 -43.5 -103.5t-104.5 -43.5t-104 43.5t-43 103.5z" />
<glyph unicode="&#x3c;" horiz-adv-x="937" d="M195 494q0 56 32 88l369 368q14 14 31 14t30 -14l60 -59q12 -12 11 -30t-13 -30l-328 -331v-13l328 -331q12 -12 13 -30t-11 -30l-60 -59q-13 -13 -30 -13t-31 13l-369 369q-32 32 -32 88z" />
<glyph unicode="=" horiz-adv-x="1165" d="M205 305v92q0 10 9 18.5t22 8.5h696q13 0 21 -8.5t8 -18.5v-92q0 -11 -8 -18.5t-21 -7.5h-696q-13 0 -22 7.5t-9 18.5zM205 694v92q0 10 9 18.5t22 8.5h696q13 0 21 -8.5t8 -18.5v-92q0 -11 -8 -18.5t-21 -7.5h-696q-13 0 -22 7.5t-9 18.5z" />
<glyph unicode="&#x3e;" horiz-adv-x="937" d="M196 126q1 18 13 30l328 331v13l-328 331q-12 12 -13 30t11 30l59 59q14 14 31 14t31 -14l368 -368q33 -33 33 -88t-33 -88l-368 -369q-14 -13 -31 -13t-31 13l-59 59q-12 12 -11 30z" />
<glyph unicode="?" horiz-adv-x="1093" d="M211 1034q50 106 138.5 164.5t205.5 58.5q144 0 239 -88.5t95 -218.5q0 -38 -10 -73t-20.5 -58t-37 -54.5t-38.5 -43.5t-46 -45q-42 -38 -65 -63.5t-43.5 -67t-20.5 -84.5v-60q0 -23 -13.5 -38t-35.5 -15h-78q-21 0 -34.5 12t-14.5 33q-2 16 -2 41q0 58 11.5 105t37 87 t49 66.5t64.5 65.5q36 33 56.5 56t38.5 61t18 77q0 64 -46.5 101t-111.5 37q-118 0 -211 -134q-27 -39 -68 -14l-35 23q-42 26 -22 69zM385 115q0 56 40 96.5t95 40.5t95 -40.5t40 -96.5q0 -55 -39.5 -95t-95.5 -40t-95.5 40t-39.5 95z" />
<glyph unicode="@" horiz-adv-x="1734" d="M199 520q0 178 88 330t239.5 241t329.5 89q134 0 256.5 -52.5t211 -141.5t140.5 -211t52 -255q0 -94 -27.5 -176t-89.5 -138t-148 -56q-129 0 -188 86q-46 -42 -116.5 -67.5t-141.5 -25.5q-106 0 -179.5 54.5t-76.5 164.5q-4 114 83 179t218 65h149v33q0 34 -8 56t-20 34 t-39.5 18t-52.5 7.5t-72 1.5h-100q-35 0 -35 35v43q0 35 39 38q79 9 151 9q74 0 122.5 -12.5t84 -43.5t51 -86t15.5 -139v-201q0 -68 33 -99.5t81 -31.5q37 0 63 19t39.5 54t20 74.5t8.5 90.5v14q0 106 -41.5 203t-112 167t-167 111t-203.5 41t-203.5 -41t-167 -111 t-112 -167t-41.5 -203q0 -143 70 -263.5t191 -190.5t263 -70h37v-133h-37q-133 0 -255 52t-210 140t-140 210t-52 255zM682 360q8 -94 125 -94q55 0 110.5 19t81.5 47v157h-149q-82 0 -127.5 -35.5t-40.5 -93.5z" />
<glyph unicode="A" horiz-adv-x="1122" d="M135 47l307 1167q6 24 24 37t42 13h94q24 0 42 -13t24 -37l307 -1167q5 -20 -6 -33.5t-33 -13.5h-84q-42 0 -53 41l-115 446h-258l-115 -446q-11 -41 -53 -41h-84q-22 0 -33 13.5t-6 33.5zM469 659h170l-68 297l-12 76h-8l-12 -76z" />
<glyph unicode="B" d="M193 57v1149q0 23 17 40.5t40 17.5h373q132 0 224.5 -92.5t92.5 -223.5v-43q0 -123 -86 -209q63 -41 99 -107.5t36 -144.5v-127q0 -132 -92 -224.5t-223 -92.5h-424q-23 0 -40 17t-17 40zM373 172h301q57 0 100 43.5t43 101.5v129q0 57 -43 100.5t-100 43.5h-301v-418z M373 756h256q55 0 97 43.5t42 99.5v49q0 57 -43.5 100.5t-101.5 43.5h-250v-336z" />
<glyph unicode="C" horiz-adv-x="1101" d="M193 350v559q0 156 122.5 265.5t294.5 109.5q89 0 178.5 -38.5t155.5 -125.5q12 -18 12 -35q0 -23 -22 -43l-31 -26q-20 -17 -40 -17q-22 0 -42 21q-47 47 -94 69.5t-113 22.5q-93 0 -164 -59.5t-71 -141.5v-563q0 -82 71 -142.5t164 -60.5q65 0 112 22.5t95 70.5 q21 21 42 21q19 0 40 -17l31 -27q22 -21 22 -43q0 -17 -12 -35q-66 -87 -155.5 -125.5t-178.5 -38.5q-172 0 -294.5 110.5t-122.5 266.5z" />
<glyph unicode="D" d="M193 57v1149q0 23 17 40.5t40 17.5h321q172 0 295 -110.5t123 -266.5v-510q0 -156 -123 -266.5t-295 -110.5h-321q-23 0 -40 17t-17 40zM379 174h188q94 0 165 60t71 143v512q0 82 -70.5 141.5t-165.5 59.5h-188v-916z" />
<glyph unicode="E" d="M193 57v1149q0 23 17 40.5t40 17.5h696q19 0 31 -12t12 -31v-88q0 -19 -12 -31t-31 -12h-567v-285h305q18 0 31.5 -12.5t13.5 -30.5v-84q0 -18 -13.5 -31.5t-31.5 -13.5h-305v-459h567q19 0 31 -12t12 -31v-88q0 -19 -12 -31t-31 -12h-696q-23 0 -40 17t-17 40z" />
<glyph unicode="F" d="M193 43v1163q0 23 17 40.5t40 17.5h696q19 0 31 -12t12 -31v-88q0 -19 -12 -31t-31 -12h-567v-285h307q19 0 31 -12t12 -31v-86q0 -19 -12 -31t-31 -12h-307v-590q0 -19 -11 -31t-30 -12h-102q-18 0 -30.5 12.5t-12.5 30.5z" />
<glyph unicode="G" horiz-adv-x="1204" d="M174 350v559q0 156 123 265.5t295 109.5q89 0 178.5 -38.5t155.5 -125.5q12 -17 12 -34q0 -23 -23 -44l-30 -26q-20 -17 -40 -17q-21 0 -42 21q-47 47 -94 69.5t-113 22.5q-94 0 -165 -59.5t-71 -141.5v-563q0 -82 71.5 -142.5t164.5 -60.5t165.5 60.5t72.5 142.5v195 h-236q-19 0 -33 13.5t-14 33.5v82q0 18 14 30.5t33 12.5h311q44 0 75.5 -31.5t31.5 -75.5v-258q0 -156 -123 -266.5t-295 -110.5q-178 0 -301 110t-123 267z" />
<glyph unicode="H" horiz-adv-x="1196" d="M193 43v1178q0 18 12.5 30.5t30.5 12.5h102q19 0 30 -12t11 -31v-416h424v416q0 18 12.5 30.5t30.5 12.5h102q19 0 30 -12t11 -31v-1178q0 -19 -11 -31t-30 -12h-102q-18 0 -30.5 12.5t-12.5 30.5v590h-424v-590q0 -19 -11 -31t-30 -12h-102q-18 0 -30.5 12.5t-12.5 30.5 z" />
<glyph unicode="I" horiz-adv-x="1157" d="M170 43v88q0 19 12 31t31 12h260v916h-260q-19 0 -31 12t-12 31v88q0 19 12 31t31 12h715q19 0 31 -12t12 -31v-88q0 -19 -12 -31t-31 -12h-269v-916h269q19 0 31 -12t12 -31v-88q0 -19 -12 -31t-31 -12h-715q-19 0 -31 12t-12 31z" />
<glyph unicode="J" horiz-adv-x="1159" d="M172 1133v88q0 19 12 31t31 12h715q19 0 31 -12t12 -31v-88q0 -19 -12 -31t-31 -12h-129v-707q0 -97 -26.5 -167t-69.5 -111.5t-111 -65.5t-136.5 -31.5t-160.5 -7.5h-70q-23 0 -38 14.5t-15 36.5v76q0 49 53 49q190 0 248 12q86 18 116 82q23 51 23 152v668h-399 q-19 0 -31 12t-12 31z" />
<glyph unicode="K" horiz-adv-x="1148" d="M193 43v1178q0 18 12.5 30.5t30.5 12.5h102q19 0 30 -12t11 -31v-514l479 544q12 14 29 15t31 -11l69 -61q15 -13 15 -28q0 -14 -13 -29l-379 -432l383 -650q11 -19 3 -37t-29 -18h-103q-44 0 -65 41l-307 530l-113 -127v-401q0 -19 -11 -31t-30 -12h-102 q-18 0 -30.5 12.5t-12.5 30.5z" />
<glyph unicode="L" d="M193 57v1164q0 19 12 31t31 12h100q19 0 31 -11.5t12 -31.5v-1047h567q19 0 31 -12t12 -31v-88q0 -19 -12 -31t-31 -12h-696q-23 0 -40 17t-17 40z" />
<glyph unicode="M" horiz-adv-x="1196" d="M193 43v1163q0 23 17 40.5t40 17.5h115l223 -443h8l221 443h115q23 0 40 -17.5t17 -40.5v-1163q0 -19 -11 -31t-30 -12h-94q-18 0 -30.5 12.5t-12.5 30.5v854h-8l-144 -307q-15 -29 -41 -29h-53q-27 0 -41 29l-145 307h-8v-854q0 -19 -11 -31t-30 -12h-94 q-18 0 -30.5 12.5t-12.5 30.5z" />
<glyph unicode="N" horiz-adv-x="1198" d="M193 43v1163q0 23 17 40.5t40 17.5h110l445 -856v813q0 18 12.5 30.5t30.5 12.5h102q19 0 30 -12t11 -31v-1164q0 -23 -17 -40t-40 -17h-113l-442 858v-815q0 -19 -11 -31t-30 -12h-102q-18 0 -30.5 12.5t-12.5 30.5z" />
<glyph unicode="O" horiz-adv-x="1245" d="M193 348v561q0 156 122.5 265.5t296.5 109.5q178 0 302 -109t124 -266v-561q0 -157 -124 -266t-302 -109q-174 0 -296.5 109.5t-122.5 265.5zM379 346q0 -82 71 -141.5t166 -59.5q94 0 165 59.5t71 141.5v565q0 82 -71 141.5t-165 59.5q-95 0 -166 -59.5t-71 -141.5v-565 z" />
<glyph unicode="P" d="M193 43v1163q0 23 17 40.5t40 17.5h424q130 0 222.5 -92.5t92.5 -223.5v-88q0 -132 -92 -224.5t-223 -92.5h-295v-500q0 -19 -11 -31t-30 -12h-102q-18 0 -30.5 12.5t-12.5 30.5zM379 715h295q57 0 100 43.5t43 101.5v88q0 57 -43 100.5t-100 43.5h-295v-377z" />
<glyph unicode="Q" horiz-adv-x="1251" d="M193 348v561q0 156 122.5 265.5t296.5 109.5q178 0 302 -109t124 -266v-561q0 -150 -116 -260l112 -164q9 -14 6.5 -30t-14.5 -25l-70 -53q-13 -9 -29.5 -7t-25.5 15l-123 178q-82 -29 -166 -29q-174 0 -296.5 109.5t-122.5 265.5zM379 346q0 -82 71 -141.5t166 -59.5 q28 0 60 7l-113 167q-9 14 -6.5 30.5t14.5 25.5l70 53q13 9 29.5 7t25.5 -15l121 -178q35 47 35 104v565q0 82 -71 141.5t-165 59.5q-95 0 -166 -59.5t-71 -141.5v-565z" />
<glyph unicode="R" horiz-adv-x="1148" d="M193 43v1163q0 23 17 40.5t40 17.5h424q130 0 222.5 -92.5t92.5 -223.5v-88q0 -114 -70 -199.5t-178 -109.5l260 -496q10 -19 0.5 -37t-30.5 -18h-97q-42 0 -63 41l-254 502h-178v-500q0 -19 -11 -31t-30 -12h-102q-18 0 -30.5 12.5t-12.5 30.5zM379 715h295 q57 0 100 43.5t43 101.5v88q0 57 -43 100.5t-100 43.5h-295v-377z" />
<glyph unicode="S" horiz-adv-x="1128" d="M154 967q9 135 117.5 226t260.5 91q151 0 332 -72q39 -15 39 -46q0 -10 -4 -21l-20 -58q-12 -33 -39 -33q-10 0 -23 5q-150 61 -262 61q-92 0 -153.5 -46t-65.5 -122v-10q0 -66 52 -113q56 -51 194 -102q234 -87 318 -188q73 -88 72 -205q0 -18 -1 -37 q-12 -138 -123.5 -227.5t-269.5 -89.5q-161 0 -345 71q-40 14 -40 46q0 10 4 22l22 57q12 34 40 34q10 0 22 -5q163 -62 272 -62q94 0 159 46.5t74 121.5q1 12 1 23q0 69 -52 116q-61 54 -213 107q-216 75 -297 173q-72 87 -72 207q0 15 1 30z" />
<glyph unicode="T" horiz-adv-x="1157" d="M170 1133v88q0 19 12 31t31 12h715q19 0 31 -12t12 -31v-88q0 -19 -12 -31t-31 -12h-269v-1047q0 -20 -12 -31.5t-31 -11.5h-100q-19 0 -31 12t-12 31v1047h-260q-19 0 -31 12t-12 31zM928 -670z" />
<glyph unicode="U" horiz-adv-x="1245" d="M193 356v865q0 19 12 31t31 12h100q19 0 31 -11.5t12 -31.5v-871q0 -83 71 -143t166 -60t166.5 60t71.5 143v871q0 19 12 31t31 12h100q19 0 31 -11.5t12 -31.5v-865q0 -158 -124.5 -270.5t-299.5 -112.5t-299 112.5t-124 270.5z" />
<glyph unicode="V" horiz-adv-x="1204" d="M172 1212q-6 23 3.5 37.5t33.5 14.5h100q42 0 53 -41l230 -971h8l229 971q11 41 54 41h100q24 0 33.5 -14.5t3.5 -37.5l-311 -1163q-12 -49 -66 -49h-94q-54 0 -66 49z" />
<glyph unicode="W" horiz-adv-x="1294" d="M172 1217q-2 20 8.5 33.5t32.5 13.5h92q42 0 45 -41l68 -947l125 390q11 39 55 39h86q44 0 55 -39l125 -390l68 947q3 41 45 41h92q22 0 32.5 -13.5t8.5 -33.5l-106 -1156q-3 -30 -23 -45.5t-47 -15.5h-131l-156 453h-12l-154 -453h-131q-27 0 -46.5 15.5t-22.5 45.5z " />
<glyph unicode="X" horiz-adv-x="1200" d="M153.5 67q-3.5 18 6.5 31l327 535l-327 534q-10 13 -6.5 31.5t20.5 28.5l74 49q13 9 31.5 6t27.5 -18l287 -467l287 467q9 15 27.5 18t31.5 -6l74 -49q17 -10 20.5 -28.5t-6.5 -31.5l-328 -534l328 -535q10 -13 6.5 -31t-20.5 -28l-74 -49q-13 -9 -31.5 -6t-27.5 18 l-287 467l-287 -467q-9 -15 -27.5 -18t-31.5 6l-74 49q-17 10 -20.5 28z" />
<glyph unicode="Y" horiz-adv-x="1183" d="M155.5 1196.5q2.5 17.5 14.5 26.5l74 57q15 10 33.5 7t27.5 -17l283 -418l280 418q9 14 28 17t34 -7l74 -57q12 -9 14.5 -26.5t-6.5 -29.5l-332 -485v-639q0 -19 -11 -31t-30 -12h-102q-18 0 -30.5 12.5t-12.5 30.5v639l-332 485q-9 12 -6.5 29.5z" />
<glyph unicode="Z" horiz-adv-x="1136" d="M182 57v58l563 977h-489q-19 0 -31 12t-12 31v86q0 19 12 31t31 12h664q25 0 41 -16.5t16 -41.5v-57l-563 -975h493q19 0 31 -12t12 -31v-88q0 -19 -12 -31t-31 -12h-667q-25 0 -41.5 16t-16.5 41z" />
<glyph unicode="[" horiz-adv-x="649" d="M190 -39v1329q0 23 17.5 40.5t40.5 17.5h168q14 0 24.5 -11t10.5 -24v-72q0 -13 -10.5 -24t-24.5 -11h-43v-1161h43q14 0 24.5 -10.5t10.5 -24.5v-71q0 -13 -10.5 -24t-24.5 -11h-168q-23 0 -40.5 17t-17.5 40z" />
<glyph unicode="\" horiz-adv-x="1200" d="M209 1276q5 16 20 24l84 43q15 8 33 3.5t25 -21.5l612 -1247q9 -19 4 -36t-24 -26l-80 -39q-41 -20 -60 17l-612 1249q-7 17 -2 33z" />
<glyph unicode="]" horiz-adv-x="649" d="M190 10q0 14 11 24.5t24 10.5h43v1161h-43q-13 0 -24 11t-11 24v72q0 13 11 24t24 11h168q23 0 40.5 -17.5t17.5 -40.5v-1329q0 -23 -17.5 -40t-40.5 -17h-168q-13 0 -24 11t-11 24v71z" />
<glyph unicode="^" horiz-adv-x="788" d="M27 436l315 701h109l317 -701h-119l-252 568l-252 -568h-118z" />
<glyph unicode="_" horiz-adv-x="1105" d="M154 45v80q0 20 12.5 33.5t32.5 13.5h694q16 0 30.5 -14t14.5 -33v-80q0 -18 -14.5 -31.5t-30.5 -13.5h-694q-20 0 -32.5 13t-12.5 32z" />
<glyph unicode="`" horiz-adv-x="772" d="M212.5 1482.5q9.5 18.5 35.5 18.5h137q27 0 38 -8t23 -35l132 -282q18 -44 -19 -62l-41 -20q-23 -11 -36.5 -8t-26.5 22l-238 336q-14 20 -4.5 38.5z" />
<glyph unicode="a" horiz-adv-x="1110" d="M137 274v14q0 94 51 164q55 74 146 110t205 36h204v53q0 54 -12.5 86t-43.5 47.5t-67.5 20t-101.5 4.5h-170q-20 2 -32.5 14.5t-12.5 32.5v62q0 20 12.5 32.5t32.5 14.5q96 8 201 8q102 0 168 -15t114.5 -56.5t69.5 -115t21 -188.5v-555q0 -19 -13 -31t-32 -12h-72 q-25 0 -31 27l-12 47q-122 -92 -283 -92q-140 0 -238 75t-104 217zM309 279q4 -70 53 -104t123 -34q69 0 142.5 28.5t117.5 72.5v207h-204q-114 0 -176 -44q-57 -40 -56 -112q-1 -7 0 -14z" />
<glyph unicode="b" horiz-adv-x="1136" d="M195 43v1288q0 19 12 31t31 12h98q19 0 31 -12t12 -31v-405q94 57 217 57q163 0 277 -109t114 -264v-256q0 -155 -114 -264.5t-277 -109.5q-70 0 -132.5 24.5t-101.5 69.5l-12 -47q-7 -27 -31 -27h-81q-19 0 -31 12t-12 31zM375 336q5 -79 67 -135t148 -56 q88 0 152.5 59.5t64.5 139.5v274q0 83 -64.5 141t-152.5 58q-86 0 -148 -55t-67 -135v-291z" />
<glyph unicode="c" horiz-adv-x="997" d="M133 348v262q0 155 114 264t277 109q82 0 168 -39.5t148 -124.5q13 -17 10 -38t-21 -36l-41 -34q-13 -13 -35 -11.5t-36 21.5q-31 42 -81 67t-104 25q-87 0 -151 -59t-64 -142v-266q0 -81 64 -141t151 -60q54 0 104 25t81 66q14 20 36 21.5t35 -11.5l41 -35 q18 -15 21 -36t-10 -38q-62 -85 -148 -124.5t-168 -39.5q-163 0 -277 110t-114 265z" />
<glyph unicode="d" horiz-adv-x="1136" d="M133 354v256q0 155 114 264t277 109q123 0 217 -57v405q0 19 12 31t31 12h99q19 0 31 -12t12 -31v-1288q0 -19 -12 -31t-31 -12h-82q-24 0 -31 27l-12 47q-39 -45 -101.5 -69.5t-132.5 -24.5q-163 0 -277 109.5t-114 264.5zM313 344q0 -80 64.5 -139.5t152.5 -59.5 q86 0 148 56t67 135v291q-5 80 -67 135t-148 55q-88 0 -152.5 -58t-64.5 -141v-274z" />
<glyph unicode="e" horiz-adv-x="1085" d="M164 385v223q0 157 111.5 266t269.5 109q163 0 278 -109.5t115 -265.5v-108q0 -35 -25.5 -60.5t-60.5 -25.5h-516v-45q0 -48 8.5 -82t30.5 -58t49.5 -38t76 -22t100 -10.5t130.5 -2.5q20 0 32.5 -13.5t12.5 -33.5v-62q0 -20 -12.5 -33.5t-32.5 -13.5h-76q-95 0 -162 7 t-133.5 30.5t-106.5 65t-64.5 112t-24.5 170.5zM338 569h424v52q0 83 -62.5 141.5t-150.5 58.5q-87 0 -149 -58.5t-62 -141.5v-52z" />
<glyph unicode="f" horiz-adv-x="1064" d="M154 45v76q0 20 12 31.5t31 11.5h129v637h-129q-19 0 -31 12t-12 31v78q0 19 12 31t31 12h129v34q0 71 13 127t35.5 95t59 67t75.5 44.5t94.5 26t106 12.5t119.5 3h60q20 0 34.5 -14.5t14.5 -34.5v-65q0 -20 -14.5 -35t-34.5 -15q-53 0 -83 -0.5t-69.5 -2t-60.5 -5 t-48.5 -9.5t-40.5 -15t-29.5 -23t-23 -31.5t-13.5 -41t-9 -52.5v-37v-28h287q19 0 31 -12t12 -31v-78q0 -19 -12 -31t-31 -12h-287v-637h287q19 0 31 -11.5t12 -31.5v-76q0 -19 -12 -32t-31 -13h-602q-19 0 -31 13t-12 32z" />
<glyph unicode="g" d="M133 354v256q0 155 114 265t277 110q70 0 132.5 -24.5t101.5 -69.5l12 47q1 12 10 19.5t21 7.5h78q19 0 32 -12t13 -31v-953q0 -81 -16.5 -142.5t-50.5 -102t-76 -67t-102.5 -40t-120 -18.5t-138.5 -5h-60q-20 0 -34.5 15t-14.5 35v65q0 20 14.5 34.5t34.5 14.5 q81 0 132 2.5t100.5 10.5t77 22.5t49.5 40.5t30.5 62.5t8.5 89.5v84q-85 -88 -234 -88q-163 0 -277 108.5t-114 263.5zM315 346q0 -83 63 -141t150 -58q84 0 145 55.5t66 135.5v291q-5 79 -66 134.5t-145 55.5q-86 0 -149.5 -59t-63.5 -139v-275z" />
<glyph unicode="h" horiz-adv-x="1128" d="M182 43v1288q0 19 12 31t31 12h107q19 0 31 -12.5t12 -32.5v-428q145 82 299 82q65 0 119 -20t96.5 -62.5t66 -115t23.5 -169.5v-571q0 -20 -12 -32.5t-31 -12.5h-100q-19 0 -31 12t-12 31v610q0 154 -146 154q-124 0 -272 -86v-676q0 -20 -12 -32.5t-31 -12.5h-107 q-19 0 -31 12t-12 31z" />
<glyph unicode="i" horiz-adv-x="1103" d="M154 45v76q0 20 12 31.5t31 11.5h258v637h-121q-19 0 -31 13t-12 32v76q0 20 12 31.5t31 11.5h225q32 0 55 -23t23 -55v-723h254q19 0 31 -11.5t12 -31.5v-76q0 -19 -12 -32t-31 -13h-694q-19 0 -31 13t-12 32zM360 1264q0 58 41.5 99.5t100.5 41.5q58 0 99.5 -41.5 t41.5 -99.5q0 -59 -41.5 -100.5t-99.5 -41.5t-100 42t-42 100z" />
<glyph unicode="j" horiz-adv-x="1075" d="M143 -291q0 20 15 34.5t35 14.5q87 0 138.5 2.5t99.5 12t71 25t41 45t23 68.5t5 99v791h-374q-19 0 -31 13t-12 32v76q0 20 12 31.5t31 11.5h667q19 0 31 -11.5t12 -31.5v-76q0 -19 -12 -32t-31 -13h-108v-836q0 -69 -13 -123.5t-36 -93t-59 -66.5t-76 -45t-94.5 -26.5 t-106.5 -13t-119 -3.5h-59q-20 0 -35 15t-15 35v65zM508 1264q0 58 42 99.5t99 41.5q59 0 100.5 -41.5t41.5 -99.5t-41.5 -100t-100.5 -42q-57 0 -99 42t-42 100z" />
<glyph unicode="k" horiz-adv-x="1107" d="M199 43v1288q0 19 12 31t31 12h94q19 0 31 -12t12 -31v-741l387 381q14 13 32.5 12.5t30.5 -14.5l60 -60q13 -15 13 -30q0 -16 -15 -33l-232 -236l324 -551q11 -17 0.5 -38t-33.5 -21h-104q-43 0 -64 41l-252 440l-147 -135v-303q0 -19 -12 -31t-31 -12h-94q-19 0 -31 12 t-12 31z" />
<glyph unicode="l" horiz-adv-x="1103" d="M154 45v76q0 20 12 31.5t31 11.5h258v1046h-121q-19 0 -31 13t-12 32v76q0 20 12 31.5t31 11.5h225q32 0 55 -23t23 -55v-1132h254q19 0 31 -11.5t12 -31.5v-76q0 -19 -12 -32t-31 -13h-694q-19 0 -31 13t-12 32z" />
<glyph unicode="m" horiz-adv-x="1304" d="M195 43v879q0 19 12 31t31 12h94q12 0 20 -7.5t10 -19.5l7 -33q106 70 198 70q94 0 148 -76q120 76 227 76q84 0 136 -54t52 -167v-709q0 -20 -12 -32.5t-31 -12.5h-100q-19 0 -31 12t-12 31v698q0 76 -74 76q-53 0 -112 -35v-737q0 -20 -12 -32.5t-31 -12.5h-90 q-19 0 -31 12t-12 31v698q0 74 -74 74q-48 0 -129 -39v-731q0 -20 -12 -32.5t-31 -12.5h-98q-19 0 -31 12t-12 31z" />
<glyph unicode="n" horiz-adv-x="1148" d="M184 43v879q0 19 12 31t31 12h97q31 0 36 -27l13 -57q172 94 321 94q130 0 207.5 -86.5t77.5 -274.5v-569q0 -20 -12 -32.5t-31 -12.5h-100q-19 0 -31 12t-12 31v602q0 156 -144 156q-120 0 -272 -90v-666q0 -20 -12 -32.5t-31 -12.5h-107q-19 0 -31 12t-12 31z" />
<glyph unicode="o" d="M164 354v256q0 156 115.5 264.5t283.5 108.5q163 0 277 -109t114 -264v-256q0 -155 -114 -264.5t-277 -109.5q-168 0 -283.5 109t-115.5 265zM348 344q0 -80 62.5 -139.5t148.5 -59.5t149.5 59.5t63.5 139.5v274q0 81 -63 140t-150 59q-86 0 -148.5 -58.5t-62.5 -140.5 v-274z" />
<glyph unicode="p" horiz-adv-x="1136" d="M195 -367v1289q0 19 12 31t31 12h88q12 0 20 -7.5t10 -19.5l6 -47q39 45 101.5 69.5t132.5 24.5q163 0 277 -110t114 -265v-256q0 -155 -114 -263.5t-277 -108.5q-123 0 -217 57v-406q0 -19 -12 -31t-31 -12h-98q-19 0 -31 12t-12 31zM375 338q5 -80 67 -135.5t148 -55.5 q88 0 152.5 58t64.5 141v275q0 80 -64.5 139t-152.5 59q-86 0 -148 -55.5t-67 -134.5v-291z" />
<glyph unicode="q" horiz-adv-x="1157" d="M154 354v256q0 155 114 265t277 110q70 0 132 -24.5t101 -69.5l6 47q1 12 10 19.5t21 7.5h88q19 0 31 -12t12 -31v-1289q0 -19 -12 -31t-31 -12h-98q-19 0 -31 12t-12 31v406q-94 -57 -217 -57q-163 0 -277 108.5t-114 263.5zM334 346q0 -83 64.5 -141t152.5 -58 q86 0 148 55.5t67 135.5v291q-5 79 -67 134.5t-148 55.5q-88 0 -152.5 -59t-64.5 -139v-275z" />
<glyph unicode="r" horiz-adv-x="1062" d="M154 45v76q0 20 12 31.5t31 11.5h129v637h-129q-19 0 -31 13t-12 32v76q0 20 12 31.5t31 11.5h237q27 0 43.5 -16.5t16.5 -43.5v-121q56 92 146 136.5t198 44.5h45q23 0 37 -12.5t14 -32.5v-76q0 -27 -11.5 -39t-39.5 -12h-27q-51 0 -95 -9t-80.5 -29.5t-62 -37.5 t-52.5 -48t-38.5 -45.5t-33.5 -45.5v-414h237q19 0 31 -11.5t12 -31.5v-76q0 -19 -12 -32t-31 -13h-534q-19 0 -31 13t-12 32z" />
<glyph unicode="s" horiz-adv-x="1118" d="M154 735q14 115 110.5 182.5t261.5 67.5q154 0 330 -55q34 -10 34 -40q0 -6 -1 -13l-15 -62q-7 -31 -37 -31q-11 0 -24 4q-174 46 -281 46q-182 0 -200 -111q-5 -31 8 -54.5t47 -43t75 -34t107 -32.5q226 -59 309 -135q73 -67 73 -171q0 -14 -1 -28q-11 -114 -113 -182 t-274 -68q-157 0 -342 56q-36 10 -36 41q0 6 1 12l15 61q6 31 40 31q8 0 17 -2q224 -43 295 -43q92 0 150 26.5t67 80.5q1 9 1 17q0 45 -48 75q-57 34 -191 71q-220 60 -306 138q-74 67 -74 164q0 15 2 32z" />
<glyph unicode="t" horiz-adv-x="1032" d="M133 844v76q0 19 12 32t31 13h119v366q0 19 12 31t31 12h98q19 0 31 -12t12 -31v-366h287q19 0 31 -13t12 -32v-76q0 -20 -12 -31.5t-31 -11.5h-287v-414q0 -33 2.5 -59t10 -47.5t15 -37.5t24 -28.5t30 -20.5t40 -14t48 -9t59.5 -4.5t67.5 -2t80.5 -0.5q20 0 34.5 -14.5 t14.5 -34.5v-66q0 -20 -14.5 -34.5t-34.5 -14.5h-59q-54 0 -93 1t-85.5 5.5t-79.5 12.5t-69 21.5t-60.5 32.5t-48 47t-37 64t-21.5 83t-8 104v430h-119q-19 0 -31 11.5t-12 31.5z" />
<glyph unicode="u" horiz-adv-x="1148" d="M145 348v572q0 20 12 32.5t31 12.5h101q19 0 31 -12t12 -31v-603q0 -155 139 -155q61 0 137 27t140 65v664q0 20 12 32.5t31 12.5h106q19 0 31 -12t12 -31v-879q0 -19 -12 -31t-31 -12h-96q-12 0 -21 7.5t-10 19.5l-12 57q-175 -98 -324 -98q-132 0 -210.5 87.5 t-78.5 274.5z" />
<glyph unicode="v" horiz-adv-x="1058" d="M115 913q-8 22 2.5 37t34.5 15h100q42 0 53 -41l211 -672h8l211 672q11 41 53 41h101q24 0 34.5 -15t2.5 -37l-314 -884q-10 -29 -41 -29h-98q-31 0 -41 29z" />
<glyph unicode="w" horiz-adv-x="1191" d="M166 913q-5 23 6 37.5t35 14.5h92q45 0 49 -41l90 -602h8l74 200q10 29 41 29h53q31 0 41 -29l74 -200h8l90 602q4 41 50 41h92q24 0 35 -14.5t6 -37.5l-172 -874q-8 -39 -47 -39h-99l-100 317h-8l-103 -317h-96q-39 0 -47 39z" />
<glyph unicode="x" horiz-adv-x="1097" d="M158 76l282 442l-229 359q-10 17 -10 30q0 18 18 31l70 49q17 12 34.5 9.5t26.5 -17.5l172 -270l21 -37l20 37l172 270q9 15 27 17.5t35 -9.5l69 -49q18 -13 18 -31q0 -14 -10 -30l-229 -359l283 -442q10 -17 10 -31q0 -18 -18 -31l-70 -49q-17 -12 -35 -9.5t-27 17.5 l-225 353l-20 36l-21 -36l-225 -353q-14 -19 -31 -19q-14 0 -30 11l-70 49q-18 13 -18 31q0 14 10 31z" />
<glyph unicode="y" horiz-adv-x="1159" d="M145 348v572q0 20 12 32.5t31 12.5h101q19 0 31 -12t12 -31v-603q0 -157 135 -157q61 0 140 29.5t147 72.5v656q0 45 37 45h106q19 0 31 -12t12 -31v-953q0 -81 -16.5 -142.5t-50.5 -102t-76 -67t-102.5 -40t-120 -18.5t-138.5 -5h-59q-20 0 -34.5 15t-14.5 35v65 q0 20 14.5 34.5t34.5 14.5q72 0 118 2t92 7.5t72.5 17t50.5 29t35.5 45.5t18 64.5t6.5 86.5v84q-163 -108 -336 -108q-132 0 -210.5 90t-78.5 272z" />
<glyph unicode="z" horiz-adv-x="1124" d="M168 70v63l539 668h-469q-19 0 -31 12t-12 31v78q0 19 12 31t31 12h630q29 0 49.5 -20.5t20.5 -49.5v-61l-543 -670h473q19 0 31 -12t12 -31v-78q0 -19 -12 -31t-31 -12h-630q-29 0 -49.5 20.5t-20.5 49.5z" />
<glyph unicode="{" horiz-adv-x="649" d="M190 -39v1329q0 23 17.5 40.5t40.5 17.5h168q14 0 24.5 -11t10.5 -24v-72q0 -13 -10.5 -24t-24.5 -11h-43v-1161h43q14 0 24.5 -10.5t10.5 -24.5v-71q0 -13 -10.5 -24t-24.5 -11h-168q-23 0 -40.5 17t-17.5 40z" />
<glyph unicode="|" horiz-adv-x="505" d="M160 -49v1354q0 20 12 31.5t27 11.5h102q16 0 27.5 -11t11.5 -32v-1354q0 -21 -11.5 -32t-27.5 -11h-102q-15 0 -27 11.5t-12 31.5z" />
<glyph unicode="}" horiz-adv-x="649" d="M190 10q0 14 11 24.5t24 10.5h43v1161h-43q-13 0 -24 11t-11 24v72q0 13 11 24t24 11h168q23 0 40.5 -17.5t17.5 -40.5v-1329q0 -23 -17.5 -40t-40.5 -17h-168q-13 0 -24 11t-11 24v71z" />
<glyph unicode="~" horiz-adv-x="1011" d="M192 453q-3 11 3 24q24 65 70 105.5t114 40.5q46 0 126.5 -33t119.5 -33q47 0 75 49q15 25 43 10l41 -20q19 -8 22 -19t-3 -24q-24 -65 -70.5 -105t-114.5 -40q-43 0 -122 32.5t-123 32.5q-48 0 -76 -49q-15 -25 -43 -10l-41 20q-18 8 -21 19z" />
<glyph unicode="&#xa1;" horiz-adv-x="659" d="M197 674q0 56 39.5 95.5t95.5 39.5t95.5 -39.5t39.5 -95.5t-40 -96.5t-95 -40.5t-95 40.5t-40 96.5zM211 -313l33 675q2 34 25.5 58t58.5 24q34 0 58 -24t26 -58l30 -675q3 -58 -28.5 -93.5t-85.5 -35.5t-87 35.5t-30 93.5z" />
<glyph unicode="&#xa2;" horiz-adv-x="997" d="M86.5 -103.5q-5.5 16.5 3.5 35.5l105 213q-62 91 -62 203v262q0 155 114 264t277 109q39 0 78 -8l100 205q7 17 25 21.5t33 -3.5l84 -43q15 -8 20 -24t-2 -33l-98 -201q40 -30 76 -78q13 -17 10 -38t-21 -36l-41 -34q-13 -13 -35 -11.5t-36 21.5l-27 29l-278 -570 q53 -35 120 -35q54 0 104 25t81 66q14 20 36 21.5t35 -11.5l41 -35q18 -15 21 -36t-10 -38q-62 -85 -148 -124.5t-168 -39.5q-101 0 -190 47l-84 -172q-7 -17 -24 -21t-36 5l-79 39q-19 9 -24.5 25.5zM317 395l205 418q-84 -5 -144.5 -63.5t-60.5 -137.5v-217z" />
<glyph unicode="&#xa3;" horiz-adv-x="1245" d="M195 674v86q0 19 12 31t31 12h51v80q0 69 13 124.5t35.5 94t59 67t76.5 45.5t94.5 26.5t106.5 13t119 3.5h59q20 0 34.5 -14.5t14.5 -34.5v-65q0 -20 -14.5 -34.5t-34.5 -14.5q-70 0 -102 -0.5t-80.5 -3.5t-67.5 -9t-48 -18t-38.5 -29t-22 -43.5t-15.5 -61t-3 -81.5v-45 h287q19 0 31 -12t12 -31v-86q0 -19 -12 -31t-31 -12h-287v-449h516q19 0 31 -12t12 -31v-96q0 -19 -12 -31t-31 -12h-643q-23 0 -40 17t-17 40v574h-53q-19 0 -31 12t-12 31z" />
<glyph unicode="&#xa4;" horiz-adv-x="1024" d="M27 254l143 143q-100 115 -100 283q0 159 100 283l-143 141l57 57l145 -141q51 44 131 72t154 28q72 0 147.5 -26t133.5 -74l143 141l57 -57l-143 -141q102 -132 102 -281q0 -153 -102 -285l143 -143l-57 -55l-143 143q-134 -104 -271 -104q-87 0 -171.5 30.5 t-123.5 73.5l-145 -143zM150 678q0 -148 106 -254q107 -107 256 -107q147 0 254 107q108 108 108 256q4 90 -48 176.5t-138 138t-176 45.5q-152 0 -258 -106q-104 -107 -104 -256z" />
<glyph unicode="&#xa5;" horiz-adv-x="1183" d="M155.5 1196.5q2.5 17.5 14.5 26.5l74 57q15 10 33.5 7t27.5 -17l283 -418l280 418q9 14 28 17t34 -7l74 -57q12 -9 14.5 -26.5t-6.5 -29.5l-219 -319h81q19 0 31.5 -12t12.5 -31v-76q0 -19 -12.5 -31t-31.5 -12h-194v-121h194q19 0 31.5 -12t12.5 -31v-76 q0 -19 -12.5 -31t-31.5 -12h-194v-360q0 -19 -11 -31t-30 -12h-102q-18 0 -30.5 12.5t-12.5 30.5v360h-187q-19 0 -31 12t-12 31v76q0 19 12 31t31 12h187v121h-187q-19 0 -31 12t-12 31v76q0 19 12 31t31 12h72l-217 319q-9 12 -6.5 29.5z" />
<glyph unicode="&#xa6;" horiz-adv-x="505" d="M174 -66v605q0 13 8.5 20.5t18.5 7.5h104q11 0 19 -7.5t8 -20.5v-605q0 -13 -8 -20.5t-19 -7.5h-104q-10 0 -18.5 7.5t-8.5 20.5zM174 723v604q0 13 8.5 21t18.5 8h104q11 0 19 -8t8 -21v-604q0 -13 -8 -21t-19 -8h-104q-10 0 -18.5 8t-8.5 21z" />
<glyph unicode="&#xa7;" horiz-adv-x="1159" d="M172 307q16 128 127 193q-77 46 -106.5 103t-20.5 132q14 115 110 182.5t261 67.5q153 0 329 -55q41 -12 33 -53l-14 -62q-9 -42 -62 -27q-162 43 -280 43q-184 0 -201 -110q-10 -58 47.5 -93t190.5 -71q221 -61 306 -137.5t71 -194.5q-16 -128 -129 -192 q147 -86 129 -236q-14 -115 -113 -182.5t-270 -67.5q-157 0 -342 56q-43 12 -35 53l14 61q8 38 57 29q213 -41 295 -41q92 0 150 26.5t67 80.5q10 58 -46.5 92.5t-190.5 70.5q-221 61 -306 137.5t-71 194.5zM348 293q-10 -57 43.5 -91.5t177.5 -68.5q92 0 150 26.5t67 80.5 q10 58 -46.5 92.5t-190.5 70.5q-184 0 -201 -110z" />
<glyph unicode="&#xa8;" horiz-adv-x="1067" d="M195 1264q0 58 41.5 99.5t99.5 41.5t99.5 -41.5t41.5 -99.5q0 -59 -41.5 -100.5t-99.5 -41.5t-99.5 41.5t-41.5 100.5zM594 1264q0 58 41 99.5t100 41.5t100.5 -41.5t41.5 -99.5t-41.5 -100t-100.5 -42q-58 0 -99.5 41.5t-41.5 100.5z" />
<glyph unicode="&#xa9;" horiz-adv-x="1155" d="M176 717q0 164 115.5 279.5t279.5 115.5t280 -115.5t116 -279.5t-116 -279.5t-280 -115.5t-279.5 115.5t-115.5 279.5zM266 717q0 -126 89.5 -215.5t215.5 -89.5q127 0 216.5 89.5t89.5 215.5t-89.5 215.5t-216.5 89.5q-126 0 -215.5 -89.5t-89.5 -215.5zM399 633v170 q0 63 50.5 107t119.5 44q85 0 136 -67q6 -6 5 -15.5t-10 -15.5l-12 -10q-18 -15 -33 0q-37 37 -84 37q-37 0 -66.5 -24t-29.5 -56v-172q0 -32 29.5 -56t66.5 -24q47 0 84 37q15 15 33 0l12 -10q9 -6 10 -15.5t-5 -15.5q-52 -68 -136 -68q-69 0 -119.5 45.5t-50.5 108.5z" />
<glyph unicode="&#xaa;" horiz-adv-x="839" d="M197 999q-3 84 60.5 130.5t160.5 46.5h112v30q0 56 -26 71t-96 15h-95q-11 2 -17.5 9.5t-6.5 17.5v33q0 23 24 26q39 4 111 4q112 0 158.5 -42t46.5 -164v-306q0 -9 -8 -15.5t-17 -6.5h-43q-16 0 -16 14l-4 27q-66 -51 -156 -51q-77 0 -131 41t-57 120zM291 999 q5 -75 98 -75q39 0 78.5 15t64.5 40v113h-112q-63 0 -97.5 -24.5t-31.5 -68.5z" />
<glyph unicode="&#xab;" horiz-adv-x="1302" d="M205 494q0 48 31 79l331 332q26 26 56 0l53 -53q23 -26 -2 -55l-295 -297v-13l295 -299q11 -11 11.5 -26t-9.5 -27l-53 -53q-30 -26 -56 0l-331 332q-31 31 -31 80zM616 494q0 48 31 79l332 332q26 26 55 0l53 -53q23 -26 -2 -55l-294 -297v-13l294 -299q11 -11 11.5 -26 t-9.5 -27l-53 -53q-29 -26 -55 0l-332 332q-31 31 -31 80z" />
<glyph unicode="&#xac;" horiz-adv-x="1155" d="M37 797v82h1077v-408h-80v326h-997z" />
<glyph unicode="&#xad;" d="M205 461v96q0 17 12 29t31 12h637q16 0 28.5 -12t12.5 -29v-96q0 -17 -12.5 -29t-28.5 -12h-637q-19 0 -31 12t-12 29z" />
<glyph unicode="&#xae;" horiz-adv-x="1155" d="M182 717q0 164 116 279.5t280 115.5t279.5 -115.5t115.5 -279.5t-115.5 -279.5t-279.5 -115.5t-280 115.5t-116 279.5zM272 717q0 -126 90 -215.5t216 -89.5q127 0 216 89.5t89 215.5t-89 215.5t-216 89.5q-126 0 -216 -89.5t-90 -215.5zM444 508v412q0 7 6.5 13.5 t14.5 6.5h153q46 0 79.5 -34.5t33.5 -80.5v-30q0 -41 -25 -72.5t-65 -38.5l94 -172q3 -7 -0.5 -13.5t-13.5 -6.5h-31q-12 0 -22 16l-93 172h-63v-172q0 -6 -4 -11t-10 -5h-37q-6 0 -11.5 5t-5.5 11zM512 741h106q20 0 36 16t16 38v30q0 20 -16 36t-36 16h-106v-136z" />
<glyph unicode="&#xaf;" horiz-adv-x="1024" d="M-16 1462v84h1058v-84h-1058z" />
<glyph unicode="&#xb0;" horiz-adv-x="819" d="M190 1186q0 86 62.5 149.5t150.5 63.5t150.5 -63.5t62.5 -149.5q0 -90 -61.5 -151.5t-151.5 -61.5t-151.5 61.5t-61.5 151.5zM315 1186q0 -38 25.5 -64t62.5 -26q38 0 64.5 26t26.5 64q0 37 -26.5 63.5t-64.5 26.5q-37 0 -62.5 -26.5t-25.5 -63.5z" />
<glyph unicode="&#xb1;" horiz-adv-x="1157" d="M197 31v90q0 10 8.5 19.5t21.5 9.5h693q13 0 21.5 -9.5t8.5 -19.5v-90q0 -12 -8.5 -20.5t-21.5 -8.5l-693 -2q-13 0 -21.5 9.5t-8.5 21.5zM197 569v93q0 8 8.5 17t21.5 9h271v281q0 28 28 28h90q10 0 19.5 -8t9.5 -20v-281h275q12 0 21 -9t9 -17v-93q0 -11 -8.5 -18.5 t-21.5 -7.5h-275v-275q0 -13 -9.5 -21.5t-19.5 -8.5h-90q-12 0 -20 8.5t-8 21.5v273h-271q-13 0 -21.5 8.5t-8.5 19.5z" />
<glyph unicode="&#xb2;" horiz-adv-x="714" d="M211 610v56l162 174q36 39 49.5 61t13.5 43q0 32 -18 54.5t-47 25.5q-32 3 -60 -16t-37 -47q-6 -18 -22 -13l-27 8q-28 8 -12 41q20 42 61 65t88 23q63 0 105.5 -40.5t42.5 -100.5q0 -19 -2.5 -31.5t-21.5 -42t-56 -65.5l-141 -139h160v16q0 14 16 14h24q15 0 15 -14v-70 q0 -14 -15 -14h-264q-14 0 -14 12z" />
<glyph unicode="&#xb3;" horiz-adv-x="712" d="M211 678q-11 34 12 41l29 8q16 5 22 -12q9 -31 34 -50t57 -16q31 3 51 24.5t20 55.5q0 35 -23 60.5t-55 25.5q-14 0 -14 14v31q0 14 14 14q30 0 52 22t22 54q1 34 -18 55.5t-49 24.5q-31 3 -54 -15.5t-32 -49.5q-6 -18 -23 -13l-25 9q-16 5 -17 18.5t5 21.5 q18 44 57 66.5t86 22.5q60 0 100 -40t40 -100q0 -68 -64 -102q32 -17 51 -49.5t19 -69.5q0 -59 -41.5 -99t-104.5 -40q-49 0 -91 22.5t-60 65.5z" />
<glyph unicode="&#xb4;" horiz-adv-x="772" d="M190 1176l132 282q12 27 23 35t38 8h137q26 0 35.5 -18.5t-4.5 -38.5l-238 -336q-13 -19 -26.5 -22t-36.5 8l-41 20q-37 18 -19 62z" />
<glyph unicode="&#xb5;" horiz-adv-x="1189" d="M188 -334v1254q0 20 12 32.5t31 12.5h101q19 0 31 -12t12 -31v-603q0 -155 139 -155q61 0 137 27t140 65v664q0 20 12 32.5t31 12.5h106q19 0 31 -12t12 -31v-879q0 -19 -12 -31t-31 -12h-96q-12 0 -21 7.5t-10 19.5l-12 57q-178 -96 -299 -96q-68 0 -127 22v-346 q0 -19 -12 -31t-31 -12h-101q-19 0 -31 12.5t-12 32.5z" />
<glyph unicode="&#xb6;" horiz-adv-x="792" d="M-12 840q0 189 170 278q84 41 215 41h424v-47h-115v-1491h-61v1491h-160v-1491h-62v893q-132 6 -209 31q-105 33 -159 125q-43 76 -43 170z" />
<glyph unicode="&#xb7;" horiz-adv-x="512" d="M145 678q0 47 32 78.5t79 31.5t79 -31.5t32 -78.5t-32 -79t-79 -32q-44 0 -77.5 33.5t-33.5 77.5z" />
<glyph unicode="&#xb8;" horiz-adv-x="772" d="M200.5 -319.5q-9.5 18.5 4.5 38.5l237 336q14 19 27.5 22t36.5 -7l41 -21q36 -17 18 -61l-131 -283q-12 -27 -23 -35t-38 -8h-137q-26 0 -35.5 18.5z" />
<glyph unicode="&#xb9;" horiz-adv-x="700" d="M205 612v41q0 13 14 13h100v342l-71 -29q-15 -4 -19 8l-12 43q-3 9 6 14l113 41q23 8 38 -1t15 -25v-393h92q15 0 15 -13v-41q0 -14 -15 -14h-262q-14 0 -14 14z" />
<glyph unicode="&#xba;" horiz-adv-x="843" d="M199 1044v142q0 85 63.5 145t155.5 60q89 0 152 -60t63 -145v-142q0 -86 -63 -146t-152 -60q-92 0 -155.5 60t-63.5 146zM299 1038q0 -43 35 -75.5t82 -32.5t81.5 32.5t34.5 75.5v152q0 44 -34.5 76t-81.5 32t-82 -32t-35 -76v-152z" />
<glyph unicode="&#xbb;" horiz-adv-x="1302" d="M209.5 162q0.5 15 11.5 26l295 299v13l-295 297q-25 29 -2 55l53 53q30 26 56 0l331 -332q31 -31 31 -79q0 -49 -31 -80l-331 -332q-26 -26 -56 0l-53 53q-10 12 -9.5 27zM621.5 162q0.5 15 11.5 26l295 299v13l-295 297q-25 29 -2 55l53 53q29 26 55 0l332 -332 q31 -31 31 -79q0 -49 -31 -80l-332 -332q-26 -26 -55 0l-53 53q-10 12 -9.5 27z" />
<glyph unicode="&#xbc;" horiz-adv-x="1142" d="M205 612v41q0 13 14 13h100v342l-71 -29q-15 -4 -19 8l-12 43q-3 9 6 14l113 41q23 8 38 -1t15 -25v-393h92q15 0 15 -13v-41q0 -14 -15 -14h-262q-14 0 -14 14zM231 285q-11 13 2 26l625 473q14 10 23 -2l28 -41q13 -16 0 -26l-624 -473q-15 -10 -25 6zM614 143v45 l172 285q9 15 27 12l53 -6q11 -2 11 -14v-283h47q14 0 14 -12v-33q0 -12 -14 -12h-47v-62h43q12 0 12 -14v-37q0 -4 -4 -8t-8 -4h-168q-6 0 -10.5 3.5t-4.5 8.5v37q0 14 15 14h57v62h-176q-8 0 -13.5 5.5t-5.5 12.5zM674 182h135v221z" />
<glyph unicode="&#xbd;" horiz-adv-x="1157" d="M205 612v41q0 13 14 13h100v342l-71 -29q-15 -4 -19 8l-12 43q-3 9 6 14l113 41q23 8 38 -1t15 -25v-393h92q15 0 15 -13v-41q0 -14 -15 -14h-262q-14 0 -14 14zM231 285q-11 13 2 26l625 473q14 10 23 -2l28 -41q13 -16 0 -26l-624 -473q-15 -10 -25 6zM653 12v56 l162 174q37 40 50.5 61.5t13.5 42.5q0 32 -18.5 54.5t-47.5 25.5q-31 3 -59 -16t-37 -48q-6 -18 -23 -12l-26 8q-29 9 -13 41q20 41 61.5 64.5t88.5 23.5q63 0 105 -40.5t42 -100.5q0 -19 -2.5 -31.5t-21.5 -42t-56 -65.5l-141 -139h160v16q0 14 16 14h25q14 0 14 -14v-70 q0 -14 -14 -14h-264q-15 0 -15 12z" />
<glyph unicode="&#xbe;" horiz-adv-x="1142" d="M211 674q-11 34 12 41l29 8q16 5 22 -12q9 -31 34 -50t57 -16q31 3 51 24.5t20 55.5q0 35 -23 60.5t-55 25.5q-14 0 -14 14v31q0 14 14 14q30 0 52 22t22 54q1 34 -18 55.5t-49 24.5q-31 3 -54 -15.5t-32 -49.5q-6 -18 -23 -13l-25 8q-23 7 -12 41q18 44 57 66t86 22 q60 0 100 -39.5t40 -99.5q0 -68 -64 -102q32 -17 51 -49.5t19 -69.5q0 -59 -41.5 -99t-104.5 -40q-49 0 -91 22.5t-60 65.5zM231 285q-11 13 2 26l625 473q14 10 23 -2l28 -41q13 -16 0 -26l-624 -473q-15 -10 -25 6zM614 143v45l172 285q9 15 27 12l53 -6q11 -2 11 -14 v-283h47q14 0 14 -12v-33q0 -12 -14 -12h-47v-62h43q12 0 12 -14v-37q0 -4 -4 -8t-8 -4h-168q-6 0 -10.5 3.5t-4.5 8.5v37q0 14 15 14h57v62h-176q-8 0 -13.5 5.5t-5.5 12.5zM674 182h135v221z" />
<glyph unicode="&#xbf;" horiz-adv-x="1075" d="M197 -145q0 38 10 73t20.5 58t36.5 54t38.5 44t45.5 45q42 38 65 63.5t43.5 67t20.5 84.5v59q0 23 13.5 38.5t35.5 15.5h78q21 0 34.5 -12t14.5 -33q2 -16 2 -41q0 -58 -11.5 -105t-36.5 -87t-48.5 -66.5t-64.5 -65.5q-36 -33 -56.5 -56t-38.5 -61t-18 -77 q0 -64 46.5 -101t111.5 -37q118 0 211 133q27 39 67 15l35 -23q42 -26 22 -69q-50 -106 -138.5 -165t-205.5 -59q-144 0 -238.5 89t-94.5 219zM430 690q0 56 40 95.5t95 39.5t95 -39.5t40 -95.5t-40 -96.5t-95 -40.5t-95 40.5t-40 96.5z" />
<glyph unicode="&#xc0;" horiz-adv-x="1122" d="M135 47l307 1167q6 24 24 37t42 13h94q24 0 42 -13t24 -37l307 -1167q5 -20 -6 -33.5t-33 -13.5h-84q-42 0 -53 41l-115 446h-258l-115 -446q-11 -41 -53 -41h-84q-22 0 -33 13.5t-6 33.5zM265.5 1816.5q9.5 18.5 35.5 18.5h137q27 0 38.5 -8t23.5 -35l131 -283 q18 -43 -19 -61l-41 -21q-23 -10 -36 -7t-27 22l-238 336q-14 20 -4.5 38.5zM469 659h170l-68 297l-12 76h-8l-12 -76z" />
<glyph unicode="&#xc1;" horiz-adv-x="1122" d="M135 47l307 1167q6 24 24 37t42 13h94q24 0 42 -13t24 -37l307 -1167q5 -20 -6 -33.5t-33 -13.5h-84q-42 0 -53 41l-115 446h-258l-115 -446q-11 -41 -53 -41h-84q-22 0 -33 13.5t-6 33.5zM469 659h170l-68 297l-12 76h-8l-12 -76zM541 1509l131 283q12 27 23 35t38 8 h137q26 0 35.5 -18.5t-4.5 -38.5l-237 -336q-14 -19 -27.5 -22t-36.5 7l-41 21q-36 17 -18 61z" />
<glyph unicode="&#xc2;" horiz-adv-x="1122" d="M135 47l307 1167q6 24 24 37t42 13h94q24 0 42 -13t24 -37l307 -1167q5 -20 -6 -33.5t-33 -13.5h-84q-42 0 -53 41l-115 446h-258l-115 -446q-11 -41 -53 -41h-84q-22 0 -33 13.5t-6 33.5zM301 1544l148 162q2 2 10 10.5t10.5 11t9.5 10t11 10t11 7.5t12 7t12 5t14.5 4 t15.5 1q23 0 44.5 -12t30 -20t32.5 -34l147 -162q25 -28 -2 -55l-35 -35q-22 -22 -45 -2l-172 147l-172 -147q-23 -20 -45 2l-35 35q-27 27 -2 55zM469 659h170l-68 297l-12 76h-8l-12 -76z" />
<glyph unicode="&#xc3;" horiz-adv-x="1122" d="M135 47l307 1167q6 24 24 37t42 13h94q24 0 42 -13t24 -37l307 -1167q5 -20 -6 -33.5t-33 -13.5h-84q-42 0 -53 41l-115 446h-258l-115 -446q-11 -41 -53 -41h-84q-22 0 -33 13.5t-6 33.5zM247 1522q-3 11 3 24q24 65 70 105.5t114 40.5q46 0 126.5 -33t119.5 -33 q48 0 76 49q16 26 43 11l41 -21q18 -8 21 -19t-3 -24q-24 -65 -70 -105t-114 -40q-43 0 -122.5 32.5t-123.5 32.5q-48 0 -76 -49q-15 -25 -43 -10l-41 20q-18 8 -21 19zM469 659h170l-68 297l-12 76h-8l-12 -76z" />
<glyph unicode="&#xc4;" horiz-adv-x="1122" d="M135 47l307 1167q6 24 24 37t42 13h94q24 0 42 -13t24 -37l307 -1167q5 -20 -6 -33.5t-33 -13.5h-84q-42 0 -53 41l-115 446h-258l-115 -446q-11 -41 -53 -41h-84q-22 0 -33 13.5t-6 33.5zM221 1597q0 59 41.5 100.5t99.5 41.5t100 -41.5t42 -100.5q0 -58 -41.5 -99.5 t-100.5 -41.5q-58 0 -99.5 41t-41.5 100zM469 659h170l-68 297l-12 76h-8l-12 -76zM621 1597q0 59 41.5 100.5t99.5 41.5t99.5 -41.5t41.5 -100.5t-41.5 -100t-99.5 -41t-99.5 41t-41.5 100z" />
<glyph unicode="&#xc5;" horiz-adv-x="1122" d="M135 47l307 1167q6 24 24 37t42 13h94q24 0 42 -13t24 -37l307 -1167q5 -20 -6 -33.5t-33 -13.5h-84q-42 0 -53 41l-115 446h-258l-115 -446q-11 -41 -53 -41h-84q-22 0 -33 13.5t-6 33.5zM393 1595q0 67 49 116.5t117 49.5q69 0 118.5 -49.5t49.5 -116.5 q0 -70 -49.5 -119t-118.5 -49t-117.5 49t-48.5 119zM469 659h170l-68 297l-12 76h-8l-12 -76zM502 1595q0 -25 17 -42t40 -17q25 0 42 17t17 42q0 23 -17 40.5t-42 17.5q-23 0 -40 -17.5t-17 -40.5z" />
<glyph unicode="&#xc6;" horiz-adv-x="1761" d="M105.5 15.5q-7.5 15.5 3.5 35.5l612 1163q26 50 78 50h774q19 0 31 -12t12 -31v-88q0 -19 -12 -31t-31 -12h-567v-285h305q18 0 31.5 -12.5t13.5 -30.5v-84q0 -18 -13.5 -31.5t-31.5 -13.5h-305v-459h567q19 0 31 -12t12 -31v-88q0 -19 -12 -31t-31 -12h-696 q-23 0 -40.5 17t-17.5 40v430h-289l-237 -452q-17 -35 -55 -35h-103q-22 0 -29.5 15.5zM618 662h201v391z" />
<glyph unicode="&#xc7;" horiz-adv-x="1101" d="M193 350v559q0 156 122.5 265.5t294.5 109.5q89 0 178.5 -38.5t155.5 -125.5q29 -42 -10 -78l-31 -26q-43 -35 -82 4q-47 47 -94 69.5t-113 22.5q-93 0 -164 -59.5t-71 -141.5v-563q0 -82 71 -142.5t164 -60.5q65 0 112 22.5t95 70.5q39 39 82 4l31 -27q39 -36 10 -78 q-95 -124 -242 -153l-129 -279q-12 -27 -23 -35t-38 -8h-137q-26 0 -35.5 18.5t4.5 38.5l184 263q-144 25 -239.5 128t-95.5 240z" />
<glyph unicode="&#xc8;" d="M193 57v1149q0 23 17 40.5t40 17.5h696q19 0 31 -12t12 -31v-88q0 -19 -12 -31t-31 -12h-567v-285h305q18 0 31.5 -12.5t13.5 -30.5v-84q0 -18 -13.5 -31.5t-31.5 -13.5h-305v-459h567q19 0 31 -12t12 -31v-88q0 -19 -12 -31t-31 -12h-696q-23 0 -40 17t-17 40z M419.5 1816.5q9.5 18.5 35.5 18.5h137q27 0 38 -8t23 -35l131 -283q18 -44 -18 -61l-41 -21q-23 -10 -36 -7t-27 22l-238 336q-14 20 -4.5 38.5z" />
<glyph unicode="&#xc9;" d="M193 57v1149q0 23 17 40.5t40 17.5h696q19 0 31 -12t12 -31v-88q0 -19 -12 -31t-31 -12h-567v-285h305q18 0 31.5 -12.5t13.5 -30.5v-84q0 -18 -13.5 -31.5t-31.5 -13.5h-305v-459h567q19 0 31 -12t12 -31v-88q0 -19 -12 -31t-31 -12h-696q-23 0 -40 17t-17 40zM541 1509 l131 283q12 27 23 35t38 8h137q26 0 35.5 -18.5t-4.5 -38.5l-237 -336q-14 -19 -27.5 -22t-36.5 7l-41 21q-36 17 -18 61z" />
<glyph unicode="&#xca;" d="M193 57v1149q0 23 17 40.5t40 17.5h696q19 0 31 -12t12 -31v-88q0 -19 -12 -31t-31 -12h-567v-285h305q18 0 31.5 -12.5t13.5 -30.5v-84q0 -18 -13.5 -31.5t-31.5 -13.5h-305v-459h567q19 0 31 -12t12 -31v-88q0 -19 -12 -31t-31 -12h-696q-23 0 -40 17t-17 40zM340 1544 l147 162q41 43 60 54q22 12 47 12q8 0 15.5 -1t14.5 -4t12 -5t12 -7t11 -7.5t11 -10t9.5 -10t10.5 -11t10 -10.5l148 -162q25 -28 -2 -55l-35 -35q-22 -22 -45 -2l-172 147l-172 -147q-23 -20 -45 2l-35 35q-27 27 -2 55z" />
<glyph unicode="&#xcb;" d="M193 57v1149q0 23 17 40.5t40 17.5h696q19 0 31 -12t12 -31v-88q0 -19 -12 -31t-31 -12h-567v-285h305q18 0 31.5 -12.5t13.5 -30.5v-84q0 -18 -13.5 -31.5t-31.5 -13.5h-305v-459h567q19 0 31 -12t12 -31v-88q0 -19 -12 -31t-31 -12h-696q-23 0 -40 17t-17 40zM258 1597 q0 59 41.5 100.5t99.5 41.5q59 0 100.5 -41.5t41.5 -100.5q0 -58 -41.5 -99.5t-100.5 -41.5t-100 41t-41 100zM657 1597q0 59 41.5 100.5t100.5 41.5q58 0 99.5 -41.5t41.5 -100.5t-41 -100t-100 -41t-100.5 41.5t-41.5 99.5z" />
<glyph unicode="&#xcc;" horiz-adv-x="1157" d="M170 43v88q0 19 12 31t31 12h260v916h-260q-19 0 -31 12t-12 31v88q0 19 12 31t31 12h715q19 0 31 -12t12 -31v-88q0 -19 -12 -31t-31 -12h-269v-916h269q19 0 31 -12t12 -31v-88q0 -19 -12 -31t-31 -12h-715q-19 0 -31 12t-12 31zM296.5 1816.5q9.5 18.5 35.5 18.5h137 q27 0 38 -8t23 -35l132 -283q18 -43 -19 -61l-41 -21q-23 -10 -36 -7t-27 22l-238 336q-14 20 -4.5 38.5z" />
<glyph unicode="&#xcd;" horiz-adv-x="1157" d="M170 43v88q0 19 12 31t31 12h260v916h-260q-19 0 -31 12t-12 31v88q0 19 12 31t31 12h715q19 0 31 -12t12 -31v-88q0 -19 -12 -31t-31 -12h-269v-916h269q19 0 31 -12t12 -31v-88q0 -19 -12 -31t-31 -12h-715q-19 0 -31 12t-12 31zM520 1509l131 283q12 27 23.5 35 t38.5 8h137q26 0 35.5 -18.5t-4.5 -38.5l-238 -336q-14 -19 -27 -22t-36 7l-41 21q-37 18 -19 61z" />
<glyph unicode="&#xce;" horiz-adv-x="1157" d="M170 43v88q0 19 12 31t31 12h260v916h-260q-19 0 -31 12t-12 31v88q0 19 12 31t31 12h715q19 0 31 -12t12 -31v-88q0 -19 -12 -31t-31 -12h-269v-916h269q19 0 31 -12t12 -31v-88q0 -19 -12 -31t-31 -12h-715q-19 0 -31 12t-12 31zM311 1544l148 162q2 2 10 10.5t10.5 11 t9.5 10t11 10t11 7.5t12 7t12 5t14.5 4t15.5 1q23 0 44.5 -12t30 -20t32.5 -34l147 -162q25 -28 -2 -55l-35 -35q-22 -22 -45 -2l-172 147l-172 -147q-23 -20 -45 2l-35 35q-27 27 -2 55z" />
<glyph unicode="&#xcf;" horiz-adv-x="1157" d="M170 43v88q0 19 12 31t31 12h260v916h-260q-19 0 -31 12t-12 31v88q0 19 12 31t31 12h715q19 0 31 -12t12 -31v-88q0 -19 -12 -31t-31 -12h-269v-916h269q19 0 31 -12t12 -31v-88q0 -19 -12 -31t-31 -12h-715q-19 0 -31 12t-12 31zM227 1597q0 59 41.5 100.5t100.5 41.5 q58 0 99.5 -41.5t41.5 -100.5t-41 -100t-100 -41t-100.5 41.5t-41.5 99.5zM627 1597q0 59 41.5 100.5t99.5 41.5t99.5 -41.5t41.5 -100.5t-41.5 -100t-99.5 -41t-99.5 41t-41.5 100z" />
<glyph unicode="&#xd1;" horiz-adv-x="1198" d="M193 43v1163q0 23 17 40.5t40 17.5h110l445 -856v813q0 18 12.5 30.5t30.5 12.5h102q19 0 30 -12t11 -31v-1164q0 -23 -17 -40t-40 -17h-113l-442 858v-815q0 -19 -11 -31t-30 -12h-102q-18 0 -30.5 12.5t-12.5 30.5zM298 1522q-3 11 3 24q24 65 70 105.5t114 40.5 q46 0 126.5 -33t119.5 -33q48 0 76 49q16 26 43 11l41 -21q18 -8 21 -19t-3 -24q-24 -65 -70 -105t-114 -40q-43 0 -122.5 32.5t-123.5 32.5q-48 0 -76 -49q-15 -25 -43 -10l-41 20q-18 8 -21 19z" />
<glyph unicode="&#xd2;" horiz-adv-x="1245" d="M205 344v571q0 153 121 261t292 108q177 0 299.5 -107.5t122.5 -261.5v-571q0 -154 -121.5 -262.5t-291.5 -108.5h-9q-170 0 -291.5 108.5t-121.5 262.5zM367 342q0 -90 77 -155.5t179 -65.5t179 65.5t77 155.5v576q0 90 -77 154.5t-179 64.5t-179 -64.5t-77 -154.5v-576 zM367 1513l155 175q46 61 99 61q52 0 98 -61l155 -175q18 -18 -2 -36l-32 -27q-9 -8 -20.5 -8t-18.5 8l-180 156l-181 -156q-8 -8 -19 -8t-20 8l-32 27q-20 18 -2 36z" />
<glyph unicode="&#xd3;" horiz-adv-x="1245" d="M193 348v561q0 156 122.5 265.5t296.5 109.5q178 0 302 -109t124 -266v-561q0 -157 -124 -266t-302 -109q-174 0 -296.5 109.5t-122.5 265.5zM379 346q0 -82 71 -141.5t166 -59.5q94 0 165 59.5t71 141.5v565q0 82 -71 141.5t-165 59.5q-95 0 -166 -59.5t-71 -141.5v-565 zM541 1509l131 283q12 27 23 35t38 8h137q26 0 35.5 -18.5t-4.5 -38.5l-237 -336q-14 -19 -27.5 -22t-36.5 7l-41 21q-36 17 -18 61z" />
<glyph unicode="&#xd4;" horiz-adv-x="1245" d="M193 348v561q0 156 122.5 265.5t296.5 109.5q178 0 302 -109t124 -266v-561q0 -157 -124 -266t-302 -109q-174 0 -296.5 109.5t-122.5 265.5zM270 1597q0 59 42 100.5t100 41.5t99.5 -41.5t41.5 -100.5t-41.5 -100t-99.5 -41q-59 0 -100.5 41.5t-41.5 99.5zM379 346 q0 -82 71 -141.5t166 -59.5q94 0 165 59.5t71 141.5v565q0 82 -71 141.5t-165 59.5q-95 0 -166 -59.5t-71 -141.5v-565zM670 1597q0 59 41.5 100.5t99.5 41.5t99.5 -41.5t41.5 -100.5t-41 -100t-100 -41t-100 41t-41 100z" />
<glyph unicode="&#xd5;" horiz-adv-x="1245" d="M193 348v561q0 156 122.5 265.5t296.5 109.5q178 0 302 -109t124 -266v-561q0 -157 -124 -266t-302 -109q-174 0 -296.5 109.5t-122.5 265.5zM298 1522q-3 11 3 24q24 65 70 105.5t114 40.5q46 0 126.5 -33t119.5 -33q48 0 76 49q16 26 43 11l41 -21q18 -8 21 -19t-3 -24 q-24 -65 -70 -105t-114 -40q-43 0 -122.5 32.5t-123.5 32.5q-48 0 -76 -49q-15 -25 -43 -10l-41 20q-18 8 -21 19zM379 346q0 -82 71 -141.5t166 -59.5q94 0 165 59.5t71 141.5v565q0 82 -71 141.5t-165 59.5q-95 0 -166 -59.5t-71 -141.5v-565z" />
<glyph unicode="&#xd6;" horiz-adv-x="1122" d="M131 348v561q0 156 123 265.5t297 109.5q178 0 302 -109t124 -266v-561q0 -157 -124 -266t-302 -109q-174 0 -297 109.5t-123 265.5zM215 1597q0 59 41.5 100.5t99.5 41.5t100 -41.5t42 -100.5q0 -58 -41.5 -99.5t-100.5 -41.5q-58 0 -99.5 41t-41.5 100zM317 346 q0 -82 71.5 -141.5t166.5 -59.5q94 0 165 59.5t71 141.5v565q0 82 -71 141.5t-165 59.5q-95 0 -166.5 -59.5t-71.5 -141.5v-565zM614 1597q0 59 42 100.5t100 41.5t99.5 -41.5t41.5 -100.5t-41.5 -100t-99.5 -41q-59 0 -100.5 41.5t-41.5 99.5z" />
<glyph unicode="&#xd7;" horiz-adv-x="1021" d="M203 307q-21 21 2 45l192 193l-192 192q-23 23 -2 45l63 64q21 21 45 0l195 -193l190 189q10 10 23 10.5t22 -8.5l64 -64q24 -21 0 -45l-191 -190l191 -191q24 -24 0 -45l-64 -63q-9 -9 -22 -8.5t-23 10.5l-190 188l-195 -192q-24 -21 -45 0z" />
<glyph unicode="&#xd8;" horiz-adv-x="1245" d="M193 348v561q0 156 122.5 265.5t296.5 109.5q104 0 193 -39l39 80q7 17 24.5 21.5t32.5 -3.5l84 -43q15 -8 20.5 -24t-1.5 -33l-54 -106q88 -101 88 -228v-561q0 -157 -124 -266t-302 -109q-110 0 -209 47l-12 -26q-19 -36 -59 -17l-80 39q-19 9 -24.5 26t3.5 36l31 61 q-69 90 -69 209zM379 377l348 710q-63 25 -111 25q-95 0 -166 -59.5t-71 -141.5v-534zM483 180q59 -35 133 -35q94 0 165 59.5t71 141.5v565q0 13 -2 19z" />
<glyph unicode="&#xd9;" horiz-adv-x="1245" d="M193 356v865q0 19 12 31t31 12h100q19 0 31 -11.5t12 -31.5v-871q0 -83 71 -143t166 -60t166.5 60t71.5 143v871q0 19 12 31t31 12h100q19 0 31 -11.5t12 -31.5v-865q0 -158 -124.5 -270.5t-299.5 -112.5t-299 112.5t-124 270.5zM357.5 1816.5q9.5 18.5 35.5 18.5h137 q27 0 38.5 -8t23.5 -35l131 -283q18 -44 -18 -61l-41 -21q-23 -10 -36.5 -7t-27.5 22l-238 336q-14 20 -4.5 38.5z" />
<glyph unicode="&#xda;" horiz-adv-x="1245" d="M193 356v865q0 19 12 31t31 12h100q19 0 31 -11.5t12 -31.5v-871q0 -83 71 -143t166 -60t166.5 60t71.5 143v871q0 19 12 31t31 12h100q19 0 31 -11.5t12 -31.5v-865q0 -158 -124.5 -270.5t-299.5 -112.5t-299 112.5t-124 270.5zM541 1509l131 283q12 27 23 35t38 8h137 q26 0 35.5 -18.5t-4.5 -38.5l-237 -336q-14 -19 -27.5 -22t-36.5 7l-41 21q-36 17 -18 61z" />
<glyph unicode="&#xdb;" horiz-adv-x="1245" d="M193 356v865q0 19 12 31t31 12h100q19 0 31 -11.5t12 -31.5v-871q0 -83 71 -143t166 -60t166.5 60t71.5 143v871q0 19 12 31t31 12h100q19 0 31 -11.5t12 -31.5v-865q0 -158 -124.5 -270.5t-299.5 -112.5t-299 112.5t-124 270.5zM362 1544l148 162q2 2 10 10.5t10.5 11 t9.5 10t11 10t11 7.5t12 7t12 5t14.5 4t15.5 1q23 0 44.5 -12t30 -20t32.5 -34l147 -162q25 -28 -2 -55l-34 -35q-22 -22 -46 -2l-172 147l-172 -147q-23 -20 -45 2l-34 35q-27 27 -3 55z" />
<glyph unicode="&#xdc;" horiz-adv-x="1122" d="M131 356v865q0 19 12 31t31 12h100q19 0 31 -11.5t12 -31.5v-871q0 -83 71.5 -143t166.5 -60t166.5 60t71.5 143v871q0 19 12 31t31 12h100q19 0 31 -11.5t12 -31.5v-865q0 -158 -124.5 -270.5t-299.5 -112.5t-299.5 112.5t-124.5 270.5zM215 1597q0 59 41.5 100.5 t99.5 41.5t100 -41.5t42 -100.5q0 -58 -41.5 -99.5t-100.5 -41.5q-58 0 -99.5 41t-41.5 100zM614 1597q0 59 42 100.5t100 41.5t99.5 -41.5t41.5 -100.5t-41.5 -100t-99.5 -41q-59 0 -100.5 41.5t-41.5 99.5z" />
<glyph unicode="&#xdd;" horiz-adv-x="1183" d="M155.5 1196.5q2.5 17.5 14.5 26.5l74 57q15 10 33.5 7t27.5 -17l283 -418l280 418q9 14 28 17t34 -7l74 -57q12 -9 14.5 -26.5t-6.5 -29.5l-332 -485v-639q0 -19 -11 -31t-30 -12h-102q-18 0 -30.5 12.5t-12.5 30.5v639l-332 485q-9 12 -6.5 29.5zM520 1509l131 283 q12 27 23.5 35t38.5 8h137q26 0 35.5 -18.5t-4.5 -38.5l-238 -336q-14 -19 -27 -22t-36 7l-41 21q-37 18 -19 61z" />
<glyph unicode="&#xdf;" horiz-adv-x="1114" d="M193 43v905q0 130 92 223t221 93h117q129 0 221 -93t92 -223v-47q0 -124 -86 -207q64 -43 100.5 -109t36.5 -143v-127q0 -131 -92.5 -223t-222.5 -92h-154q-19 0 -31 12t-12 31v86q0 19 12 31t31 12h154q57 0 100 43t43 100v129q0 57 -43 100.5t-100 43.5h-80 q-19 0 -31 12t-12 31v78q0 19 12 31t31 12h37q54 0 95.5 43.5t41.5 99.5v53q0 57 -43 100.5t-100 43.5h-117q-57 0 -100.5 -43.5t-43.5 -100.5v-905q0 -19 -11 -31t-29 -12h-86q-18 0 -30.5 12.5t-12.5 30.5z" />
<glyph unicode="&#xe0;" horiz-adv-x="1110" d="M137 274q-4 104 51 178.5t146 110t205 35.5h204v53q0 54 -12.5 86t-43.5 47.5t-67.5 20t-101.5 4.5h-170q-20 2 -32.5 14.5t-12.5 32.5v62q0 20 12.5 32.5t32.5 14.5q96 8 201 8q102 0 168 -15t114.5 -56.5t69.5 -115t21 -188.5v-555q0 -19 -13 -31t-32 -12h-72 q-25 0 -31 27l-12 47q-122 -92 -283 -92q-140 0 -238 75t-104 217zM309 279q4 -70 53 -104t123 -34q69 0 142.5 28.5t117.5 72.5v207h-204q-114 0 -176 -44t-56 -126zM390.5 1482.5q9.5 18.5 35.5 18.5h137q27 0 38.5 -8t23.5 -35l131 -282q18 -44 -19 -62l-41 -20 q-23 -11 -36.5 -8t-26.5 22l-238 336q-14 20 -4.5 38.5z" />
<glyph unicode="&#xe1;" horiz-adv-x="1110" d="M137 274q-4 104 51 178.5t146 110t205 35.5h204v53q0 54 -12.5 86t-43.5 47.5t-67.5 20t-101.5 4.5h-170q-20 2 -32.5 14.5t-12.5 32.5v62q0 20 12.5 32.5t32.5 14.5q96 8 201 8q102 0 168 -15t114.5 -56.5t69.5 -115t21 -188.5v-555q0 -19 -13 -31t-32 -12h-72 q-25 0 -31 27l-12 47q-122 -92 -283 -92q-140 0 -238 75t-104 217zM309 279q4 -70 53 -104t123 -34q69 0 142.5 28.5t117.5 72.5v207h-204q-114 0 -176 -44t-56 -126zM477 1176l131 282q12 27 23.5 35t38.5 8h137q26 0 35.5 -18.5t-4.5 -38.5l-238 -336q-13 -19 -26.5 -22 t-36.5 8l-41 20q-37 18 -19 62z" />
<glyph unicode="&#xe2;" horiz-adv-x="1110" d="M137 274q-4 104 51 178.5t146 110t205 35.5h204v53q0 54 -12.5 86t-43.5 47.5t-67.5 20t-101.5 4.5h-170q-20 2 -32.5 14.5t-12.5 32.5v62q0 20 12.5 32.5t32.5 14.5q96 8 201 8q102 0 168 -15t114.5 -56.5t69.5 -115t21 -188.5v-555q0 -19 -13 -31t-32 -12h-72 q-25 0 -31 27l-12 47q-122 -92 -283 -92q-140 0 -238 75t-104 217zM309 279q4 -70 53 -104t123 -34q69 0 142.5 28.5t117.5 72.5v207h-204q-114 0 -176 -44t-56 -126zM344 1204l148 162q2 2 10 10.5t10.5 11t9.5 10t11 10t11 7.5t12 7t12 5t14.5 4t15.5 1q23 0 44.5 -12 t30 -20t32.5 -34l147 -162q25 -28 -2 -55l-35 -35q-22 -22 -45 -2l-172 148l-172 -148q-23 -20 -45 2l-35 35q-27 27 -2 55z" />
<glyph unicode="&#xe3;" horiz-adv-x="1110" d="M137 274q-4 104 51 178.5t146 110t205 35.5h204v53q0 54 -12.5 86t-43.5 47.5t-67.5 20t-101.5 4.5h-170q-20 2 -32.5 14.5t-12.5 32.5v62q0 20 12.5 32.5t32.5 14.5q96 8 201 8q102 0 168 -15t114.5 -56.5t69.5 -115t21 -188.5v-555q0 -19 -13 -31t-32 -12h-72 q-25 0 -31 27l-12 47q-122 -92 -283 -92q-140 0 -238 75t-104 217zM278 1184q-3 11 3 24q24 65 70 105.5t114 40.5q46 0 126.5 -33t119.5 -33q47 0 75 49q16 26 43 11l41 -21q19 -8 22 -19t-3 -24q-24 -65 -70 -105t-114 -40q-43 0 -122.5 32.5t-123.5 32.5q-48 0 -76 -49 q-15 -25 -43 -10l-41 20q-18 8 -21 19zM309 279q4 -70 53 -104t123 -34q69 0 142.5 28.5t117.5 72.5v207h-204q-114 0 -176 -44t-56 -126z" />
<glyph unicode="&#xe4;" horiz-adv-x="1110" d="M137 274q-4 104 51 178.5t146 110t205 35.5h204v53q0 54 -12.5 86t-43.5 47.5t-67.5 20t-101.5 4.5h-170q-20 2 -32.5 14.5t-12.5 32.5v62q0 20 12.5 32.5t32.5 14.5q96 8 201 8q102 0 168 -15t114.5 -56.5t69.5 -115t21 -188.5v-555q0 -19 -13 -31t-32 -12h-72 q-25 0 -31 27l-12 47q-122 -92 -283 -92q-140 0 -238 75t-104 217zM238 1264q0 58 41 99.5t100 41.5t100 -41.5t41 -99.5q0 -59 -41.5 -100.5t-99.5 -41.5t-99.5 41.5t-41.5 100.5zM309 279q4 -70 53 -104t123 -34q69 0 142.5 28.5t117.5 72.5v207h-204q-114 0 -176 -44 t-56 -126zM637 1264q0 58 41.5 99.5t99.5 41.5q59 0 100.5 -41.5t41.5 -99.5t-42 -100t-100 -42t-99.5 41.5t-41.5 100.5z" />
<glyph unicode="&#xe5;" horiz-adv-x="1110" d="M137 274q-4 104 51 178.5t146 110t205 35.5h204v53q0 54 -12.5 86t-43.5 47.5t-67.5 20t-101.5 4.5h-170q-20 2 -32.5 14.5t-12.5 32.5v62q0 20 12.5 32.5t32.5 14.5q96 8 201 8q102 0 168 -15t114.5 -56.5t69.5 -115t21 -188.5v-555q0 -19 -13 -31t-32 -12h-72 q-25 0 -31 27l-12 47q-122 -92 -283 -92q-140 0 -238 75t-104 217zM309 279q4 -70 53 -104t123 -34q69 0 142.5 28.5t117.5 72.5v207h-204q-114 0 -176 -44t-56 -126zM444 1266q0 67 49 116.5t117 49.5t118 -50t50 -116q0 -70 -49.5 -119t-118.5 -49t-117.5 49t-48.5 119z M553 1266q0 -25 17 -42.5t40 -17.5q25 0 42.5 17.5t17.5 42.5q0 23 -17.5 40t-42.5 17q-23 0 -40 -17t-17 -40z" />
<glyph unicode="&#xe6;" horiz-adv-x="1665" d="M137 274q-4 104 51 178.5t146 110t205 35.5h204v53q0 54 -12.5 86t-43.5 47.5t-67.5 20t-101.5 4.5h-170q-20 2 -32.5 14.5t-12.5 32.5v62q0 20 12.5 32.5t32.5 14.5q96 8 201 8q115 0 189 -22t116 -77q112 109 270 109q163 0 278.5 -109.5t115.5 -265.5v-82 q0 -35 -25.5 -60.5t-60.5 -25.5h-517v-71q0 -48 8.5 -82t30.5 -58t50 -38t76.5 -22t100 -10.5t130.5 -2.5q20 0 32.5 -13.5t12.5 -33.5v-62q0 -20 -12.5 -33.5t-32.5 -13.5h-76q-150 0 -250.5 23.5t-159.5 87.5q-135 -129 -346 -129q-140 0 -238 75t-104 217zM309 279 q4 -70 53 -104t123 -34q69 0 142.5 28.5t117.5 72.5v86q-2 20 -2 61v60h-202q-114 0 -176 -44t-56 -126zM918 596h423v25q0 83 -62.5 141.5t-150.5 58.5q-87 0 -148.5 -58.5t-61.5 -141.5v-25z" />
<glyph unicode="&#xe7;" horiz-adv-x="987" d="M133 348v262q0 155 114 264t277 109q82 0 168 -39.5t148 -124.5q13 -17 10 -38t-21 -36l-41 -34q-13 -13 -35 -11.5t-36 21.5q-31 42 -81 67t-104 25q-87 0 -151 -59t-64 -142v-266q0 -81 64 -141t151 -60q54 0 104 25t81 66q14 20 36 21.5t35 -11.5l41 -35 q18 -15 21 -36t-10 -38q-96 -131 -254 -157l-123 -267q-10 -26 -20 -33.5t-33 -7.5h-144q-15 0 -20.5 12t4.5 25l190 273q-133 28 -220 130t-87 236z" />
<glyph unicode="&#xe8;" horiz-adv-x="1085" d="M164 385v223q0 157 111.5 266t269.5 109q163 0 278 -109.5t115 -265.5v-108q0 -35 -25.5 -60.5t-60.5 -25.5h-516v-45q0 -48 8.5 -82t30.5 -58t49.5 -38t76 -22t100 -10.5t130.5 -2.5q20 0 32.5 -13.5t12.5 -33.5v-62q0 -20 -12.5 -33.5t-32.5 -13.5h-76q-95 0 -162 7 t-133.5 30.5t-106.5 65t-64.5 112t-24.5 170.5zM335.5 1482.5q9.5 18.5 35.5 18.5h137q27 0 38 -8t23 -35l131 -282q18 -45 -18 -62l-41 -20q-23 -11 -36.5 -8t-26.5 22l-238 336q-14 20 -4.5 38.5zM338 569h424v52q0 83 -62.5 141.5t-150.5 58.5q-87 0 -149 -58.5 t-62 -141.5v-52z" />
<glyph unicode="&#xe9;" horiz-adv-x="1085" d="M164 385v223q0 157 111.5 266t269.5 109q163 0 278 -109.5t115 -265.5v-108q0 -35 -25.5 -60.5t-60.5 -25.5h-516v-45q0 -48 8.5 -82t30.5 -58t49.5 -38t76 -22t100 -10.5t130.5 -2.5q20 0 32.5 -13.5t12.5 -33.5v-62q0 -20 -12.5 -33.5t-32.5 -13.5h-76q-95 0 -162 7 t-133.5 30.5t-106.5 65t-64.5 112t-24.5 170.5zM338 569h424v52q0 83 -62.5 141.5t-150.5 58.5q-87 0 -149 -58.5t-62 -141.5v-52zM477 1176l131 282q12 27 23.5 35t38.5 8h137q26 0 35.5 -18.5t-4.5 -38.5l-238 -336q-13 -19 -26.5 -22t-36.5 8l-41 20q-37 18 -19 62z" />
<glyph unicode="&#xea;" horiz-adv-x="1085" d="M164 385v223q0 157 111.5 266t269.5 109q163 0 278 -109.5t115 -265.5v-108q0 -35 -25.5 -60.5t-60.5 -25.5h-516v-45q0 -48 8.5 -82t30.5 -58t49.5 -38t76 -22t100 -10.5t130.5 -2.5q20 0 32.5 -13.5t12.5 -33.5v-62q0 -20 -12.5 -33.5t-32.5 -13.5h-76q-95 0 -162 7 t-133.5 30.5t-106.5 65t-64.5 112t-24.5 170.5zM293 1204l147 162q41 43 60 54q22 12 47 12q8 0 15.5 -1t14.5 -4t12 -5t12 -7t11 -7.5t11 -10t9.5 -10t10.5 -11t10 -10.5l148 -162q25 -28 -2 -55l-35 -35q-22 -22 -45 -2l-172 148l-172 -148q-23 -20 -45 2l-35 35 q-27 27 -2 55zM338 569h424v52q0 83 -62.5 141.5t-150.5 58.5q-87 0 -149 -58.5t-62 -141.5v-52z" />
<glyph unicode="&#xeb;" horiz-adv-x="1085" d="M164 385v223q0 157 111.5 266t269.5 109q163 0 278 -109.5t115 -265.5v-108q0 -35 -25.5 -60.5t-60.5 -25.5h-516v-45q0 -48 8.5 -82t30.5 -58t49.5 -38t76 -22t100 -10.5t130.5 -2.5q20 0 32.5 -13.5t12.5 -33.5v-62q0 -20 -12.5 -33.5t-32.5 -13.5h-76q-95 0 -162 7 t-133.5 30.5t-106.5 65t-64.5 112t-24.5 170.5zM207 1264q0 58 41.5 99.5t99.5 41.5t99.5 -41.5t41.5 -99.5q0 -59 -41.5 -100.5t-99.5 -41.5t-99.5 41.5t-41.5 100.5zM338 569h424v52q0 83 -62.5 141.5t-150.5 58.5q-87 0 -149 -58.5t-62 -141.5v-52zM606 1264 q0 58 41.5 99.5t100.5 41.5q58 0 99.5 -41.5t41.5 -99.5q0 -59 -41.5 -100.5t-99.5 -41.5t-100 42t-42 100z" />
<glyph unicode="&#xec;" horiz-adv-x="1103" d="M154 45v76q0 20 12 31.5t31 11.5h258v637h-121q-19 0 -31 13t-12 32v76q0 20 12 31.5t31 11.5h225q32 0 55 -23t23 -55v-723h254q19 0 31 -11.5t12 -31.5v-76q0 -19 -12 -32t-31 -13h-694q-19 0 -31 13t-12 32zM210.5 1482.5q9.5 18.5 35.5 18.5h137q27 0 38 -8t23 -35 l131 -282q18 -45 -18 -62l-41 -20q-23 -11 -36.5 -8t-26.5 22l-238 336q-14 20 -4.5 38.5z" />
<glyph unicode="&#xed;" horiz-adv-x="1103" d="M154 45v76q0 20 12 31.5t31 11.5h258v637h-121q-19 0 -31 13t-12 32v76q0 20 12 31.5t31 11.5h225q32 0 55 -23t23 -55v-723h254q19 0 31 -11.5t12 -31.5v-76q0 -19 -12 -32t-31 -13h-694q-19 0 -31 13t-12 32zM414 1176l131 282q12 27 23 35t38 8h137q26 0 35.5 -18.5 t-4.5 -38.5l-237 -336q-13 -19 -27 -22t-37 8l-41 20q-36 17 -18 62z" />
<glyph unicode="&#xee;" horiz-adv-x="1103" d="M154 45v76q0 20 12 31.5t31 11.5h258v637h-121q-19 0 -31 13t-12 32v76q0 20 12 31.5t31 11.5h225q32 0 55 -23t23 -55v-723h254q19 0 31 -11.5t12 -31.5v-76q0 -19 -12 -32t-31 -13h-694q-19 0 -31 13t-12 32zM219 1204l148 162q2 2 10 10.5t10.5 11t9.5 10t11 10 t11 7.5t12 7t12 5t14.5 4t15.5 1q23 0 44.5 -12t30 -20t32.5 -34l147 -162q25 -28 -2 -55l-35 -35q-22 -22 -45 -2l-172 148l-172 -148q-23 -20 -45 2l-35 35q-27 27 -2 55z" />
<glyph unicode="&#xef;" horiz-adv-x="1103" d="M145 1264q0 58 41.5 99.5t100.5 41.5t100 -41.5t41 -99.5q0 -59 -41.5 -100.5t-99.5 -41.5q-59 0 -100.5 42t-41.5 100zM154 45v76q0 20 12 31.5t31 11.5h258v637h-121q-19 0 -31 13t-12 32v76q0 20 12 31.5t31 11.5h225q32 0 55 -23t23 -55v-723h254q19 0 31 -11.5 t12 -31.5v-76q0 -19 -12 -32t-31 -13h-694q-19 0 -31 13t-12 32zM545 1264q0 58 41.5 99.5t99.5 41.5t99.5 -41.5t41.5 -99.5q0 -59 -41.5 -100.5t-99.5 -41.5t-99.5 41.5t-41.5 100.5z" />
<glyph unicode="&#xf1;" horiz-adv-x="1148" d="M184 43v879q0 19 12 31t31 12h97q31 0 36 -27l13 -57q172 94 321 94q130 0 207.5 -86.5t77.5 -274.5v-569q0 -20 -12 -32.5t-31 -12.5h-100q-19 0 -31 12t-12 31v602q0 156 -144 156q-120 0 -272 -90v-666q0 -20 -12 -32.5t-31 -12.5h-107q-19 0 -31 12t-12 31zM273 1184 q-3 11 3 24q24 65 70.5 105.5t114.5 40.5q46 0 126.5 -33t119.5 -33q47 0 75 49q16 26 43 11l41 -21q19 -8 22 -19t-3 -24q-24 -65 -70.5 -105t-114.5 -40q-43 0 -122 32.5t-123 32.5q-48 0 -76 -49q-15 -25 -43 -10l-41 20q-19 8 -22 19z" />
<glyph unicode="&#xf2;" d="M164 354v256q0 156 115.5 264.5t283.5 108.5q163 0 277 -109t114 -264v-256q0 -155 -114 -264.5t-277 -109.5q-168 0 -283.5 109t-115.5 265zM312.5 1482.5q9.5 18.5 35.5 18.5h137q27 0 38.5 -8t23.5 -35l131 -282q18 -44 -19 -62l-41 -20q-23 -11 -36.5 -8t-26.5 22 l-238 336q-14 20 -4.5 38.5zM348 344q0 -80 62.5 -139.5t148.5 -59.5t149.5 59.5t63.5 139.5v274q0 81 -63 140t-150 59q-86 0 -148.5 -58.5t-62.5 -140.5v-274z" />
<glyph unicode="&#xf3;" d="M164 354v256q0 156 115.5 264.5t283.5 108.5q163 0 277 -109t114 -264v-256q0 -155 -114 -264.5t-277 -109.5q-168 0 -283.5 109t-115.5 265zM348 344q0 -80 62.5 -139.5t148.5 -59.5t149.5 59.5t63.5 139.5v274q0 81 -63 140t-150 59q-86 0 -148.5 -58.5t-62.5 -140.5 v-274zM455 1176l131 282q12 27 23 35t38 8h137q26 0 35.5 -18.5t-4.5 -38.5l-237 -336q-13 -19 -27 -22t-37 8l-41 20q-36 17 -18 62z" />
<glyph unicode="&#xf4;" d="M164 354v256q0 156 115.5 264.5t283.5 108.5q163 0 277 -109t114 -264v-256q0 -155 -114 -264.5t-277 -109.5q-168 0 -283.5 109t-115.5 265zM311 1204l148 162q2 2 10 10.5t10.5 11t9.5 10t11 10t11 7.5t12 7t12 5t14.5 4t15.5 1q23 0 44.5 -12t30 -20t32.5 -34 l147 -162q25 -28 -2 -55l-35 -35q-22 -22 -45 -2l-172 148l-172 -148q-23 -20 -45 2l-35 35q-27 27 -2 55zM348 344q0 -80 62.5 -139.5t148.5 -59.5t149.5 59.5t63.5 139.5v274q0 81 -63 140t-150 59q-86 0 -148.5 -58.5t-62.5 -140.5v-274z" />
<glyph unicode="&#xf5;" d="M164 354v256q0 156 115.5 264.5t283.5 108.5q163 0 277 -109t114 -264v-256q0 -155 -114 -264.5t-277 -109.5q-168 0 -283.5 109t-115.5 265zM249 1184q-3 11 3 24q24 65 70 105.5t114 40.5q46 0 126.5 -33t119.5 -33q48 0 76 49q16 26 43 11l41 -21q18 -8 21 -19t-3 -24 q-24 -65 -70 -105t-114 -40q-43 0 -122.5 32.5t-123.5 32.5q-48 0 -76 -49q-15 -25 -43 -10l-41 20q-18 8 -21 19zM348 344q0 -80 62.5 -139.5t148.5 -59.5t149.5 59.5t63.5 139.5v274q0 81 -63 140t-150 59q-86 0 -148.5 -58.5t-62.5 -140.5v-274z" />
<glyph unicode="&#xf6;" d="M164 354v256q0 156 115.5 264.5t283.5 108.5q163 0 277 -109t114 -264v-256q0 -155 -114 -264.5t-277 -109.5q-168 0 -283.5 109t-115.5 265zM225 1264q0 58 41.5 99.5t100.5 41.5t100 -41.5t41 -99.5q0 -59 -41.5 -100.5t-99.5 -41.5q-59 0 -100.5 42t-41.5 100z M348 344q0 -80 62.5 -139.5t148.5 -59.5t149.5 59.5t63.5 139.5v274q0 81 -63 140t-150 59q-86 0 -148.5 -58.5t-62.5 -140.5v-274zM625 1264q0 58 41.5 99.5t99.5 41.5t99.5 -41.5t41.5 -99.5q0 -59 -41.5 -100.5t-99.5 -41.5t-99.5 41.5t-41.5 100.5z" />
<glyph unicode="&#xf7;" horiz-adv-x="1157" d="M193 473v88q0 11 10 22t24 11h686q14 0 24.5 -11t10.5 -22v-88q0 -14 -10 -23.5t-25 -9.5l-686 -2q-15 0 -24.5 10.5t-9.5 24.5zM438 141q0 59 42 100.5t100 41.5t99.5 -41.5t41.5 -100.5t-41.5 -100t-99.5 -41q-59 0 -100.5 41.5t-41.5 99.5zM438 891q0 58 41.5 99.5 t100.5 41.5q58 0 99.5 -41t41.5 -100t-41.5 -100t-99.5 -41q-59 0 -100.5 41.5t-41.5 99.5z" />
<glyph unicode="&#xf8;" horiz-adv-x="1155" d="M174 344v270q0 154 115 261.5t282 107.5q81 0 154 -31l111 226q6 12 18.5 17t24.5 -1l82 -41q12 -6 17 -18.5t-1 -24.5l-121 -246q105 -105 105 -250v-270q0 -154 -114.5 -262.5t-275.5 -108.5q-70 0 -141 23l-80 -166q-6 -12 -19.5 -16t-25.5 2l-82 39q-12 6 -16 19.5 t2 25.5l86 176q-121 108 -121 268zM336 334q0 -60 31 -111l295 600q-46 19 -95 19q-95 0 -163 -64t-68 -155v-289zM494 125q38 -10 73 -10q95 0 164.5 65t69.5 154v289q0 41 -21 88z" />
<glyph unicode="&#xf9;" horiz-adv-x="1148" d="M145 348v572q0 20 12 32.5t31 12.5h101q19 0 31 -12t12 -31v-603q0 -155 139 -155q61 0 137 27t140 65v664q0 20 12 32.5t31 12.5h106q19 0 31 -12t12 -31v-879q0 -19 -12 -31t-31 -12h-96q-12 0 -21 7.5t-10 19.5l-12 57q-175 -98 -324 -98q-132 0 -210.5 87.5 t-78.5 274.5zM271.5 1482.5q9.5 18.5 35.5 18.5h137q27 0 38.5 -8t23.5 -35l131 -282q18 -44 -19 -62l-40 -20q-23 -11 -37 -8t-27 22l-238 336q-14 20 -4.5 38.5z" />
<glyph unicode="&#xfa;" horiz-adv-x="1148" d="M145 348v572q0 20 12 32.5t31 12.5h101q19 0 31 -12t12 -31v-603q0 -155 139 -155q61 0 137 27t140 65v664q0 20 12 32.5t31 12.5h106q19 0 31 -12t12 -31v-879q0 -19 -12 -31t-31 -12h-96q-12 0 -21 7.5t-10 19.5l-12 57q-175 -98 -324 -98q-132 0 -210.5 87.5 t-78.5 274.5zM414 1176l131 282q12 27 23 35t38 8h137q26 0 35.5 -18.5t-4.5 -38.5l-237 -336q-13 -19 -27 -22t-37 8l-41 20q-36 17 -18 62z" />
<glyph unicode="&#xfb;" horiz-adv-x="1148" d="M145 348v572q0 20 12 32.5t31 12.5h101q19 0 31 -12t12 -31v-603q0 -155 139 -155q61 0 137 27t140 65v664q0 20 12 32.5t31 12.5h106q19 0 31 -12t12 -31v-879q0 -19 -12 -31t-31 -12h-96q-12 0 -21 7.5t-10 19.5l-12 57q-175 -98 -324 -98q-132 0 -210.5 87.5 t-78.5 274.5zM279 1204l147 162q2 2 10 10.5t10.5 11t9.5 10t11 10t11 7.5t12 7t12 5t14.5 4t15.5 1q23 0 44.5 -12t30 -20t32.5 -34l147 -162q25 -28 -2 -55l-34 -35q-22 -22 -45 -2l-173 148l-172 -148q-23 -20 -45 2l-34 35q-27 27 -2 55z" />
<glyph unicode="&#xfc;" horiz-adv-x="1148" d="M145 348v572q0 20 12 32.5t31 12.5h101q19 0 31 -12t12 -31v-603q0 -155 139 -155q61 0 137 27t140 65v664q0 20 12 32.5t31 12.5h106q19 0 31 -12t12 -31v-879q0 -19 -12 -31t-31 -12h-96q-12 0 -21 7.5t-10 19.5l-12 57q-175 -98 -324 -98q-132 0 -210.5 87.5 t-78.5 274.5zM197 1264q0 58 41.5 99.5t99.5 41.5t99.5 -41.5t41.5 -99.5q0 -59 -41.5 -100.5t-99.5 -41.5t-99.5 41.5t-41.5 100.5zM596 1264q0 58 41 99.5t100 41.5t100.5 -41.5t41.5 -99.5t-41.5 -100t-100.5 -42q-58 0 -99.5 41.5t-41.5 100.5z" />
<glyph unicode="&#xfd;" horiz-adv-x="1159" d="M145 348v572q0 20 12 32.5t31 12.5h101q19 0 31 -12t12 -31v-603q0 -157 135 -157q61 0 140 29.5t147 72.5v656q0 45 37 45h106q19 0 31 -12t12 -31v-953q0 -81 -16.5 -142.5t-50.5 -102t-76 -67t-102.5 -40t-120 -18.5t-138.5 -5h-59q-20 0 -34.5 15t-14.5 35v65 q0 20 14.5 34.5t34.5 14.5q72 0 118 2t92 7.5t72.5 17t50.5 29t35.5 45.5t18 64.5t6.5 86.5v84q-163 -108 -336 -108q-132 0 -210.5 90t-78.5 272zM457 1176l131 282q12 27 23 35t38 8h137q26 0 35.5 -18.5t-4.5 -38.5l-237 -336q-13 -19 -27 -22t-37 8l-41 20 q-36 17 -18 62z" />
<glyph unicode="&#xff;" horiz-adv-x="1159" d="M145 348v572q0 20 12 32.5t31 12.5h101q19 0 31 -12t12 -31v-603q0 -157 135 -157q61 0 140 29.5t147 72.5v656q0 45 37 45h106q19 0 31 -12t12 -31v-953q0 -81 -16.5 -142.5t-50.5 -102t-76 -67t-102.5 -40t-120 -18.5t-138.5 -5h-59q-20 0 -34.5 15t-14.5 35v65 q0 20 14.5 34.5t34.5 14.5q72 0 118 2t92 7.5t72.5 17t50.5 29t35.5 45.5t18 64.5t6.5 86.5v84q-163 -108 -336 -108q-132 0 -210.5 90t-78.5 272zM207 1264q0 58 41.5 99.5t99.5 41.5t99.5 -41.5t41.5 -99.5q0 -59 -41.5 -100.5t-99.5 -41.5t-99.5 41.5t-41.5 100.5z M606 1264q0 58 41.5 99.5t100.5 41.5q58 0 99.5 -41.5t41.5 -99.5q0 -59 -41.5 -100.5t-99.5 -41.5t-100 42t-42 100z" />
<glyph unicode="&#x152;" horiz-adv-x="1794" d="M193 348v561q0 156 122.5 265.5t296.5 109.5q131 0 242 -65q5 19 20 32t35 13h697q19 0 31 -12t12 -31v-88q0 -19 -12 -31t-31 -12h-568v-285h305q18 0 32 -12.5t14 -30.5v-84q0 -18 -14 -31.5t-32 -13.5h-305v-459h568q19 0 31 -12t12 -31v-88q0 -19 -12 -31t-31 -12 h-697q-41 0 -55 39q-109 -66 -242 -66q-174 0 -296.5 109.5t-122.5 265.5zM379 346q0 -82 71 -141.5t166 -59.5q90 0 161 57t75 136v582q-4 79 -75 135.5t-161 56.5q-95 0 -166 -59.5t-71 -141.5v-565z" />
<glyph unicode="&#x153;" horiz-adv-x="1701" d="M164 354v256q0 156 115.5 264.5t283.5 108.5q91 0 169.5 -36.5t133.5 -100.5q53 64 130 100.5t165 36.5q163 0 278 -109.5t115 -265.5v-108q0 -35 -25.5 -60.5t-60.5 -25.5h-516v-45q0 -48 8.5 -82t30.5 -58t50 -38t76.5 -22t100 -10.5t130.5 -2.5q20 0 32.5 -13.5 t12.5 -33.5v-62q0 -20 -12.5 -33.5t-32.5 -13.5h-76q-152 0 -251 23t-159 88q-55 -61 -133 -96t-166 -35q-168 0 -283.5 109t-115.5 265zM348 344q0 -80 62.5 -139.5t148.5 -59.5t149.5 59.5t63.5 139.5v274q0 81 -63 140t-150 59q-86 0 -148.5 -58.5t-62.5 -140.5v-274z M954 569h424v52q0 83 -62.5 141.5t-150.5 58.5q-87 0 -149 -58.5t-62 -141.5v-52z" />
<glyph unicode="&#x178;" horiz-adv-x="1183" d="M155.5 1196.5q2.5 17.5 14.5 26.5l74 57q15 10 33.5 7t27.5 -17l283 -418l280 418q9 14 28 17t34 -7l74 -57q12 -9 14.5 -26.5t-6.5 -29.5l-332 -485v-639q0 -19 -11 -31t-30 -12h-102q-18 0 -30.5 12.5t-12.5 30.5v639l-332 485q-9 12 -6.5 29.5zM250 1597 q0 59 41.5 100.5t99.5 41.5t99.5 -41.5t41.5 -100.5t-41 -100t-100 -41t-100 41t-41 100zM649 1597q0 59 41.5 100.5t100.5 41.5q58 0 99.5 -41.5t41.5 -100.5t-41 -100t-100 -41t-100.5 41.5t-41.5 99.5z" />
<glyph unicode="&#x2c6;" horiz-adv-x="933" d="M213 1204l147 162q41 43 60 54q22 12 47 12q8 0 15.5 -1t14.5 -4t12 -5t12 -7t11 -7.5t11 -10t9.5 -10t10.5 -11t10 -10.5l148 -162q25 -28 -2 -55l-35 -35q-22 -22 -45 -2l-172 148l-172 -148q-23 -20 -45 2l-35 35q-27 27 -2 55z" />
<glyph unicode="&#x2dc;" horiz-adv-x="1011" d="M202 1184q-3 11 3 24q24 65 70 105.5t114 40.5q46 0 126.5 -33t119.5 -33q48 0 76 49q16 26 43 11l41 -21q18 -8 21 -19t-3 -24q-24 -65 -70 -105t-114 -40q-43 0 -122.5 32.5t-123.5 32.5q-48 0 -76 -49q-15 -25 -43 -10l-41 20q-18 8 -21 19z" />
<glyph unicode="&#x2000;" horiz-adv-x="917" />
<glyph unicode="&#x2001;" horiz-adv-x="1835" />
<glyph unicode="&#x2002;" horiz-adv-x="917" />
<glyph unicode="&#x2003;" horiz-adv-x="1835" />
<glyph unicode="&#x2004;" horiz-adv-x="611" />
<glyph unicode="&#x2005;" horiz-adv-x="458" />
<glyph unicode="&#x2006;" horiz-adv-x="305" />
<glyph unicode="&#x2007;" horiz-adv-x="305" />
<glyph unicode="&#x2008;" horiz-adv-x="229" />
<glyph unicode="&#x2009;" horiz-adv-x="367" />
<glyph unicode="&#x200a;" horiz-adv-x="101" />
<glyph unicode="&#x2010;" d="M205 461v96q0 17 12 29t31 12h637q16 0 28.5 -12t12.5 -29v-96q0 -17 -12.5 -29t-28.5 -12h-637q-19 0 -31 12t-12 29z" />
<glyph unicode="&#x2011;" d="M205 461v96q0 17 12 29t31 12h637q16 0 28.5 -12t12.5 -29v-96q0 -17 -12.5 -29t-28.5 -12h-637q-19 0 -31 12t-12 29z" />
<glyph unicode="&#x2012;" d="M205 461v96q0 17 12 29t31 12h637q16 0 28.5 -12t12.5 -29v-96q0 -17 -12.5 -29t-28.5 -12h-637q-19 0 -31 12t-12 29z" />
<glyph unicode="&#x2013;" horiz-adv-x="952" d="M205 920v112q0 15 11 26t28 11h469q14 0 24.5 -11t10.5 -26v-112q0 -17 -10.5 -28t-24.5 -11h-469q-17 0 -28 11t-11 28z" />
<glyph unicode="&#x2014;" horiz-adv-x="1187" d="M197 461v96q0 17 12 29t31 12h698q16 0 28.5 -12t12.5 -29v-96q0 -17 -12.5 -29t-28.5 -12h-698q-19 0 -31 12t-12 29z" />
<glyph unicode="&#x2018;" horiz-adv-x="569" d="M188 637v520q0 19 12.5 32t32.5 13h95q19 0 32 -13t13 -32v-520q0 -17 -13 -30t-32 -13h-95q-20 0 -32.5 12.5t-12.5 30.5z" />
<glyph unicode="&#x2019;" horiz-adv-x="569" d="M188 637v520q0 19 12.5 32t32.5 13h95q19 0 32 -13t13 -32v-520q0 -17 -13 -30t-32 -13h-95q-20 0 -32.5 12.5t-12.5 30.5z" />
<glyph unicode="&#x201a;" horiz-adv-x="499" d="M125 -242l88 430h162l-166 -430h-84z" />
<glyph unicode="&#x201c;" horiz-adv-x="942" d="M193 637v520q0 19 11.5 32t31.5 13h96q17 0 30 -13t13 -32v-520q0 -17 -13 -30t-30 -13h-96q-20 0 -31.5 12.5t-11.5 30.5zM555 637v520q0 19 11.5 32t31.5 13h96q17 0 30 -13t13 -32v-520q0 -17 -13 -30t-30 -13h-96q-20 0 -31.5 12.5t-11.5 30.5z" />
<glyph unicode="&#x201d;" horiz-adv-x="942" d="M193 637v520q0 19 11.5 32t31.5 13h96q17 0 30 -13t13 -32v-520q0 -17 -13 -30t-30 -13h-96q-20 0 -31.5 12.5t-11.5 30.5zM555 637v520q0 19 11.5 32t31.5 13h96q17 0 30 -13t13 -32v-520q0 -17 -13 -30t-30 -13h-96q-20 0 -31.5 12.5t-11.5 30.5z" />
<glyph unicode="&#x201e;" horiz-adv-x="792" d="M82 559q0 10 22 84l80 260q27 84 97 84q79 0 79 -67q0 -24 -30 -82l-160 -228q-47 -71 -72 -71q-16 0 -16 20zM387 559q0 7 25 84l82 260q24 84 94 84q80 0 80 -67q0 -22 -31 -82l-160 -228q-50 -71 -69 -71q-21 0 -21 20z" />
<glyph unicode="&#x2022;" horiz-adv-x="716" d="M113 678q0 105 71 176q71 74 178 74q108 0 179 -74q73 -70 73 -176t-73 -179t-179 -73q-105 0 -177 73t-72 179z" />
<glyph unicode="&#x2026;" horiz-adv-x="1888" d="M199 115q0 56 40 96.5t95 40.5t95 -40.5t40 -96.5q0 -55 -39.5 -95t-95.5 -40t-95.5 40t-39.5 95zM797 115q0 56 40 96.5t95 40.5t95 -40.5t40 -96.5q0 -55 -39.5 -95t-95.5 -40t-95.5 40t-39.5 95zM1393 115q0 55 40.5 96t96.5 41q55 0 95 -40.5t40 -96.5 q0 -55 -39.5 -95t-95.5 -40t-96.5 40t-40.5 95z" />
<glyph unicode="&#x202f;" horiz-adv-x="367" />
<glyph unicode="&#x2039;" horiz-adv-x="937" d="M195 494q0 56 32 88l369 368q14 14 31 14t30 -14l60 -59q12 -12 11 -30t-13 -30l-328 -331v-13l328 -331q12 -12 13 -30t-11 -30l-60 -59q-13 -13 -30 -13t-31 13l-369 369q-32 32 -32 88z" />
<glyph unicode="&#x203a;" horiz-adv-x="937" d="M196 126q1 18 13 30l328 331v13l-328 331q-12 12 -13 30t11 30l59 59q14 14 31 14t31 -14l368 -368q33 -33 33 -88t-33 -88l-368 -369q-14 -13 -31 -13t-31 13l-59 59q-12 12 -11 30z" />
<glyph unicode="&#x205f;" horiz-adv-x="458" />
<glyph unicode="&#x20ac;" horiz-adv-x="1116" d="M152 446v76q0 19 12 31t31 12h129v121h-129q-19 0 -31 12t-12 31v76q0 19 12 31t31 12h129v35q0 96 25.5 165t67 109t109.5 63t136.5 30t164.5 7h60q20 0 34.5 -14.5t14.5 -34.5v-65q0 -20 -14.5 -34.5t-34.5 -14.5q-75 0 -115 -1t-89 -5.5t-71.5 -15t-47.5 -27 t-34.5 -44t-15 -64.5t-4.5 -89h252q19 0 31 -12t12 -31v-76q0 -19 -12 -31t-31 -12h-252v-121h252q19 0 31 -12t12 -31v-76q0 -19 -12 -31t-31 -12h-252q-1 -37 0.5 -65.5t8.5 -52t13.5 -41t23 -31.5t29.5 -23t40.5 -15t48.5 -9.5t60.5 -5t69.5 -2t83 -0.5q20 0 34.5 -14.5 t14.5 -34.5v-66q0 -20 -14.5 -34.5t-34.5 -14.5h-60q-79 0 -138 5t-120 18.5t-102.5 40t-75.5 67t-50.5 102t-16.5 142.5v34h-129q-19 0 -31 12t-12 31z" />
<glyph unicode="&#x2122;" horiz-adv-x="1144" d="M184 1200v39q0 7 5.5 12.5t13.5 5.5h321q8 0 13.5 -5.5t5.5 -12.5v-39q0 -9 -5.5 -14.5t-13.5 -5.5h-121v-471q0 -19 -18 -19h-45q-9 0 -15 5.5t-6 13.5v471h-116q-8 0 -13.5 5.5t-5.5 14.5zM602 709v524q0 9 8.5 16.5t18.5 7.5h26q25 0 33 -18l92 -186h4l90 186 q8 18 33 18h27q10 0 18.5 -7.5t8.5 -16.5v-524q0 -7 -5.5 -13t-13.5 -6h-43q-7 0 -12.5 5.5t-5.5 13.5v385h-4l-64 -121q-11 -23 -31 -23t-32 23l-64 121h-4v-385q0 -19 -18 -19h-43q-7 0 -13 6t-6 13z" />
<glyph unicode="&#x25fc;" horiz-adv-x="993" d="M0 0v993h993v-993h-993z" />
<glyph unicode="&#xfb01;" horiz-adv-x="1800" d="M158 45v76q0 20 12 31.5t31 11.5h129v637h-129q-19 0 -31 12t-12 31v78q0 19 12 31t31 12h129v34q0 81 16.5 142.5t50.5 102t76 67t102.5 40t120 18.5t138.5 5h59q20 0 34.5 -14.5t14.5 -34.5v-65q0 -20 -14.5 -35t-34.5 -15q-53 0 -83 -0.5t-69.5 -2t-60.5 -5 t-48.5 -9.5t-40.5 -15t-29.5 -23t-23 -31.5t-13.5 -41t-8.5 -52t-0.5 -65.5h741q32 0 55 -23t23 -55v-723h254q19 0 31 -11.5t12 -31.5v-76q0 -19 -12 -32t-31 -13h-1388q-19 0 -31 13t-12 32zM516 164h633v637h-633v-637zM1059 1264q0 58 41.5 99.5t99.5 41.5t99.5 -41.5 t41.5 -99.5q0 -59 -41.5 -100.5t-99.5 -41.5t-99.5 41.5t-41.5 100.5z" />
<glyph unicode="&#xfb02;" horiz-adv-x="1910" d="M197 45v76q0 20 12 31.5t31 11.5h129v637h-129q-19 0 -31 12t-12 31v78q0 19 12 31t31 12h129v34q0 81 16.5 142.5t50.5 102t75.5 67t102.5 40t120 18.5t138 5h494q32 0 55 -23t23 -55v-1132h254q19 0 31 -11.5t12 -31.5v-76q0 -19 -12 -32t-31 -13h-1458q-19 0 -31 13 t-12 32zM555 164h705v1046h-388q-81 0 -129 -4.5t-89.5 -18t-61 -41t-29.5 -71t-8 -110.5h287q19 0 31 -12t12 -31v-78q0 -19 -12 -31t-31 -12h-287v-637z" />
</font>
</defs>
</svg>
