<?xml version="1.0" encoding="utf-8"?>
<!-- Generator: Adobe Illustrator 16.0.0, SVG Export Plug-In . SVG Version: 6.00 Build 0)  -->
<!DOCTYPE svg PUBLIC "-//W3C//DTD SVG 1.1//EN" "http://www.w3.org/Graphics/SVG/1.1/DTD/svg11.dtd">
<svg version="1.1" id="Layer_1" xmlns="http://www.w3.org/2000/svg" xmlns:xlink="http://www.w3.org/1999/xlink" x="0px" y="0px"
	 width="80px" height="80px" viewBox="0 0 80 80" enable-background="new 0 0 80 80" xml:space="preserve">
<g>
	
		<ellipse fill="#00A585" stroke="#000000" stroke-width="2.5" stroke-linecap="round" stroke-linejoin="round" stroke-miterlimit="10" cx="40" cy="40" rx="37.951" ry="37.246"/>
	
		<ellipse fill="#FFFFFF" stroke="#000000" stroke-width="2.5" stroke-linecap="round" stroke-linejoin="round" stroke-miterlimit="10" cx="40" cy="40" rx="31.995" ry="31.4"/>
	
		<ellipse fill="#00A585" stroke="#000000" stroke-width="1.5" stroke-linecap="round" stroke-linejoin="round" stroke-miterlimit="10" cx="40" cy="40" rx="27.764" ry="27.248"/>
	
		<path fill="#FFFFFF" stroke="#000000" stroke-width="2.5" stroke-linecap="round" stroke-linejoin="round" stroke-miterlimit="10" d="
		M56.325,43.434c0.75,0,1.357-0.609,1.357-1.359v-4.152c0-0.75-0.607-1.358-1.357-1.358l-22.219,0.002l9.922-9.927
		c0.531-0.53,0.531-1.391,0-1.921l-2.936-2.937c-0.53-0.53-1.391-0.53-1.921,0l-15.786,15.79c-0.047,0.046-0.088,0.097-0.132,0.145
		c-0.579,0.587-0.938,1.394-0.938,2.284c0,0.856,0.334,1.632,0.874,2.214c0.063,0.072,0.126,0.145,0.195,0.215l15.786,15.789
		c0.53,0.529,1.391,0.529,1.921,0l2.936-2.938c0.531-0.529,0.531-1.389,0-1.92L34.1,43.428L56.325,43.434z"/>
</g>
</svg>
