<?xml version="1.0" encoding="utf-8"?>
<!-- Generator: Adobe Illustrator 16.0.0, SVG Export Plug-In . SVG Version: 6.00 Build 0)  -->
<!DOCTYPE svg PUBLIC "-//W3C//DTD SVG 1.1//EN" "http://www.w3.org/Graphics/SVG/1.1/DTD/svg11.dtd">
<svg version="1.1" id="Layer_1" xmlns="http://www.w3.org/2000/svg" xmlns:xlink="http://www.w3.org/1999/xlink" x="0px" y="0px"
	 width="84.5px" height="84px" viewBox="-2.5 0 84.5 84" enable-background="new -2.5 0 84.5 84" xml:space="preserve">
<g>
	<g>
		
			<ellipse fill="#7BE95A" stroke="#000000" stroke-width="3" stroke-linecap="round" stroke-linejoin="round" stroke-miterlimit="10" cx="40" cy="42.751" rx="39.735" ry="38.999"/>
		
			<ellipse fill="#FFFFFF" stroke="#000000" stroke-width="2.5" stroke-linecap="round" stroke-linejoin="round" stroke-miterlimit="10" cx="40" cy="42.751" rx="33.499" ry="32.875"/>
		
			<ellipse fill="#7BE95A" stroke="#000000" stroke-width="1.5" stroke-linecap="round" stroke-linejoin="round" stroke-miterlimit="10" cx="40" cy="42.751" rx="29.068" ry="28.528"/>
	</g>
	<g>
		
			<path fill="#FFFFFF" stroke="#000000" stroke-width="2.5" stroke-linecap="round" stroke-linejoin="round" stroke-miterlimit="10" d="
			M43.493,27.304l3.35-2.479c0.537-0.398,0.651-1.156,0.251-1.693l-1.899-2.567c-0.399-0.54-1.155-0.651-1.693-0.252l-10.345,7.659
			c-0.536,0.399-0.651,1.156-0.252,1.694l7.66,10.344c0.398,0.538,1.155,0.65,1.693,0.251l2.594-1.92
			c0.537-0.399,0.651-1.156,0.253-1.694l-2.831-3.829c5.162,1.055,9.056,5.632,9.056,11.102c0,6.246-5.083,11.329-11.329,11.329
			s-11.329-5.084-11.329-11.331l-0.073-1.643c0-0.669-0.544-1.211-1.211-1.211h-3.155c-0.669,0-1.21,0.542-1.21,1.211v1.643
			c0,9.361,7.617,16.979,16.979,16.979s16.979-7.615,16.979-16.979C56.979,35.754,51.184,28.917,43.493,27.304z"/>
	</g>
</g>
</svg>
