<?xml version="1.0" encoding="utf-8"?>
<!-- Generator: Adobe Illustrator 16.0.0, SVG Export Plug-In . SVG Version: 6.00 Build 0)  -->
<!DOCTYPE svg PUBLIC "-//W3C//DTD SVG 1.1//EN" "http://www.w3.org/Graphics/SVG/1.1/DTD/svg11.dtd">
<svg version="1.1" id="Layer_1" xmlns="http://www.w3.org/2000/svg" xmlns:xlink="http://www.w3.org/1999/xlink" x="0px" y="0px"
	 width="107px" height="107.5px" viewBox="0 0 107 107.5" enable-background="new 0 0 107 107.5" xml:space="preserve">
<g>
	<g>
		<g>
			<circle id="SVGID_1_" fill="#3B5998" cx="53.5" cy="53.75" r="49.507"/>
		</g>
		<g>
			
				<circle id="SVGID_2_" fill="none" stroke="#000000" stroke-width="2.5" stroke-miterlimit="10" cx="53.5" cy="53.75" r="49.507"/>
		</g>
	</g>
	
		<circle fill="#FFFFFF" stroke="#000000" stroke-width="2.5" stroke-linecap="round" stroke-linejoin="round" stroke-miterlimit="10" cx="53.5" cy="53.752" r="44.796"/>
	<g>
		<g>
			<circle id="SVGID_3_" fill="#3B5998" cx="53.501" cy="53.752" r="40"/>
		</g>
		<g>
			<circle id="SVGID_4_" fill="none" stroke="#000000" stroke-width="1.5" stroke-miterlimit="10" cx="53.501" cy="53.752" r="40"/>
		</g>
	</g>
	
		<path fill="#FFFFFF" stroke="#000000" stroke-width="1.5" stroke-linecap="round" stroke-linejoin="round" stroke-miterlimit="10" d="
		M40.939,47.272c2.465,0,4.756,0,7.273,0c0-2.176-0.023-4.197,0.004-6.219c0.096-7.418,4.17-11.457,11.58-11.466
		c1.633,0,3.273,0.033,4.891,0.22c0.484,0.055,1.271,0.655,1.293,1.043c0.127,2.153,0.062,4.319,0.062,6.75
		c-1.793,0-3.408-0.07-5.017,0.016c-2.731,0.145-3.76,1.219-3.846,3.971c-0.059,1.822-0.012,3.646-0.012,5.717
		c2.91,0,5.66,0,8.563,0c-0.408,3.012-0.778,5.754-1.164,8.609c-2.459,0-4.76,0-7.295,0c0,7.367,0,14.602,0,22.002
		c-3.1,0-5.967,0-9.008,0c0-7.26,0-14.449,0-21.873c-2.5,0-4.84,0-7.324,0C40.939,53.067,40.939,50.321,40.939,47.272z"/>
</g>
</svg>
