<?xml version="1.0" encoding="utf-8"?>
<!-- Generator: Adobe Illustrator 16.0.0, SVG Export Plug-In . SVG Version: 6.00 Build 0)  -->
<!DOCTYPE svg PUBLIC "-//W3C//DTD SVG 1.1//EN" "http://www.w3.org/Graphics/SVG/1.1/DTD/svg11.dtd">
<svg version="1.1" id="Layer_1" xmlns="http://www.w3.org/2000/svg" xmlns:xlink="http://www.w3.org/1999/xlink" x="0px" y="0px"
	 width="107px" height="107.5px" viewBox="0 0 107 107.5" enable-background="new 0 0 107 107.5" xml:space="preserve">
<g>
	<g>
		<g>
			<circle id="SVGID_1_" fill="#DD4B39" cx="53.5" cy="53.75" r="49.508"/>
		</g>
		<g>
			
				<circle id="SVGID_2_" fill="none" stroke="#000000" stroke-width="2.5" stroke-miterlimit="10" cx="53.5" cy="53.75" r="49.508"/>
		</g>
	</g>
	
		<circle fill="#FFFFFF" stroke="#000000" stroke-width="2.5" stroke-linecap="round" stroke-linejoin="round" stroke-miterlimit="10" cx="53.5" cy="53.75" r="44.795"/>
	<g>
		<g>
			<circle id="SVGID_3_" fill="#DD4B39" cx="53.5" cy="53.75" r="40"/>
		</g>
		<g>
			<circle id="SVGID_4_" fill="none" stroke="#000000" stroke-width="1.5" stroke-miterlimit="10" cx="53.5" cy="53.75" r="40"/>
		</g>
	</g>
	<g>
		
			<path fill="#FFFFFF" stroke="#000000" stroke-width="1.5" stroke-linecap="round" stroke-linejoin="round" stroke-miterlimit="10" d="
			M72.475,63.796c0,1.312-1.063,2.372-2.373,2.372H36.896c-1.311,0-2.371-1.063-2.371-2.372V43.703c0-1.311,1.062-2.371,2.371-2.371
			h33.205c1.31,0,2.371,1.063,2.371,2.371v20.093H72.475z"/>
		
			<path fill="#FFFFFF" stroke="#000000" stroke-width="1.5" stroke-linecap="round" stroke-linejoin="round" stroke-miterlimit="10" d="
			M70.102,66.168c0.101,0,0.195-0.018,0.291-0.029L58.366,54.111L55.178,57.3c-0.928,0.927-2.429,0.927-3.355,0l-3.188-3.188
			L36.605,66.139c0.098,0.012,0.19,0.029,0.291,0.029H70.102z"/>
		
			<path fill="#FFFFFF" stroke="#000000" stroke-width="1.5" stroke-linecap="round" stroke-linejoin="round" stroke-miterlimit="10" d="
			M70.102,41.332H36.896c-0.31,0-0.603,0.063-0.873,0.171l15.799,15.798c0.927,0.928,2.428,0.928,3.354,0l15.799-15.798
			C70.705,41.395,70.411,41.332,70.102,41.332z"/>
	</g>
	<g>
		
			<path fill="#FFFFFF" stroke="#000000" stroke-width="2" stroke-linecap="round" stroke-linejoin="round" stroke-miterlimit="10" d="
			M72.475,63.796c0,1.312-1.063,2.372-2.373,2.372H36.896c-1.311,0-2.371-1.063-2.371-2.372V43.703c0-1.311,1.062-2.371,2.371-2.371
			h33.205c1.31,0,2.371,1.063,2.371,2.371v20.093H72.475z"/>
		
			<path fill="#FFFFFF" stroke="#000000" stroke-width="2" stroke-linecap="round" stroke-linejoin="round" stroke-miterlimit="10" d="
			M70.102,66.168c0.101,0,0.195-0.018,0.291-0.029L58.366,54.111L55.178,57.3c-0.928,0.927-2.429,0.927-3.355,0l-3.188-3.188
			L36.605,66.139c0.098,0.012,0.19,0.029,0.291,0.029H70.102z"/>
		
			<path fill="#FFFFFF" stroke="#000000" stroke-width="2" stroke-linecap="round" stroke-linejoin="round" stroke-miterlimit="10" d="
			M70.102,41.332H36.896c-0.31,0-0.603,0.063-0.873,0.171l15.799,15.798c0.927,0.928,2.428,0.928,3.354,0l15.799-15.798
			C70.705,41.395,70.411,41.332,70.102,41.332z"/>
	</g>
</g>
</svg>
