<?xml version="1.0" encoding="utf-8"?>
<!-- Generator: Adobe Illustrator 16.0.0, SVG Export Plug-In . SVG Version: 6.00 Build 0)  -->
<!DOCTYPE svg PUBLIC "-//W3C//DTD SVG 1.1//EN" "http://www.w3.org/Graphics/SVG/1.1/DTD/svg11.dtd">
<svg version="1.1" id="Layer_1" xmlns="http://www.w3.org/2000/svg" xmlns:xlink="http://www.w3.org/1999/xlink" x="0px" y="0px"
	 width="107px" height="107.5px" viewBox="0 0 107 107.5" enable-background="new 0 0 107 107.5" xml:space="preserve">
<g>
	<g>
		<g>
			<circle id="SVGID_1_" fill="#00ACED" cx="53.5" cy="53.75" r="49.507"/>
		</g>
		<g>
			
				<circle id="SVGID_2_" fill="none" stroke="#000000" stroke-width="2.5" stroke-miterlimit="10" cx="53.5" cy="53.75" r="49.507"/>
		</g>
	</g>
	
		<circle fill="#FFFFFF" stroke="#000000" stroke-width="2.5" stroke-linecap="round" stroke-linejoin="round" stroke-miterlimit="10" cx="53.5" cy="53.75" r="44.795"/>
	<g>
		<g>
			<circle id="SVGID_3_" fill="#00ACED" cx="53.5" cy="53.75" r="40"/>
		</g>
		<g>
			<circle id="SVGID_4_" fill="none" stroke="#000000" stroke-width="1.5" stroke-miterlimit="10" cx="53.5" cy="53.75" r="40"/>
		</g>
	</g>
	<g>
		<path fill="#FFFFFF" d="M46.498,74.232c-4.117,0-8.26-1.151-11.979-3.332c-0.291-0.17-0.432-0.512-0.347-0.836
			c0.085-0.326,0.376-0.555,0.712-0.562c3.026-0.056,6.189-0.378,9.069-2.172c-2.825-0.874-4.688-2.603-5.798-5.349
			c-0.09-0.223-0.068-0.475,0.059-0.678s0.344-0.334,0.584-0.352l0.508-0.036c-2.522-1.653-3.801-3.912-3.975-6.958
			c-0.014-0.238,0.087-0.469,0.271-0.621c0.135-0.113,0.306-0.172,0.479-0.172c0.061,0,0.122,0.007,0.182,0.021l0.959,0.238
			c-2.147-2.941-2.377-5.949-0.748-9.32c0.109-0.227,0.323-0.383,0.571-0.418c0.035-0.004,0.07-0.006,0.104-0.006
			c0.211,0,0.416,0.09,0.559,0.25c4.146,4.635,8.891,7.146,14.479,7.658c0-0.146,0-0.285-0.006-0.425
			c-0.15-3.582,1.404-6.337,4.5-7.97c1.293-0.684,2.619-1.029,3.94-1.029c1.728,0,3.472,0.59,5.183,1.754
			c0.309,0.209,0.83,0.339,1.363,0.339c0.16,0,0.316-0.012,0.461-0.036c0.405-0.07,0.823-0.209,1.268-0.357
			c0.608-0.202,1.299-0.432,2.094-0.52c0.027-0.004,0.056-0.006,0.082-0.006c0.266,0,0.514,0.141,0.648,0.373
			c0.149,0.258,0.133,0.578-0.041,0.818l-1.414,1.943l1.674-0.381c0.057-0.014,0.111-0.02,0.166-0.02c0.266,0,0.516,0.14,0.65,0.376
			c0.164,0.286,0.123,0.646-0.102,0.886c-0.338,0.361-0.641,0.704-0.922,1.025c-0.627,0.709-1.168,1.324-1.82,1.849
			c-0.594,0.479-0.793,0.929-0.824,1.853C68.665,64.496,58.744,74.232,46.498,74.232z"/>
		<path d="M60.619,42.919c1.615,0,3.205,0.565,4.76,1.624c0.467,0.316,1.15,0.469,1.786,0.469c0.204,0,0.401-0.016,0.587-0.047
			c1.055-0.18,2.044-0.729,3.316-0.871c-0.819,1.129-1.641,2.258-2.588,3.563c1.133-0.26,2.125-0.487,3.621-0.827
			c-1.064,1.144-1.772,2.086-2.662,2.801c-0.828,0.668-1.069,1.377-1.104,2.412c-0.427,12.663-10.535,21.44-21.837,21.44
			c-3.84,0-7.816-1.012-11.6-3.229c4.072-0.074,7.66-0.688,10.824-3.268c-3.246-0.58-5.584-2.098-6.873-5.283
			c1.004-0.07,1.838-0.133,3.159-0.227c-3.696-1.521-5.716-3.816-5.93-7.56c1.032,0.258,1.914,0.478,3.263,0.812
			c-3.195-3.168-4.084-6.385-2.193-10.295c4.27,4.772,9.367,7.598,15.781,7.967c0-0.51,0.014-0.889-0.002-1.264
			c-0.138-3.275,1.238-5.767,4.1-7.275C58.236,43.223,59.436,42.919,60.619,42.919 M71.068,44.094h0.006 M72.104,46.828h0.004
			 M60.619,41.419c-1.445,0-2.889,0.375-4.292,1.116c-3.238,1.708-4.929,4.544-4.909,8.218c-5.033-0.661-9.35-3.065-13.152-7.319
			c-0.287-0.32-0.695-0.5-1.119-0.5c-0.068,0-0.139,0.006-0.209,0.016c-0.496,0.07-0.924,0.382-1.142,0.832
			c-1.485,3.074-1.512,5.939-0.063,8.679c-0.221,0.052-0.43,0.155-0.61,0.304c-0.368,0.305-0.567,0.766-0.541,1.241
			c0.157,2.769,1.203,4.978,3.172,6.677c-0.065,0.068-0.125,0.146-0.176,0.229c-0.255,0.408-0.298,0.912-0.118,1.357
			c0.971,2.396,2.523,4.104,4.711,5.166c-2.354,1.057-4.871,1.277-7.3,1.321c-0.673,0.013-1.254,0.47-1.425,1.12
			c-0.17,0.65,0.113,1.334,0.693,1.674c3.836,2.248,8.108,3.436,12.358,3.436c12.653,0,22.903-10.055,23.336-22.891
			c0.024-0.752,0.159-0.982,0.548-1.297c0.701-0.563,1.288-1.229,1.91-1.936c0.27-0.305,0.555-0.629,0.873-0.973
			c0.271-0.271,0.439-0.646,0.439-1.061c0-0.818-0.652-1.482-1.467-1.5c-0.013,0-0.023,0-0.035,0c-0.025,0-0.053,0-0.078,0.002
			l0.062-0.084l0.161-0.221c0.203-0.256,0.324-0.58,0.324-0.932c0-0.826-0.663-1.496-1.487-1.5c-0.005,0-0.011,0-0.015,0
			c-0.021,0-0.039,0-0.06,0c-0.045,0.002-0.089,0.006-0.133,0.012c-0.86,0.099-1.584,0.34-2.222,0.551
			c-0.434,0.145-0.809,0.27-1.156,0.328c-0.1,0.018-0.216,0.027-0.335,0.027c-0.416,0-0.79-0.107-0.944-0.211
			C64.385,42.053,62.499,41.419,60.619,41.419L60.619,41.419z"/>
	</g>
</g>
</svg>
