<?xml version="1.0" encoding="utf-8"?>
<!-- Generator: Adobe Illustrator 16.0.0, SVG Export Plug-In . SVG Version: 6.00 Build 0)  -->
<!DOCTYPE svg PUBLIC "-//W3C//DTD SVG 1.1//EN" "http://www.w3.org/Graphics/SVG/1.1/DTD/svg11.dtd">
<svg version="1.1" id="Layer_1" xmlns="http://www.w3.org/2000/svg" xmlns:xlink="http://www.w3.org/1999/xlink" x="0px" y="0px"
	 width="300px" height="100px" viewBox="0 0 300 100" enable-background="new 0 0 300 100" xml:space="preserve">
<g>
	<g>
		<path d="M126.129,52.948h2.233c1.844,0,3.338-1.494,3.338-3.339c0-1.054,0.336-1.909,1.391-1.909c1.055,0,1.441,0.855,1.441,1.909
			v3.339c0,1.055-0.854,1.91-1.909,1.91h-1.035c-1.844,0-3.338,1.494-3.338,3.338s1.495,3.338,3.338,3.338c0,0,9.046,0,11.259,0
			c0.978,1.215,2.201,2.037,3.53,2.037h4.143h4.143c1.329,0,2.553-0.822,3.529-2.037c2.247,0,11.31,0,11.31,0
			c1.844,0,3.339-1.494,3.339-3.338s-1.495-3.338-3.339-3.338h-1.034c-1.056,0-1.909-0.855-1.909-1.91v-3.339
			c0-1.054,0.387-1.909,1.44-1.909c1.056,0,1.391,0.855,1.391,1.909c0,1.845,1.495,3.339,3.34,3.339h2.231
			c1.066,0,1.936-1.044,1.993-2.109c-0.028-0.549-0.256-1.212-0.612-1.555c-0.103-0.104-0.229-0.182-0.369-0.229v-1.357
			c0-1.42-1.151-2.572-2.573-2.572h-0.271c-1.42,0-2.572,1.152-2.572,2.572v0.376c-0.404-1.07-1.267-1.803-2.557-1.803
			c-1.843,0-2.871,1.495-2.871,3.338v3.339c0,1.844,1.495,3.339,3.34,3.339h1.034c1.055,0,1.909,0.854,1.909,1.909
			s-0.854,1.91-1.909,1.91h-8.749c-0.608,0-1.093-0.082-1.483-0.247c0.749-1.461,1.194-3.136,1.194-4.599v-1.764
			c0-6.273-6.74-16.937-9.943-16.937c-3.202,0-9.941,10.663-9.941,16.937v1.764c0,1.463,0.444,3.138,1.192,4.599
			c-0.39,0.165-0.875,0.247-1.482,0.247h-8.7c-1.055,0-1.91-0.855-1.91-1.91s0.855-1.909,1.91-1.909h1.035
			c1.844,0,3.338-1.495,3.338-3.339v-3.339c0-1.843-1.026-3.338-2.87-3.338c-1.289,0-2.153,0.732-2.556,1.803v-0.376
			c0-1.42-1.152-2.572-2.572-2.572h-0.272c-1.42,0-2.572,1.152-2.572,2.572v1.357c-0.142,0.047-0.268,0.125-0.371,0.229
			c-0.355,0.342-0.583,1.006-0.611,1.555C124.194,51.904,125.063,52.948,126.129,52.948z"/>
	</g>
</g>
<line fill="none" stroke="#000000" stroke-width="2" stroke-linecap="round" stroke-miterlimit="10" x1="192.403" y1="54.884" x2="299.061" y2="54.884"/>
<line fill="none" stroke="#000000" stroke-width="2" stroke-linecap="round" stroke-miterlimit="10" x1="1.007" y1="54.884" x2="108.403" y2="54.884"/>
</svg>
