<?xml version="1.0" encoding="utf-8"?>
<!-- Generator: Adobe Illustrator 16.0.0, SVG Export Plug-In . SVG Version: 6.00 Build 0)  -->
<!DOCTYPE svg PUBLIC "-//W3C//DTD SVG 1.1//EN" "http://www.w3.org/Graphics/SVG/1.1/DTD/svg11.dtd">
<svg version="1.1" id="Layer_1" xmlns="http://www.w3.org/2000/svg" xmlns:xlink="http://www.w3.org/1999/xlink" x="0px" y="0px"
	 width="243.5px" height="149.5px" viewBox="0 0 243.5 149.5" enable-background="new 0 0 243.5 149.5" xml:space="preserve">
<g>
</g>
<g>
	<g>
		<path d="M3.6,16.16c0.488-1.83,2.38-2.074,3.6-1.892c4.881,0.55,16.228,1.708,20.376,1.647c1.708,0,2.928,1.403,2.928,2.807V46.54
			c0,1.587-1.22,2.989-2.867,2.989s-2.928-1.22-2.928-2.989V21.528L5.796,19.576C4.576,19.454,2.99,18.173,3.6,16.16z M4.698,32.082
			c0-1.646,1.403-2.928,2.928-2.928c1.525,0,2.807,1.281,2.807,2.928V46.54c0,1.77-1.22,2.989-2.929,2.989
			c-1.524,0-2.806-1.22-2.806-2.989V32.082z"/>
		<path d="M42.212,14.146l7.626,1.83c1.708,0.428,2.867,2.318,2.379,4.026L49.35,32.388c-0.366,1.586-1.891,2.379-3.538,2.074
			c-1.525-0.428-2.501-1.892-2.196-3.661l2.501-9.699l-5.49-1.342c-1.708-0.488-2.318-2.318-1.952-3.539
			C38.979,15.123,39.955,13.72,42.212,14.146z"/>
		<path d="M61.244,14.086c3.417,0.549,12.689,1.464,17.387,1.83c1.403,0.366,2.501,1.342,2.501,2.867v28.123
			c0,1.77-1.159,2.807-2.928,2.807c-1.525,0-2.867-1.037-2.867-2.807V21.04l-15.679-1.769c-1.83-0.549-2.135-1.83-1.952-3.111
			C57.95,15.001,58.987,13.659,61.244,14.086z"/>
		<path d="M92.293,13.842l7.198,2.014c1.403,0.427,2.929,0.976,2.929,2.989v27.757c0,1.646-1.159,2.806-2.867,2.806
			c-1.586,0-2.929-1.28-2.929-2.806V20.979l-5.917-1.525c-1.647-0.427-2.318-2.318-1.952-3.66
			C88.999,14.757,90.341,13.354,92.293,13.842z"/>
		<path d="M120.536,17.808c0.549,0.243,1.403,0.915,1.464,3.843l0.732,22.267l14.153-1.403l2.135-20.985
			c-3.904-0.427-5.124-0.671-8.906-1.464c-2.136-0.427-2.502-2.014-2.502-3.294c0-1.037,1.099-2.929,3.233-2.502
			c3.538,0.672,6.894,1.77,11.713,2.074c1.525,0.062,2.745,1.465,2.623,2.867l-2.684,25.562c-0.122,1.22-0.671,2.318-1.892,2.562
			l-20.375,2.318c-1.281,0.184-2.44-0.671-2.807-1.952l-1.159-25.622l-5.368-2.806c-1.525-0.671-1.892-2.623-1.281-3.844
			c0.61-1.098,2.074-2.074,3.904-1.281C113.582,14.146,118.218,16.893,120.536,17.808z"/>
		<path d="M182.392,32.144c-1.708,9.333-3.66,16.471-12.933,16.471h-9.944c-1.708-0.183-3.294-1.22-3.294-2.989l-1.83-25.987
			l-1.769-0.122c-0.977-0.062-2.624-1.221-2.38-3.173c0.062-0.609,0.793-2.501,3.6-2.379l27.574,1.525
			c2.44,0.366,3.478,2.074,3.05,4.148L182.392,32.144z M168.36,43.49c6.467,0,6.771-3.722,10.188-22.938l-18.424-0.793l1.708,23.73
			H168.36z"/>
		<path d="M194.345,14.146l7.626,1.83c1.708,0.428,2.867,2.318,2.379,4.026l-2.867,12.385c-0.366,1.586-1.891,2.379-3.538,2.074
			c-1.525-0.428-2.501-1.892-2.196-3.661l2.501-9.699l-5.49-1.342c-1.708-0.488-2.318-2.318-1.952-3.539
			C191.112,15.123,192.088,13.72,194.345,14.146z"/>
		<path d="M212.461,16.16c0.488-1.83,2.38-2.074,3.6-1.892c4.881,0.55,16.228,1.708,20.376,1.647c1.708,0,2.928,1.403,2.928,2.807
			V46.54c0,1.587-1.22,2.989-2.867,2.989s-2.928-1.22-2.928-2.989V21.528l-18.912-1.952
			C213.438,19.454,211.852,18.173,212.461,16.16z M213.56,32.082c0-1.646,1.403-2.928,2.928-2.928c1.525,0,2.807,1.281,2.807,2.928
			V46.54c0,1.77-1.22,2.989-2.929,2.989c-1.524,0-2.806-1.22-2.806-2.989V32.082z"/>
		<path d="M106.823,62.368c0-0.6,0.35-1.175,1.149-1.175c0.725,0,1.2,0.525,1.2,1.175v2.475l7.073,0.375
			c0.6,0.1,1.225,0.725,0.949,1.574l-4.224,11.473c-0.3,0.775-0.975,0.95-1.475,0.8c-0.575-0.149-1.1-0.8-0.825-1.449l3.725-10.198
			l-6.523-0.25c-0.8-0.074-1.025-0.749-1.05-1.324V62.368z"/>
		<path d="M133.494,77.815l-9.723,1.149c-0.625,0.024-1.125-0.524-1.2-1.149l-1.674-8.724c-0.051-0.375,0.05-0.8,0.199-1
			l0.775-1.199l-1.575-0.351c-0.749-0.175-1.124-0.749-0.925-1.35c0.25-0.8,0.976-0.899,1.475-0.749l2.8,0.749
			c0.675,0.2,1.125,0.976,0.725,1.675l-1.199,1.925l1.449,7.823l1.6-0.25l2.225-9.498l-1.675-0.3
			c-0.774-0.149-1.024-0.925-0.899-1.399c0.125-0.425,0.625-0.925,1.374-0.75l2.675,0.625c0.875,0.274,1.199,0.8,1,1.699
			l-2.425,9.349l4.024-0.4l2.199-8.648l-1.75-0.524c-0.449-0.15-0.8-0.6-0.749-1.125c0.05-0.425,0.425-1.1,1.274-0.975l2.749,0.8
			c0.875,0.3,1.15,0.75,0.925,1.649l-2.6,10.048C134.469,77.415,133.994,77.79,133.494,77.815z"/>
		<path d="M3.66,96.16c0.488-1.83,2.38-2.074,3.6-1.892c4.881,0.55,16.228,1.709,20.376,1.647c1.708,0,2.928,1.403,2.928,2.807
			v27.817c0,1.587-1.22,2.99-2.867,2.99s-2.928-1.221-2.928-2.99v-25.012L5.856,99.577C4.637,99.454,3.051,98.173,3.66,96.16z
			 M4.759,112.083c0-1.647,1.403-2.929,2.928-2.929c1.525,0,2.807,1.281,2.807,2.929v14.457c0,1.77-1.22,2.99-2.929,2.99
			c-1.524,0-2.806-1.221-2.806-2.99V112.083z"/>
		<path d="M45.812,94.147l7.626,1.83c1.708,0.427,2.867,2.318,2.379,4.025l-2.867,12.385c-0.366,1.586-1.891,2.379-3.538,2.074
			c-1.525-0.428-2.501-1.892-2.196-3.66l2.501-9.7l-5.49-1.342c-1.708-0.488-2.318-2.318-1.952-3.538
			C42.579,95.123,43.555,93.72,45.812,94.147z"/>
		<path d="M68.625,94.086c3.417,0.55,12.689,1.464,17.387,1.83c1.403,0.366,2.501,1.343,2.501,2.868v28.123
			c0,1.769-1.159,2.806-2.928,2.806c-1.525,0-2.867-1.037-2.867-2.806V101.04l-15.679-1.769c-1.83-0.549-2.135-1.83-1.952-3.111
			C65.331,95.001,66.368,93.659,68.625,94.086z"/>
		<path d="M109.983,97.808c0.549,0.244,1.403,0.915,1.464,3.844l0.732,22.266l14.153-1.402l2.135-20.986
			c-3.904-0.427-5.124-0.671-8.906-1.464c-2.136-0.427-2.502-2.013-2.502-3.294c0-1.037,1.099-2.928,3.233-2.502
			c3.538,0.672,6.894,1.77,11.713,2.074c1.525,0.062,2.745,1.465,2.623,2.867l-2.684,25.562c-0.122,1.22-0.671,2.318-1.892,2.562
			l-20.375,2.318c-1.281,0.184-2.44-0.67-2.807-1.951l-1.159-25.623l-5.368-2.806c-1.525-0.671-1.892-2.623-1.281-3.843
			c0.61-1.099,2.074-2.074,3.904-1.281C103.029,94.147,107.665,96.893,109.983,97.808z"/>
		<path d="M175.377,112.144c-1.708,9.334-3.66,16.471-12.933,16.471h-9.943c-1.709-0.183-3.295-1.22-3.295-2.988l-1.83-25.988
			l-1.769-0.122c-0.977-0.062-2.624-1.22-2.38-3.173c0.062-0.609,0.793-2.5,3.6-2.379l27.574,1.525
			c2.44,0.366,3.477,2.074,3.05,4.148L175.377,112.144z M161.346,123.49c6.467,0,6.772-3.722,10.188-22.938L153.11,99.76
			l1.708,23.73H161.346z"/>
		<path d="M190.868,94.147l7.626,1.83c1.708,0.427,2.867,2.318,2.379,4.025l-2.867,12.385c-0.366,1.586-1.891,2.379-3.538,2.074
			c-1.525-0.428-2.501-1.892-2.196-3.66l2.501-9.7l-5.49-1.342c-1.708-0.488-2.318-2.318-1.952-3.538
			C187.636,95.123,188.611,93.72,190.868,94.147z"/>
		<path d="M212.522,96.16c0.488-1.83,2.38-2.074,3.6-1.892c4.881,0.55,16.228,1.709,20.376,1.647c1.708,0,2.928,1.403,2.928,2.807
			v27.817c0,1.587-1.22,2.99-2.867,2.99s-2.928-1.221-2.928-2.99v-25.012l-18.912-1.951
			C213.499,99.454,211.913,98.173,212.522,96.16z M213.621,112.083c0-1.647,1.403-2.929,2.928-2.929
			c1.525,0,2.807,1.281,2.807,2.929v14.457c0,1.77-1.22,2.99-2.929,2.99c-1.524,0-2.806-1.221-2.806-2.99V112.083z"/>
	</g>
	<g>
		<path d="M238.771,73.231h-91.25c-0.828,0-1.5-0.672-1.5-1.5c0-0.829,0.672-1.5,1.5-1.5h91.25c0.828,0,1.5,0.671,1.5,1.5
			C240.271,72.56,239.599,73.231,238.771,73.231z"/>
	</g>
	<g>
		<path d="M95.979,73.231H4.729c-0.829,0-1.5-0.672-1.5-1.5c0-0.829,0.671-1.5,1.5-1.5h91.25c0.828,0,1.5,0.671,1.5,1.5
			C97.479,72.56,96.808,73.231,95.979,73.231z"/>
	</g>
	<g>
		<circle cx="98.229" cy="5.063" r="2.874"/>
	</g>
	<g>
		<circle cx="115.769" cy="138.188" r="2.124"/>
	</g>
	<g>
		<circle cx="124.541" cy="138.188" r="2.124"/>
	</g>
	<g>
		<circle cx="120.154" cy="145.188" r="2.124"/>
	</g>
</g>
</svg>
