<?xml version="1.0" encoding="utf-8"?>
<!-- Generator: Adobe Illustrator 16.0.0, SVG Export Plug-In . SVG Version: 6.00 Build 0)  -->
<!DOCTYPE svg PUBLIC "-//W3C//DTD SVG 1.1//EN" "http://www.w3.org/Graphics/SVG/1.1/DTD/svg11.dtd">
<svg version="1.1" id="Layer_1" xmlns="http://www.w3.org/2000/svg" xmlns:xlink="http://www.w3.org/1999/xlink" x="0px" y="0px"
	 width="160px" height="160px" viewBox="0 0 160 160" enable-background="new 0 0 160 160" xml:space="preserve">
<g>
	
		<ellipse fill="#FE910D" stroke="#000000" stroke-width="2.5" stroke-linecap="round" stroke-linejoin="round" stroke-miterlimit="10" cx="80" cy="80" rx="78.118" ry="76.667"/>
	
		<ellipse fill="#FFFFFF" stroke="#000000" stroke-width="2.5" stroke-linecap="round" stroke-linejoin="round" stroke-miterlimit="10" cx="80" cy="80" rx="70.148" ry="68.845"/>
	
		<ellipse fill="#FE910D" stroke="#000000" stroke-width="1.5" stroke-linecap="round" stroke-linejoin="round" stroke-miterlimit="10" cx="80" cy="80" rx="64.173" ry="62.98"/>
	
		<path fill="#FFFFFF" stroke="#000000" stroke-width="2.5" stroke-linecap="round" stroke-linejoin="round" stroke-miterlimit="10" d="
		M117.558,87.995c1.746-0.001,3.162-1.417,3.162-3.163v-9.671c0-1.747-1.416-3.163-3.163-3.164l-51.745,0.005l23.109-23.12
		c1.234-1.235,1.234-3.238,0-4.473l-6.839-6.838c-1.235-1.235-3.237-1.235-4.474,0L40.843,74.344
		c-0.108,0.108-0.204,0.225-0.306,0.338c-1.35,1.367-2.184,3.245-2.184,5.318c0,1.994,0.776,3.804,2.036,5.156
		c0.145,0.171,0.292,0.34,0.453,0.501l36.766,36.771c1.236,1.235,3.238,1.235,4.474,0l6.839-6.839c1.234-1.234,1.234-3.237,0-4.473
		L65.795,87.981L117.558,87.995z"/>
	
		<path fill="#FFFFFF" stroke="#000000" stroke-width="1.5" stroke-linecap="round" stroke-linejoin="round" stroke-miterlimit="10" d="
		M79.845,40.991l5.656,5.655L62.982,69.175l-6.826,6.829l9.655-0.001l50.908-0.005v7.998l-50.924-0.014l-9.657-0.003l6.827,6.83
		L85.5,113.354l-5.655,5.655L43.671,82.828c-0.082-0.081-0.154-0.168-0.227-0.255L43.382,82.5l-0.065-0.07
		c-0.621-0.666-0.963-1.529-0.963-2.43c0-0.944,0.366-1.835,1.03-2.508l0.067-0.068l0.064-0.072l0.124-0.14l0.032-0.04
		L79.845,40.991"/>
</g>
</svg>
