<?xml version="1.0" encoding="utf-8"?>
<!-- Generator: Adobe Illustrator 16.0.0, SVG Export Plug-In . SVG Version: 6.00 Build 0)  -->
<!DOCTYPE svg PUBLIC "-//W3C//DTD SVG 1.1//EN" "http://www.w3.org/Graphics/SVG/1.1/DTD/svg11.dtd">
<svg version="1.1" id="Layer_1" xmlns="http://www.w3.org/2000/svg" xmlns:xlink="http://www.w3.org/1999/xlink" x="0px" y="0px"
	 width="80px" height="80px" viewBox="0 0 80 80" enable-background="new 0 0 80 80" xml:space="preserve">
<g>
	<g>
		
			<ellipse fill="#FE910D" stroke="#000000" stroke-width="2.5" stroke-linecap="round" stroke-linejoin="round" stroke-miterlimit="10" cx="40" cy="39.999" rx="37.951" ry="37.248"/>
		
			<ellipse fill="#FFFFFF" stroke="#000000" stroke-width="2.5" stroke-linecap="round" stroke-linejoin="round" stroke-miterlimit="10" cx="40" cy="39.999" rx="31.995" ry="31.399"/>
		
			<ellipse fill="#FE910D" stroke="#000000" stroke-width="1.5" stroke-linecap="round" stroke-linejoin="round" stroke-miterlimit="10" cx="40" cy="39.999" rx="27.764" ry="27.247"/>
	</g>
	<g>
		
			<path fill="#FFFFFF" stroke="#000000" stroke-width="2.5" stroke-linecap="round" stroke-linejoin="round" stroke-miterlimit="10" d="
			M43.336,25.245l3.199-2.367c0.514-0.38,0.622-1.104,0.241-1.617l-1.815-2.452c-0.381-0.515-1.104-0.622-1.617-0.241l-9.88,7.315
			c-0.513,0.381-0.622,1.104-0.241,1.618l7.316,9.88c0.381,0.513,1.104,0.621,1.617,0.24l2.478-1.834
			c0.513-0.381,0.622-1.104,0.241-1.618l-2.704-3.657c4.931,1.008,8.649,5.379,8.649,10.603c0,5.966-4.854,10.821-10.82,10.821
			S29.179,47.08,29.179,41.114l-0.07-1.569c0-0.639-0.519-1.156-1.156-1.156H24.94c-0.639,0-1.156,0.518-1.156,1.156v1.569
			c0,8.941,7.274,16.216,16.216,16.216c8.941,0,16.217-7.274,16.217-16.216C56.217,33.316,50.682,26.786,43.336,25.245z"/>
	</g>
</g>
</svg>
