<?xml version="1.0" encoding="utf-8"?>
<!-- Generator: Adobe Illustrator 16.0.0, SVG Export Plug-In . SVG Version: 6.00 Build 0)  -->
<!DOCTYPE svg PUBLIC "-//W3C//DTD SVG 1.1//EN" "http://www.w3.org/Graphics/SVG/1.1/DTD/svg11.dtd">
<svg version="1.1" id="Layer_1" xmlns="http://www.w3.org/2000/svg" xmlns:xlink="http://www.w3.org/1999/xlink" x="0px" y="0px"
	 width="160px" height="160px" viewBox="0 0 160 160" enable-background="new 0 0 160 160" xml:space="preserve">
<g>
	
		<ellipse fill="#E57700" stroke="#000000" stroke-width="3" stroke-linecap="round" stroke-linejoin="round" stroke-miterlimit="10" cx="80" cy="80.001" rx="78.118" ry="76.666"/>
	
		<ellipse fill="#FFFFFF" stroke="#000000" stroke-width="2.5" stroke-linecap="round" stroke-linejoin="round" stroke-miterlimit="10" cx="80" cy="80.001" rx="70.148" ry="68.846"/>
	
		<ellipse fill="#E57700" stroke="#000000" stroke-width="2" stroke-linecap="round" stroke-linejoin="round" stroke-miterlimit="10" cx="80" cy="80.001" rx="64.173" ry="62.98"/>
	<g>
		
			<path fill="#FFFFFF" stroke="#000000" stroke-width="2.5" stroke-linecap="round" stroke-linejoin="round" stroke-miterlimit="10" d="
			M88.654,41.328l8.306-6.142c1.331-0.986,1.612-2.864,0.625-4.196l-4.713-6.364c-0.985-1.332-2.864-1.611-4.196-0.625
			L63.039,42.987c-1.332,0.986-1.612,2.864-0.626,4.196l18.985,25.638c0.986,1.33,2.865,1.611,4.197,0.625l6.43-4.761
			c1.33-0.986,1.611-2.865,0.625-4.196l-7.019-9.492c12.793,2.615,22.447,13.957,22.447,27.512c0,15.482-12.597,28.08-28.08,28.08
			c-15.483,0-28.08-12.598-28.08-28.08l-0.182-4.072c0-1.658-1.344-3-3-3H40.92c-1.657,0-3,1.342-3,3v4.072
			c0,23.203,18.877,42.08,42.08,42.08s42.08-18.877,42.08-42.08C122.08,62.272,107.721,45.33,88.654,41.328z"/>
		
			<path fill="#FFFFFF" stroke="#000000" stroke-width="1.5" stroke-linecap="round" stroke-linejoin="round" stroke-miterlimit="10" d="
			M87.73,45.732l-9.813-2.061l8.063-5.962l5.889-4.355c0.32-0.236,0.533-0.591,0.592-0.984s-0.041-0.795-0.277-1.114l-1.141-1.54
			c-0.295-0.397-0.748-0.607-1.207-0.607c-0.311,0-0.623,0.096-0.893,0.295L68.128,44.818c-0.666,0.492-0.806,1.432-0.313,2.098
			l15.414,20.816c0.237,0.32,0.592,0.532,0.984,0.591c0.074,0.011,0.148,0.017,0.223,0.017c0.318,0,0.633-0.103,0.894-0.295
			l1.608-1.192c0.664-0.492,0.806-1.432,0.313-2.097l-5.237-7.084l-6.974-9.434l11.494,2.35
			c15.092,3.085,26.046,16.51,26.046,31.921c0,17.966-14.615,32.58-32.58,32.58c-17.892,0-32.507-14.557-32.58-32.446
			c0-0.021,0-0.039-0.001-0.062l-0.054-1.211c-0.036-0.804-0.696-1.434-1.499-1.434H43.92c-0.829,0-1.5,0.671-1.5,1.5v1.072
			c0,20.721,16.858,37.58,37.58,37.58c20.723,0,37.58-16.859,37.58-37.58C117.58,64.829,105.025,49.362,87.73,45.732z"/>
	</g>
</g>
</svg>
